<svg xmlns="http://www.w3.org/2000/svg" xmlns:xlink="http://www.w3.org/1999/xlink" width="360" height="88" viewBox="0 0 360 88"><defs><clipPath id="b"><rect width="360" height="88"/></clipPath></defs><g id="a" clip-path="url(#b)"><rect width="230.5" height="83.8" rx="2" transform="translate(2 2)" fill="#fff"/><path d="M2,0A2,2,0,0,0,0,2V81.8a2,2,0,0,0,2,2H228.5a2,2,0,0,0,2-2V2a2,2,0,0,0-2-2H2M2-2H228.5a4,4,0,0,1,4,4V81.8a4,4,0,0,1-4,4H2a4,4,0,0,1-4-4V2A4,4,0,0,1,2-2Z" transform="translate(2 2)" fill="#2e3e5a"/><path d="M203.859,1H0V-1H203.859Z" transform="translate(13.056 36)" fill="#2e3e5a"/><path d="M203.859,2H0V-2H203.859Z" transform="translate(13.056 16.805)" fill="#2e3e5a"/><path d="M90.388,1H0V-1H90.388Z" transform="translate(13.056 46.195)" fill="#2e3e5a"/><g transform="translate(-913.944 -1813.647)"><rect width="37.807" height="15.995" rx="7.998" transform="translate(927 1874)" fill="#abb1bd"/></g></g></svg>