<svg xmlns="http://www.w3.org/2000/svg" xmlns:xlink="http://www.w3.org/1999/xlink" width="360" height="136" viewBox="0 0 360 136"><defs><clipPath id="b"><rect width="360" height="136"/></clipPath></defs><g id="a" clip-path="url(#b)"><rect width="132" height="132" rx="2" transform="translate(2 2)" fill="#fff"/><path d="M2,0A2,2,0,0,0,0,2V130a2,2,0,0,0,2,2H130a2,2,0,0,0,2-2V2a2,2,0,0,0-2-2H2M2-2H130a4,4,0,0,1,4,4V130a4,4,0,0,1-4,4H2a4,4,0,0,1-4-4V2A4,4,0,0,1,2-2Z" transform="translate(2 2)" fill="#2e3e5a"/><rect width="132" height="28" transform="translate(2 2)" fill="#e4e6ea"/><path d="M73,1.5H0v-3H73Z" transform="translate(12.5 20.5)" fill="#2e3e5a"/><path d="M73,1H0V-1H73Z" transform="translate(12.5 73.5)" fill="#2e3e5a"/><path d="M51,1H0V-1H51Z" transform="translate(12.5 79.5)" fill="#2e3e5a"/><path d="M51,1H0V-1H51Z" transform="translate(12.5 85.5)" fill="#2e3e5a"/><rect width="73.753" height="25.148" transform="translate(12.747 96.5)" fill="#e4e6ea"/><path d="M2,2V23.148H71.753V2H2M0,0H73.753V25.148H0Z" transform="translate(12.747 96.5)" fill="#2e3e5a"/><rect width="73.753" height="26.148" transform="translate(12.747 36)" fill="#e4e6ea"/><path d="M2,2V24.148H71.753V2H2M0,0H73.753V26.148H0Z" transform="translate(12.747 36)" fill="#2e3e5a"/><path d="M49.552,1H0V-1H49.552Z" transform="translate(19.448 105.028)" fill="#2e3e5a"/><path d="M40.542,1H0V-1H40.542Z" transform="translate(19.448 111.902)" fill="#2e3e5a"/><path d="M0,6.127l1.568-1.6L4.335,7.3,11.643,0l1.582,1.572-8.89,8.89Z" transform="translate(21.424 44)" fill="#2e3e5a"/><path d="M37,1H0V-1H37Z" transform="translate(41.49 49.5)" fill="#2e3e5a"/></g></svg>