<svg xmlns="http://www.w3.org/2000/svg" xmlns:xlink="http://www.w3.org/1999/xlink" width="360" height="130" viewBox="0 0 360 130"><defs><clipPath id="b"><rect width="360" height="130"/></clipPath></defs><g id="a" clip-path="url(#b)"><g transform="translate(-6 -72.918)"><path d="M174.682,111.625V53.638c0-3.423-2.453-6.2-5.48-6.2H76.245c-3.026,0-5.48,2.775-5.48,6.2v57.986" transform="translate(42.341 75.435)" fill="#313e58"/><path d="M169.029,106.818V54.011a1.044,1.044,0,0,0-1.014-1.073H77.83a1.045,1.045,0,0,0-1.014,1.073v52.807" transform="translate(42.143 75.62)" fill="#abb1bd"/><path d="M182,109.6H62.865a1.051,1.051,0,0,0-1.014,1.083,8.345,8.345,0,0,0,8.055,8.608H174.958a8.345,8.345,0,0,0,8.055-8.608A1.051,1.051,0,0,0,182,109.6" transform="translate(42.633 78.886)" fill="#abb1bd"/><path d="M137.8,112.78a3.039,3.039,0,0,0,2.755,2.369h18.788a3.039,3.039,0,0,0,2.755-2.369" transform="translate(15.445 77.502)" fill="#313e58"/><path d="M-494.484,2692.448H-528v-52.806a1.046,1.046,0,0,1,1.014-1.073h62.407l-29.905,53.879Z" transform="translate(646.959 -2510.011)" fill="#e4e6ea"/><path d="M-494.19,2692.948H-528.5v-53.306a1.546,1.546,0,0,1,1.514-1.573h63.257Zm-33.31-1h32.722l29.35-52.879h-61.558a.547.547,0,0,0-.514.573Z" transform="translate(646.959 -2510.011)" fill="rgba(0,0,0,0)"/><g transform="translate(128.145 140.812)"><rect width="39.834" height="30.586" rx="5" transform="translate(24.2)" fill="#fff"/><path d="M5-1H34.834a6.007,6.007,0,0,1,6,6V25.586a6.007,6.007,0,0,1-6,6H5a6.007,6.007,0,0,1-6-6V5A6.007,6.007,0,0,1,5-1ZM34.834,29.586a4,4,0,0,0,4-4V5a4,4,0,0,0-4-4H5A4,4,0,0,0,1,5V25.586a4,4,0,0,0,4,4Z" transform="translate(24.2)" fill="#313e58"/><path d="M225.515,131.546c-.556,0-1.315-.238-4.454-3.109-1.7-1.557-3.88-3.684-6.47-6.32-1.994-2.029-4.212-4.344-6.087-6.351-.8-.855-1.48-1.6-1.97-2.141-.821-.914-.992-1.1-.992-1.538a1,1,0,0,1,1.864-.5c.446.567,4.163,4.606,8.616,9.137,6.917,7.039,8.95,8.482,9.492,8.778a23.555,23.555,0,0,0,3.566-2.958c1.674-1.55,3.82-3.651,6.378-6.243,4.367-4.424,8.469-8.8,8.51-8.844a1,1,0,1,1,1.459,1.368c-.043.046-4.374,4.665-8.886,9.225-2.656,2.684-4.856,4.825-6.54,6.364C226.829,131.306,226.069,131.546,225.515,131.546Z" transform="translate(-181.443 -110.265)" fill="#313e58"/><path d="M0,10.719A1,1,0,0,1-.813,10.3a1,1,0,0,1,.232-1.4L13.007-.813a1,1,0,0,1,1.4.232,1,1,0,0,1-.232,1.4L.582,10.532A1,1,0,0,1,0,10.719Z" transform="translate(24.977 16.639)" fill="#313e58"/><path d="M13.493,10.719a1,1,0,0,1-.584-.189L-.584.811a1,1,0,0,1-.227-1.4,1,1,0,0,1,1.4-.227L14.078,8.907a1,1,0,0,1-.585,1.812Z" transform="translate(49.971 16.639)" fill="#313e58"/><path d="M20.708,1H0A1,1,0,0,1-1,0,1,1,0,0,1,0-1H20.708a1,1,0,0,1,1,1A1,1,0,0,1,20.708,1Z" transform="translate(0 8)" fill="#313e58"/><path d="M9.34,1H0A1,1,0,0,1-1,0,1,1,0,0,1,0-1H9.34a1,1,0,0,1,1,1A1,1,0,0,1,9.34,1Z" transform="translate(9.92 15.293)" fill="#313e58"/><path d="M16.074,1H0A1,1,0,0,1-1,0,1,1,0,0,1,0-1H16.074a1,1,0,0,1,1,1A1,1,0,0,1,16.074,1Z" transform="translate(4.707 22.586)" fill="#313e58"/></g></g><g transform="translate(-113)"><g transform="translate(133.211 8)"><g transform="translate(20.839 15)"><path d="M0,63,7.082,29.765C3.133,25.1.459,19.377.906,12.967,2.193-5.5,27.728-1.439,32.694,7.883s4.377,32.966-2.042,34.632c-2.56.664-8.014-.963-13.564-4.332L20.572,63Z" fill="#fff"/><path d="M22.3,64.5H-1.853L5.464,30.163A28.954,28.954,0,0,1,.949,22.568a22.153,22.153,0,0,1-1.54-9.705A16.764,16.764,0,0,1,1.152,6.284,13.277,13.277,0,0,1,4.961,1.76,17.807,17.807,0,0,1,15.818-1.5,26.321,26.321,0,0,1,26.613.864a15.626,15.626,0,0,1,7.4,6.314c1.963,3.684,3.219,9.61,3.447,16.258a55.621,55.621,0,0,1-.379,8.866,27.17,27.17,0,0,1-1.833,7.308c-1.072,2.443-2.493,3.909-4.224,4.358a6.774,6.774,0,0,1-1.69.194c-2.655,0-6.452-1.19-10.345-3.192Zm-20.444-3H18.846L15.162,35.26l2.7,1.641c4.265,2.588,8.768,4.26,11.473,4.26a3.815,3.815,0,0,0,.937-.1c.773-.2,1.565-1.146,2.23-2.66,1.434-3.267,2.167-8.824,1.961-14.865-.209-6.115-1.366-11.7-3.1-14.949C29.253,4.613,22.421,1.5,15.818,1.5,4.437,1.5,2.645,9.592,2.4,13.071a19.177,19.177,0,0,0,1.339,8.4A26.361,26.361,0,0,0,8.227,28.8l.475.562Z" fill="#2e3e5a"/></g><path d="M62.869,9.641a4.485,4.485,0,0,0-3.14-3.185,4.137,4.137,0,0,0-1.155-.115c-.139.006-.178.046-.243-.052a1.278,1.278,0,0,1-.069-.334,6.291,6.291,0,0,0-.235-.778A6.353,6.353,0,0,0,56.493,2.9,7.714,7.714,0,0,0,51.86.708a6.755,6.755,0,0,0-2.785.38,11.029,11.029,0,0,0-1.352.578c-.132.066-.56.39-.692.369s-.44-.387-.559-.478A8.188,8.188,0,0,0,41.355,0c-2.066.015-4.056.119-5.78,1.378a11.558,11.558,0,0,0-1.043.866c-.174.162-.343.33-.5.5q-.146.158-.283.324c-.154.188-.13.25-.346.119a4.3,4.3,0,0,0-2.759-.621,6.173,6.173,0,0,0-1.665.47c-.181.077-.6.386-.792.389s-.6-.283-.8-.356a6.565,6.565,0,0,0-3.328-.308A8.594,8.594,0,0,0,20.793,4.05a4.387,4.387,0,0,0-1.209,1.1c-.142.2-.271.4-.432.586-.094.107-.281.216-.332.351a7.166,7.166,0,0,0-1.383-.61,3.407,3.407,0,0,0-1.946.074,7.738,7.738,0,0,0-3.069,2.18,8.712,8.712,0,0,0-1.136,1.525q-.232.393-.425.807a3,3,0,0,1-.187.42c-.106.155-.178.158-.371.225a5.987,5.987,0,0,0-2.55,1.707,5.877,5.877,0,0,0-1.32,2.8,1.426,1.426,0,0,1-.053.344c-.049.045-.245.025-.32.034a6.726,6.726,0,0,0-.766.135,6.324,6.324,0,0,0-1.347.484A7.039,7.039,0,0,0,.5,20.332a8.359,8.359,0,0,0,.131,5.723,5.591,5.591,0,0,0,.425.838c.1.164.134.164.068.335-.074.191-.208.376-.3.563A8.079,8.079,0,0,0,.216,29.7a8.974,8.974,0,0,0-.105,3.307,4.775,4.775,0,0,0,.511,1.451,4.163,4.163,0,0,0,.448.649c.088.1.181.2.279.3a1.861,1.861,0,0,1,.177.164c.116.149.14.026.081.245a9.79,9.79,0,0,1-.389.905c-.12.307-.228.618-.327.932A13.741,13.741,0,0,0,.414,39.6a6.1,6.1,0,0,0,.43,3.771,3.772,3.772,0,0,0,1.067,1.27,3.96,3.96,0,0,0,.7.426c.127.06.289.086.347.209s-.03.395-.051.542a9.042,9.042,0,0,0,.106,3.9,5.382,5.382,0,0,0,2.133,2.863,6.637,6.637,0,0,0,6.634.188,6.965,6.965,0,0,0,1.481-1.018c1.136,1.53,3.474,1.481,5.135,1.045a7.376,7.376,0,0,0,4.685-3.872,3.122,3.122,0,0,0,4.959-.652,4.132,4.132,0,0,0,.418-1.36c.034-.248.012-.5.038-.744a3.844,3.844,0,0,1,.362-.921,5.084,5.084,0,0,0,.386-1.836,9.321,9.321,0,0,0-.07-.986,3.387,3.387,0,0,1,.1-.866,3.96,3.96,0,0,1-1.677-.21,3.311,3.311,0,0,1-1.3-.912,7.564,7.564,0,0,1-1.631-3.049c-.737-2.415-.435-5.312,1.994-6.637,1.131-.617,4.521-.615,5.869-.31,1.417.321,3.023,3.447,3.1,3.741.049.182.024.407.191.528.367.266.973-.2,1.244-.424a4.905,4.905,0,0,0,1.089-1.449,17.929,17.929,0,0,0,1.495-3.665c.276-.977.453-1.984.814-2.936a4.491,4.491,0,0,1,1.806-2.33,15.9,15.9,0,0,1,3.107-1.258,7.712,7.712,0,0,0,2.874-1.579,3.972,3.972,0,0,0,.493-.55c.113-.158.224-.459.4-.559.267-.156.658.249.889.4a10.272,10.272,0,0,1,2.86,2.839,17.664,17.664,0,0,1,1.9,3.38,9.773,9.773,0,0,0,1.277,2.819,5.388,5.388,0,0,0,3.213.243,4.06,4.06,0,0,0,1.753-1.517,2.357,2.357,0,0,0,.2-1.545c-.062-.312-.187-.6-.256-.909a2.833,2.833,0,0,0-.236-.736,1.814,1.814,0,0,0-1.131-.9,5.31,5.31,0,0,0,1.221-1.656,7.109,7.109,0,0,0,.632-2.158,2.62,2.62,0,0,0-.35-1.681,4.426,4.426,0,0,0-1.435-1.191,9.336,9.336,0,0,0,2-2.176A6.793,6.793,0,0,0,62.869,9.641Z" transform="translate(0 0)" fill="#313e58"/></g><path d="M0,1.983,7.54,0Q31.631,47.657,84.424,83.708L62.246,116.03C26.056,80.59,2.356,42.832,0,1.983Z" transform="matrix(0.996, 0.087, -0.087, 0.996, 164.361, 73.243)" fill="#abb1bd"/><path d="M0,107.293H68.428s-23.78-61.1-23.78-103.815l-20.841-1.8C7.585,29.246,3.2,61.748,0,107.293Z" transform="translate(130.689 69.325)" fill="#e4e6ea"/><path d="M0,119.621H61.319s-8.452-79-9.243-105.068l-5.1-13.405A57.188,57.188,0,0,0,39.721,0H38.374C23.837,26.09,2.871,76.525,0,119.621Z" transform="translate(115.895 70.48)" fill="#abb1bd"/><path d="M54.657,0S7.483,46.208,0,130.636H33.353C28.169,59.546,60.43,5.132,60.43,5.132Z" transform="translate(99.586 70.48)" fill="#abb1bd"/></g></g></svg>