<svg xmlns="http://www.w3.org/2000/svg" xmlns:xlink="http://www.w3.org/1999/xlink" width="360" height="94" viewBox="0 0 360 94"><defs><clipPath id="b"><rect width="360" height="94"/></clipPath></defs><g id="a" clip-path="url(#b)"><rect width="360" height="94" rx="2" fill="#abb1bd"/><rect width="205.5" height="63.5" rx="2" transform="translate(77.438 15.25)" fill="#fff"/><path d="M2,0A2,2,0,0,0,0,2V61.5a2,2,0,0,0,2,2H203.5a2,2,0,0,0,2-2V2a2,2,0,0,0-2-2H2M2-2H203.5a4,4,0,0,1,4,4V61.5a4,4,0,0,1-4,4H2a4,4,0,0,1-4-4V2A4,4,0,0,1,2-2Z" transform="translate(77.438 15.25)" fill="#2e3e5a"/><path d="M158.069,1H0V-1H158.069Z" transform="translate(90.888 34.68)" fill="#2e3e5a"/><path d="M158.069,1H0V-1H158.069Z" transform="translate(90.888 47.68)" fill="#2e3e5a"/><path d="M158.532,1H0V-1H158.532Z" transform="translate(90.888 61.68)" fill="#2e3e5a"/><g transform="translate(52.438 13.25)"><rect width="15.273" height="1.697" transform="translate(209.807 11.723) rotate(45)" fill="#2e3e5a"/><rect width="15.273" height="1.697" transform="translate(208.606 22.522) rotate(-45)" fill="#2e3e5a"/></g></g></svg>