<svg xmlns="http://www.w3.org/2000/svg" xmlns:xlink="http://www.w3.org/1999/xlink" width="360" height="79" viewBox="0 0 360 79"><defs><clipPath id="b"><rect width="360" height="79"/></clipPath></defs><g id="a" clip-path="url(#b)"><g transform="translate(2 2)"><rect width="110.247" height="74.925" rx="2" transform="translate(0 0)" fill="#fff"/><path d="M2,0A2,2,0,0,0,0,2V72.925a2,2,0,0,0,2,2H108.247a2,2,0,0,0,2-2V2a2,2,0,0,0-2-2H2M2-2H108.247a4,4,0,0,1,4,4V72.925a4,4,0,0,1-4,4H2a4,4,0,0,1-4-4V2A4,4,0,0,1,2-2Z" transform="translate(0 0)" fill="#2e3e5a"/><path d="M90.994,1H0V-1H90.994Z" transform="translate(9.098 29.97)" fill="#2e3e5a"/><path d="M90.994,2H0V-2H90.994Z" transform="translate(9.098 13.706)" fill="#2e3e5a"/><path d="M59.94,1H0V-1H59.94Z" transform="translate(9.098 40.711)" fill="#2e3e5a"/><g transform="translate(9.633 55.548)"><path d="M36.171-41.99H30v-1.657h6.17l-2.293-2.292L34.931-47l3.905,4.181-3.905,4.182-1.055-1.054Z" transform="translate(-30 47)" fill="#2e3e5a" fill-rule="evenodd"/></g></g><g transform="translate(125.092 2)"><rect width="110.247" height="74.925" rx="2" transform="translate(0 0)" fill="#fff"/><path d="M2,0A2,2,0,0,0,0,2V72.925a2,2,0,0,0,2,2H108.247a2,2,0,0,0,2-2V2a2,2,0,0,0-2-2H2M2-2H108.247a4,4,0,0,1,4,4V72.925a4,4,0,0,1-4,4H2a4,4,0,0,1-4-4V2A4,4,0,0,1,2-2Z" transform="translate(0 0)" fill="#2e3e5a"/><path d="M90.994,1H0V-1H90.994Z" transform="translate(9.098 29.97)" fill="#2e3e5a"/><path d="M90.994,2H0V-2H90.994Z" transform="translate(9.098 13.706)" fill="#2e3e5a"/><path d="M59.94,1H0V-1H59.94Z" transform="translate(9.098 40.711)" fill="#2e3e5a"/><g transform="translate(9.633 55.548)"><path d="M36.171-41.99H30v-1.657h6.17l-2.293-2.292L34.931-47l3.905,4.181-3.905,4.182-1.055-1.054Z" transform="translate(-30 47)" fill="#2e3e5a" fill-rule="evenodd"/></g></g><g transform="translate(248.184 1.999)"><rect width="110.247" height="74.925" rx="2" transform="translate(0 0.001)" fill="#fff"/><path d="M2,0A2,2,0,0,0,0,2V72.925a2,2,0,0,0,2,2H108.247a2,2,0,0,0,2-2V2a2,2,0,0,0-2-2H2M2-2H108.247a4,4,0,0,1,4,4V72.925a4,4,0,0,1-4,4H2a4,4,0,0,1-4-4V2A4,4,0,0,1,2-2Z" transform="translate(0 0.001)" fill="#2e3e5a"/><path d="M90.994,1H0V-1H90.994Z" transform="translate(9.098 29.971)" fill="#2e3e5a"/><path d="M90.994,2H0V-2H90.994Z" transform="translate(9.098 13.706)" fill="#2e3e5a"/><path d="M59.94,1H0V-1H59.94Z" transform="translate(9.098 40.712)" fill="#2e3e5a"/><g transform="translate(9.633 55.549)"><path d="M36.171-41.99H30v-1.657h6.17l-2.293-2.292L34.931-47l3.905,4.181-3.905,4.182-1.055-1.054Z" transform="translate(-30 47)" fill="#2e3e5a" fill-rule="evenodd"/></g></g></g></svg>