<svg xmlns="http://www.w3.org/2000/svg" xmlns:xlink="http://www.w3.org/1999/xlink" width="360" height="92" viewBox="0 0 360 92"><defs><clipPath id="b"><rect width="360" height="92"/></clipPath></defs><g id="a" clip-path="url(#b)"><g transform="translate(55.928 44.338)"><path d="M635.955,1272.991h20.986v-43.854H635.955Z" transform="translate(-635.955 -1229.137)" fill="#2e3e5a"/></g><g transform="translate(79.302 44.338)"><path d="M635.955,1272.991h20.986v-43.854H635.955Z" transform="translate(-635.955 -1229.137)" fill="#abb1bd"/></g><g transform="translate(32.554 0.484)"><path d="M563.225,1187.008h20.986V1099.3H563.225Z" transform="translate(-563.225 -1099.301)" fill="#abb1bd"/></g><g transform="translate(9.182 13.813)"><path d="M519.026,1198.883h20.986v-74.378H519.026Z" transform="translate(-519.026 -1124.505)" fill="#2e3e5a"/></g><path d="M591.507,1266.963H488.427a1.5,1.5,0,0,1,0-3h103.08a1.5,1.5,0,0,1,0,3Z" transform="translate(-486.21 -1177.11)" fill="#2e3e5a"/><g transform="translate(125.659 13.813)"><path d="M88.8,16.086H66.482a14.8,14.8,0,0,0-1.08-5.574L86.088,2.154A36.026,36.026,0,0,1,88.8,16.085Z" transform="translate(-14.418 21.104)" fill="#abb1bd"/><path d="M89.3,16.585H65.982v-.5A14.3,14.3,0,0,0,64.939,10.7l-.188-.464L86.364,1.5l.187.464A36.511,36.511,0,0,1,89.3,16.085Zm-22.321-1H88.293A35.386,35.386,0,0,0,85.809,2.806L66.046,10.79A15.272,15.272,0,0,1,66.974,15.585Z" transform="translate(-14.418 21.104)" fill="rgba(0,0,0,0)"/><path d="M4.434,23.327h0A14.943,14.943,0,0,0,0,17.34L14.042,0A35.8,35.8,0,0,1,25.119,14.97L4.434,23.327Z" transform="translate(46.551 8.288)" fill="#e4e6ea"/><path d="M3.53,24.232l.364-.9a14.446,14.446,0,0,0-4.209-5.6L-.7,17.414,13.968-.7l.389.315A36.283,36.283,0,0,1,25.583,14.783l.187.464ZM.7,17.273a15.454,15.454,0,0,1,4,5.406l19.763-7.985A35.175,35.175,0,0,0,14.114.705Z" transform="translate(46.551 8.288)" fill="rgba(0,0,0,0)"/><path d="M37.189,74.378a37.463,37.463,0,0,1-7.495-.756,36.985,36.985,0,0,1-13.3-5.6A37.3,37.3,0,0,1,2.923,51.665,37,37,0,0,1,.756,44.684a37.552,37.552,0,0,1,0-14.99,36.985,36.985,0,0,1,5.6-13.3A37.3,37.3,0,0,1,22.713,2.923,37,37,0,0,1,29.694.756,37.463,37.463,0,0,1,37.189,0,36.746,36.746,0,0,1,49.646,2.011,36.743,36.743,0,0,1,60.593,8.288L46.551,25.628a14.891,14.891,0,1,0,5.514,11.561H74.378a37.462,37.462,0,0,1-.756,7.495,36.986,36.986,0,0,1-5.6,13.3A37.3,37.3,0,0,1,51.664,71.456a37,37,0,0,1-6.981,2.167A37.462,37.462,0,0,1,37.189,74.378Z" transform="translate(0 0)" fill="#293f5c"/><path d="M37.189,74.878a37.964,37.964,0,0,1-7.6-.766,37.486,37.486,0,0,1-13.478-5.671A37.8,37.8,0,0,1,2.462,51.859a37.5,37.5,0,0,1-2.2-7.075,38.051,38.051,0,0,1,0-15.19A37.485,37.485,0,0,1,5.937,16.116,37.8,37.8,0,0,1,22.519,2.462a37.5,37.5,0,0,1,7.075-2.2,37.965,37.965,0,0,1,7.6-.766A37.237,37.237,0,0,1,49.813,1.54,37.233,37.233,0,0,1,60.907,7.9l.389.315L46.625,26.332l-.389-.315a14.391,14.391,0,1,0,5.329,11.173v-.5H74.878v.5a37.963,37.963,0,0,1-.766,7.6,37.486,37.486,0,0,1-5.671,13.478A37.8,37.8,0,0,1,51.859,71.916a37.5,37.5,0,0,1-7.075,2.2A37.963,37.963,0,0,1,37.189,74.878ZM37.189.5a36.963,36.963,0,0,0-7.395.745,36.485,36.485,0,0,0-13.118,5.52A36.8,36.8,0,0,0,3.383,22.908a36.5,36.5,0,0,0-2.138,6.886,37.051,37.051,0,0,0,0,14.789A36.485,36.485,0,0,0,6.766,57.7,36.8,36.8,0,0,0,22.908,71a36.5,36.5,0,0,0,6.886,2.138,37.05,37.05,0,0,0,14.789,0A36.486,36.486,0,0,0,57.7,67.613,36.8,36.8,0,0,0,71,51.47a36.5,36.5,0,0,0,2.138-6.886,36.935,36.935,0,0,0,.742-6.895H52.557a15.391,15.391,0,1,1-6.085-12.758L59.888,8.364A35.971,35.971,0,0,0,49.479,2.482,36.256,36.256,0,0,0,37.189.5Z" transform="translate(0 0)" fill="rgba(0,0,0,0)"/></g></g></svg>