<svg xmlns="http://www.w3.org/2000/svg" xmlns:xlink="http://www.w3.org/1999/xlink" width="360" height="155" viewBox="0 0 360 155"><defs><clipPath id="b"><rect width="360" height="155"/></clipPath></defs><g id="a" clip-path="url(#b)"><rect width="157" height="151" rx="2" transform="translate(2 2)" fill="#fff"/><path d="M2,0A2,2,0,0,0,0,2V149a2,2,0,0,0,2,2H155a2,2,0,0,0,2-2V2a2,2,0,0,0-2-2H2M2-2H155a4,4,0,0,1,4,4V149a4,4,0,0,1-4,4H2a4,4,0,0,1-4-4V2A4,4,0,0,1,2-2Z" transform="translate(2 2)" fill="#2e3e5a"/><rect width="104.429" height="29" transform="translate(12.387 41.5)" fill="#e4e6ea"/><path d="M2,2V27H102.429V2H2M0,0H104.429V29H0Z" transform="translate(12.387 41.5)" fill="#2e3e5a"/><rect width="104.429" height="29" transform="translate(12.387 80.5)" fill="#e4e6ea"/><path d="M2,2V27H102.429V2H2M0,0H104.429V29H0Z" transform="translate(12.387 80.5)" fill="#2e3e5a"/><path d="M104.429,1H0V-1H104.429Z" transform="translate(12.387 25.5)" fill="#2e3e5a"/><path d="M104.429,1H0V-1H104.429Z" transform="translate(12.387 19.5)" fill="#2e3e5a"/><path d="M83.173,1H0V-1H83.173Z" transform="translate(12.387 31.5)" fill="#2e3e5a"/><rect width="40.978" height="18.322" rx="9.161" transform="translate(75.837 122.519)" fill="#2e3e5a"/><path d="M9.161,2a7.161,7.161,0,0,0,0,14.322H31.817A7.161,7.161,0,0,0,31.817,2H9.161m0-2H31.817a9.161,9.161,0,0,1,0,18.322H9.161A9.161,9.161,0,0,1,9.161,0Z" transform="translate(28.882 122.519)" fill="#2e3e5a"/><path d="M2.979,6,7.5,10.513,6.011,12,0,6,6.011,0,7.5,1.487Z" transform="translate(37.422 125.519)" fill="#2e3e5a"/><path d="M4.521,6,0,10.513,1.489,12,7.5,6,1.489,0,0,1.487Z" transform="translate(102.32 125.519)" fill="#fff"/></g></svg>