<svg xmlns="http://www.w3.org/2000/svg" xmlns:xlink="http://www.w3.org/1999/xlink" width="360" height="53" viewBox="0 0 360 53"><defs><clipPath id="b"><rect width="360" height="53"/></clipPath></defs><g id="a" clip-path="url(#b)"><rect width="230.5" height="51.5" transform="translate(-1)" fill="#fff"/><path d="M230.5,1H0V-1H230.5Z" transform="translate(-0.5 1)" fill="#2e3e5a"/><path d="M230.5,1H0V-1H230.5Z" transform="translate(-0.5 51.5)" fill="#2e3e5a"/><path d="M168.809,1H0V-1H168.809Z" transform="translate(45.476 26.5)" fill="#2e3e5a"/><path d="M11.783,0A11.783,11.783,0,1,1,0,11.783,11.783,11.783,0,0,1,11.783,0Z" transform="translate(9 14.5)" fill="#2e3e5a"/><g transform="translate(19.618 20.391)"><path d="M0,1.012A1.05,1.05,0,0,0,1.085,2.024,1.05,1.05,0,0,0,2.169,1.012,1.05,1.05,0,0,0,1.085,0,1.05,1.05,0,0,0,0,1.012Z" transform="translate(0.411 9.773)" fill="#fff"/><path d="M.005,1.346A1.457,1.457,0,0,1,.332.565,1.51,1.51,0,0,1,1.495,0,1.507,1.507,0,0,1,2.633.535a1.461,1.461,0,0,1,.352.811,1.4,1.4,0,0,1,0,.243L2.368,8.181a.791.791,0,0,1-.252.506.924.924,0,0,1-1.191.043.8.8,0,0,1-.3-.549L.005,1.588A1.386,1.386,0,0,1,.005,1.346Z" transform="translate(0 0)" fill="#fff"/></g></g></svg>