<svg xmlns="http://www.w3.org/2000/svg" xmlns:xlink="http://www.w3.org/1999/xlink" width="360" height="155" viewBox="0 0 360 155"><defs><clipPath id="b"><rect width="360" height="155"/></clipPath></defs><g id="a" clip-path="url(#b)"><rect width="157" height="151" rx="2" transform="translate(2 2)" fill="#fff"/><path d="M2,0A2,2,0,0,0,0,2V149a2,2,0,0,0,2,2H155a2,2,0,0,0,2-2V2a2,2,0,0,0-2-2H2M2-2H155a4,4,0,0,1,4,4V149a4,4,0,0,1-4,4H2a4,4,0,0,1-4-4V2A4,4,0,0,1,2-2Z" transform="translate(2 2)" fill="#2e3e5a"/><path d="M2,2V24H75.21V2H2M0,0H77.21V26H0Z" transform="translate(69.387 47.5)" fill="#2e3e5a"/><path d="M2,2V24H75.21V2H2M0,0H77.21V26H0Z" transform="translate(69.387 82.326)" fill="#2e3e5a"/><path d="M2,2V24H75.21V2H2M0,0H77.21V26H0Z" transform="translate(69.387 117.152)" fill="#2e3e5a"/><path d="M58.951,1H0V-1H58.951Z" transform="translate(78.777 57.5)" fill="#2e3e5a"/><path d="M58.951,1H0V-1H58.951Z" transform="translate(78.777 92.326)" fill="#2e3e5a"/><path d="M58.951,1H0V-1H58.951Z" transform="translate(78.777 127.152)" fill="#2e3e5a"/><path d="M46.952,1H0V-1H46.952Z" transform="translate(78.777 63.5)" fill="#2e3e5a"/><path d="M46.952,1H0V-1H46.952Z" transform="translate(78.777 98.326)" fill="#2e3e5a"/><path d="M46.952,1H0V-1H46.952Z" transform="translate(78.777 133.152)" fill="#2e3e5a"/><rect width="14.01" height="14.01" transform="translate(12.909 48.901)" fill="#e4e6ea"/><path d="M0-1H14.01a1,1,0,0,1,1,1V14.01a1,1,0,0,1-1,1H0a1,1,0,0,1-1-1V0A1,1,0,0,1,0-1ZM13.01,1H1V13.01H13.01Z" transform="translate(12.909 48.901)" fill="#abb1bd"/><rect width="14.01" height="14.01" transform="translate(12.909 70.316)" fill="#e4e6ea"/><path d="M0-1H14.01a1,1,0,0,1,1,1V14.01a1,1,0,0,1-1,1H0a1,1,0,0,1-1-1V0A1,1,0,0,1,0-1ZM13.01,1H1V13.01H13.01Z" transform="translate(12.909 70.316)" fill="#abb1bd"/><rect width="14.01" height="14.01" transform="translate(12.909 91.732)" fill="#e4e6ea"/><path d="M0-1H14.01a1,1,0,0,1,1,1V14.01a1,1,0,0,1-1,1H0a1,1,0,0,1-1-1V0A1,1,0,0,1,0-1ZM13.01,1H1V13.01H13.01Z" transform="translate(12.909 91.732)" fill="#abb1bd"/><path d="M23.116,1H0V-1H23.116Z" transform="translate(33.121 55.906)" fill="#2e3e5a"/><path d="M23.116,1H0V-1H23.116Z" transform="translate(33.121 77.321)" fill="#2e3e5a"/><path d="M23.116,1H0V-1H23.116Z" transform="translate(33.121 97.336)" fill="#2e3e5a"/><path d="M0,7.122,1.823,5.267,5.039,8.49,13.534,0l1.839,1.827L5.038,12.161Z" transform="translate(15.749 69.587)" fill="#2e3e5a"/><path d="M0,7.122,1.823,5.267,5.039,8.49,13.534,0l1.839,1.827L5.038,12.161Z" transform="translate(15.749 47.5)" fill="#2e3e5a"/><rect width="157" height="37" transform="translate(2 2)" fill="#e4e6ea"/><g transform="translate(0 -7.504)"><g transform="translate(116.924 23)"><rect width="29.672" height="13.267" rx="6.633" transform="translate(0)" fill="#2e3e5a"/></g><rect width="92.868" height="13.267" transform="translate(13 23.737)" fill="#fff"/><path d="M0-1H92.868a1,1,0,0,1,1,1V13.267a1,1,0,0,1-1,1H0a1,1,0,0,1-1-1V0A1,1,0,0,1,0-1ZM91.868,1H1V12.267H91.868Z" transform="translate(13 23.737)" fill="#2e3e5a"/></g></g></svg>