<svg xmlns="http://www.w3.org/2000/svg" xmlns:xlink="http://www.w3.org/1999/xlink" width="360" height="75" viewBox="0 0 360 75"><defs><clipPath id="a"><path d="M1060.226-114.741l-.328.328-1.366-1.365a5.825,5.825,0,0,0-.6-7.518,5.78,5.78,0,0,0-4.114-1.7,5.78,5.78,0,0,0-4.114,1.7,5.823,5.823,0,0,0,0,8.226,5.78,5.78,0,0,0,4.114,1.7,5.773,5.773,0,0,0,3.406-1.1l1.366,1.365-.328.328,3.786,3.786,1.967-1.967Zm-9.213-1.64a3.967,3.967,0,0,1,0-5.6,3.938,3.938,0,0,1,2.8-1.16,3.936,3.936,0,0,1,2.8,1.16,3.965,3.965,0,0,1,0,5.6,3.936,3.936,0,0,1-2.8,1.16A3.939,3.939,0,0,1,1051.013-116.381Z" transform="translate(-1048 125)" fill="none" clip-rule="evenodd"/></clipPath><clipPath id="b"><path d="M1048-108.988h16.012V-125H1048Z" transform="translate(-1048 125)" fill="none"/></clipPath><clipPath id="d"><rect width="360" height="75"/></clipPath></defs><g id="c" clip-path="url(#d)"><rect width="356" height="71.188" rx="2" transform="translate(2 2)" fill="#fff"/><path d="M2,0A2,2,0,0,0,0,2V69.188a2,2,0,0,0,2,2H354a2,2,0,0,0,2-2V2a2,2,0,0,0-2-2H2M2-2H354a4,4,0,0,1,4,4V69.188a4,4,0,0,1-4,4H2a4,4,0,0,1-4-4V2A4,4,0,0,1,2-2Z" transform="translate(2 2)" fill="#2e3e5a"/><path d="M36.525,1.5H0v-3H36.525Z" transform="translate(13 56.68)" fill="#2e3e5a"/><path d="M36.525,1.5H0v-3H36.525Z" transform="translate(153.881 56.68)" fill="#2e3e5a"/><path d="M38,1.5H0v-3H38Z" transform="translate(44.5 26.211)" fill="#788295"/><path d="M36.525,1.5H0v-3H36.525Z" transform="translate(59.96 56.68)" fill="#2e3e5a"/><path d="M36.525,1.5H0v-3H36.525Z" transform="translate(200.841 56.68)" fill="#2e3e5a"/><path d="M36.525,1.5H0v-3H36.525Z" transform="translate(106.921 56.68)" fill="#2e3e5a"/><path d="M36.525,1.5H0v-3H36.525Z" transform="translate(247.801 56.68)" fill="#2e3e5a"/><circle cx="12.219" cy="12.219" r="12.219" transform="translate(13 13.991)" fill="#788295"/><rect width="31" height="27" rx="6" transform="translate(316 12)" fill="#2e3e5a"/><g transform="translate(323.892 17.418)" clip-path="url(#a)"><g clip-path="url(#b)"><path d="M1043-130h22.683v22.683H1043Z" transform="translate(-1046.336 126.664)" fill="#fff"/></g></g></g></svg>