<svg xmlns="http://www.w3.org/2000/svg" xmlns:xlink="http://www.w3.org/1999/xlink" width="360" height="90" viewBox="0 0 360 90"><defs><clipPath id="b"><rect width="360" height="90"/></clipPath></defs><g id="a" clip-path="url(#b)"><path d="M2,0H76.5a0,0,0,0,1,0,0V19.9a0,0,0,0,1,0,0H0a0,0,0,0,1,0,0V2A2,2,0,0,1,2,0Z" transform="translate(2 2.009)" fill="#e4e6ea"/><path d="M2,0A2,2,0,0,0,0,2V19.9H76.5V0H2M2-2H78.5V21.9H-2V2A4,4,0,0,1,2-2Z" transform="translate(2 2.009)" fill="#2e3e5a"/><rect width="76.5" height="19.9" transform="translate(2 24.009)" fill="#fff"/><path d="M0,0V19.9H76.5V0H0M-2-2H78.5V21.9H-2Z" transform="translate(2 24.009)" fill="#2e3e5a"/><rect width="76.5" height="19.9" transform="translate(2 46.009)" fill="#fff"/><path d="M0,0V19.9H76.5V0H0M-2-2H78.5V21.9H-2Z" transform="translate(2 46.009)" fill="#2e3e5a"/><path d="M0,0H76.5a0,0,0,0,1,0,0V19.9a0,0,0,0,1,0,0H2a2,2,0,0,1-2-2V0A0,0,0,0,1,0,0Z" transform="translate(2 68.009)" fill="#fff"/><path d="M0,0V17.9a2,2,0,0,0,2,2H76.5V0H0M-2-2H78.5V21.9H2a4,4,0,0,1-4-4Z" transform="translate(2 68.009)" fill="#2e3e5a"/><rect width="76.5" height="19.9" transform="translate(80 2.009)" fill="#e4e6ea"/><path d="M0,0V19.9H76.5V0H0M-2-2H78.5V21.9H-2Z" transform="translate(80 2.009)" fill="#2e3e5a"/><rect width="76.5" height="19.9" transform="translate(80 24.009)" fill="#fff"/><path d="M0,0V19.9H76.5V0H0M-2-2H78.5V21.9H-2Z" transform="translate(80 24.009)" fill="#2e3e5a"/><rect width="76.5" height="19.9" transform="translate(80 46.009)" fill="#fff"/><path d="M0,0V19.9H76.5V0H0M-2-2H78.5V21.9H-2Z" transform="translate(80 46.009)" fill="#2e3e5a"/><rect width="76.5" height="19.9" transform="translate(80 68.009)" fill="#fff"/><path d="M0,0V19.9H76.5V0H0M-2-2H78.5V21.9H-2Z" transform="translate(80 68.009)" fill="#2e3e5a"/><path d="M0,0H74.5a2,2,0,0,1,2,2V19.9a0,0,0,0,1,0,0H0a0,0,0,0,1,0,0V0A0,0,0,0,1,0,0Z" transform="translate(158 2.009)" fill="#e4e6ea"/><path d="M0,0V19.9H76.5V2a2,2,0,0,0-2-2H0M-2-2H74.5a4,4,0,0,1,4,4V21.9H-2Z" transform="translate(158 2.009)" fill="#2e3e5a"/><rect width="76.5" height="19.9" transform="translate(158 24.009)" fill="#fff"/><path d="M0,0V19.9H76.5V0H0M-2-2H78.5V21.9H-2Z" transform="translate(158 24.009)" fill="#2e3e5a"/><rect width="76.5" height="19.9" transform="translate(158 46.009)" fill="#fff"/><path d="M0,0V19.9H76.5V0H0M-2-2H78.5V21.9H-2Z" transform="translate(158 46.009)" fill="#2e3e5a"/><path d="M0,0H76.5a0,0,0,0,1,0,0V17.9a2,2,0,0,1-2,2H0a0,0,0,0,1,0,0V0A0,0,0,0,1,0,0Z" transform="translate(158 68.009)" fill="#fff"/><path d="M0,0V19.9H74.5a2,2,0,0,0,2-2V0H0M-2-2H78.5V17.9a4,4,0,0,1-4,4H-2Z" transform="translate(158 68.009)" fill="#2e3e5a"/></g></svg>