<svg xmlns="http://www.w3.org/2000/svg" xmlns:xlink="http://www.w3.org/1999/xlink" width="360" height="94" viewBox="0 0 360 94"><defs><clipPath id="a"><path d="M20-34.967l1.45-1.414,2.557,2.456,6.755-6.47L32.223-39l-4.2,4.024-4.018,3.851Z" transform="translate(-20 40.394)" fill="#fff" clip-rule="evenodd"/></clipPath><clipPath id="b"><path d="M20-32.183H32.706V-44H20Z" transform="translate(-20 44)" fill="#fff"/></clipPath><clipPath id="d"><rect width="360" height="94"/></clipPath></defs><g id="c" clip-path="url(#d)"><rect width="230.5" height="89.5" rx="2" transform="translate(2 2)" fill="#fff"/><path d="M2,0A2,2,0,0,0,0,2V87.5a2,2,0,0,0,2,2H228.5a2,2,0,0,0,2-2V2a2,2,0,0,0-2-2H2M2-2H228.5a4,4,0,0,1,4,4V87.5a4,4,0,0,1-4,4H2a4,4,0,0,1-4-4V2A4,4,0,0,1,2-2Z" transform="translate(2 2)" fill="#2e3e5a"/><rect width="52.382" height="23.53" rx="11.765" transform="translate(14.794 13)" fill="#2e3e5a"/><path d="M117.706,1H0V-1H117.706Z" transform="translate(14.794 49.43)" fill="#2e3e5a"/><path d="M117.706,1H0V-1H117.706Z" transform="translate(14.794 62.43)" fill="#2e3e5a"/><path d="M202.706,1H0V-1H202.706Z" transform="translate(14.794 76.43)" fill="#2e3e5a"/><g transform="translate(24.225 19.723)" clip-path="url(#a)"><g transform="translate(0 -1.833)" clip-path="url(#b)"><path d="M15-45.394H32.306v14.349H15Z" transform="translate(-17.541 44.685)" fill="#fff"/></g></g></g></svg>