<svg xmlns="http://www.w3.org/2000/svg" xmlns:xlink="http://www.w3.org/1999/xlink" width="360" height="136" viewBox="0 0 360 136"><defs><clipPath id="b"><rect width="360" height="136"/></clipPath></defs><g id="a" clip-path="url(#b)"><rect width="132" height="132" rx="2" transform="translate(2 2)" fill="#fff"/><path d="M2,0A2,2,0,0,0,0,2V130a2,2,0,0,0,2,2H130a2,2,0,0,0,2-2V2a2,2,0,0,0-2-2H2M2-2H130a4,4,0,0,1,4,4V130a4,4,0,0,1-4,4H2a4,4,0,0,1-4-4V2A4,4,0,0,1,2-2Z" transform="translate(2 2)" fill="#2e3e5a"/><rect width="132" height="28" transform="translate(2 2)" fill="#e4e6ea"/><path d="M13.4,1H0V-1H13.4Z" transform="translate(18.447 48.906)" fill="#2e3e5a"/><path d="M10.965,1H0V-1H10.965Z" transform="translate(18.447 53.779)" fill="#2e3e5a"/><g transform="translate(11.747 70.836)"><rect width="31.275" height="23.148" transform="translate(0 0)" fill="#fff"/><path d="M2,2V21.148H29.275V2H2M0,0H31.275V23.148H0Z" transform="translate(0 0)" fill="#2e3e5a"/><path d="M13.4,1H0V-1H13.4Z" transform="translate(6.701 8.528)" fill="#2e3e5a"/><path d="M10.965,1H0V-1H10.965Z" transform="translate(6.701 13.402)" fill="#2e3e5a"/></g><path d="M13.4,1H0V-1H13.4Z" transform="translate(18.447 109.822)" fill="#2e3e5a"/><path d="M10.965,1H0V-1H10.965Z" transform="translate(18.447 114.696)" fill="#2e3e5a"/><path d="M13.4,1H0V-1H13.4Z" transform="translate(57.434 79.364)" fill="#2e3e5a"/><path d="M10.965,1H0V-1H10.965Z" transform="translate(57.434 84.237)" fill="#2e3e5a"/><g transform="translate(89.72 40.377)"><rect width="31.275" height="23.148" transform="translate(0 0)" fill="#fff"/><path d="M2,2V21.148H29.275V2H2M0,0H31.275V23.148H0Z" transform="translate(0 0)" fill="#2e3e5a"/><path d="M13.4,1H0V-1H13.4Z" transform="translate(6.701 8.528)" fill="#2e3e5a"/><path d="M10.965,1H0V-1H10.965Z" transform="translate(6.701 13.402)" fill="#2e3e5a"/></g><g transform="translate(89.72 101.294)"><rect width="31.275" height="23.148" transform="translate(0 0)" fill="#fff"/><path d="M2,2V21.148H29.275V2H2M0,0H31.275V23.148H0Z" transform="translate(0 0)" fill="#2e3e5a"/><path d="M13.4,1H0V-1H13.4Z" transform="translate(6.701 8.528)" fill="#2e3e5a"/><path d="M10.965,1H0V-1H10.965Z" transform="translate(6.701 13.402)" fill="#2e3e5a"/></g><rect width="33" height="20" transform="translate(47 42)" fill="#e4e6ea"/><rect width="33" height="19" transform="translate(86 73)" fill="#e4e6ea"/><rect width="33" height="20" transform="translate(47 103)" fill="#e4e6ea"/><path d="M2,2V21.148H68.261V2H2M0,0H70.261V23.148H0Z" transform="translate(11.747 40.377)" fill="#2e3e5a"/><path d="M2,2V21.148H68.261V2H2M0,0H70.261V23.148H0Z" transform="translate(11.747 101.294)" fill="#2e3e5a"/><path d="M2,2V21.148H68.261V2H2M0,0H70.261V23.148H0Z" transform="translate(50.733 70.836)" fill="#2e3e5a"/><path d="M73,1.5H0v-3H73Z" transform="translate(12.5 20.5)" fill="#2e3e5a"/></g></svg>