<svg xmlns="http://www.w3.org/2000/svg" xmlns:xlink="http://www.w3.org/1999/xlink" width="360" height="136" viewBox="0 0 360 136"><defs><clipPath id="b"><rect width="360" height="136"/></clipPath></defs><g id="a" clip-path="url(#b)"><rect width="132" height="132" rx="2" transform="translate(2 2)" fill="#fff"/><path d="M2,0A2,2,0,0,0,0,2V130a2,2,0,0,0,2,2H130a2,2,0,0,0,2-2V2a2,2,0,0,0-2-2H2M2-2H130a4,4,0,0,1,4,4V130a4,4,0,0,1-4,4H2a4,4,0,0,1-4-4V2A4,4,0,0,1,2-2Z" transform="translate(2 2)" fill="#2e3e5a"/><rect width="132" height="28" transform="translate(2 2)" fill="#e4e6ea"/><path d="M73,1H0V-1H73Z" transform="translate(12.5 37.5)" fill="#2e3e5a"/><path d="M37,1H0V-1H37Z" transform="translate(12.5 43.5)" fill="#2e3e5a"/><path d="M73,1.5H0v-3H73Z" transform="translate(12.5 20.5)" fill="#2e3e5a"/><rect width="73.753" height="35.148" transform="translate(11.747 51.836)" fill="#e4e6ea"/><path d="M2,2V33.148H71.753V2H2M0,0H73.753V35.148H0Z" transform="translate(11.747 51.836)" fill="#2e3e5a"/><path d="M49.552,1H0V-1H49.552Z" transform="translate(18.448 60.364)" fill="#2e3e5a"/><path d="M40.542,1H0V-1H40.542Z" transform="translate(18.448 67.237)" fill="#2e3e5a"/><path d="M42,1H0V-1H42Z" transform="translate(18.5 103.906)" fill="#2e3e5a"/><path d="M42,1H0V-1H42Z" transform="translate(18.5 118.106)" fill="#2e3e5a"/><path d="M2,2V14.131H71.753V2H2M0,0H73.753V16.131H0Z" transform="translate(11.747 95.377)" fill="#2e3e5a"/><path d="M2,2V14.131H71.753V2H2M0,0H73.753V16.131H0Z" transform="translate(11.747 109.578)" fill="#2e3e5a"/><path d="M3.343,4.437,0,7.775l1.1,1.1L5.546,4.437,1.1,0,0,1.1Z" transform="translate(79.273 101.133) rotate(90)" fill="#2e3e5a"/><path d="M3.343,4.437,0,7.775l1.1,1.1L5.546,4.437,1.1,0,0,1.1Z" transform="translate(79.273 115.333) rotate(90)" fill="#2e3e5a"/><g transform="translate(-908.552 -1801.091)"><rect width="17.696" height="7.487" rx="3.743" transform="translate(927 1874)" fill="#2e3e5a"/></g></g></svg>