<svg xmlns="http://www.w3.org/2000/svg" xmlns:xlink="http://www.w3.org/1999/xlink" width="360" height="35" viewBox="0 0 360 35"><defs><clipPath id="b"><rect width="360" height="35"/></clipPath></defs><g id="a" clip-path="url(#b)"><rect width="356" height="31.028" rx="2" transform="translate(2 2)" fill="#abb1bd"/><path d="M2,0A2,2,0,0,0,0,2V29.028a2,2,0,0,0,2,2H354a2,2,0,0,0,2-2V2a2,2,0,0,0-2-2H2M2-2H354a4,4,0,0,1,4,4V29.028a4,4,0,0,1-4,4H2a4,4,0,0,1-4-4V2A4,4,0,0,1,2-2Z" transform="translate(2 2)" fill="#2e3e5a"/><path d="M62.39,1.5H0v-3H62.39Z" transform="translate(11.11 17.5)" fill="#2e3e5a"/><path d="M53.829,1.5H0v-3H53.829Z" transform="translate(96.671 17.5)" fill="#2e3e5a"/><path d="M79.269,1.5H0v-3H79.269Z" transform="translate(176.231 17.5)" fill="#2e3e5a"/><path d="M5.288,7.018,0,12.3l1.742,1.739L8.773,7.018,1.742,0,0,1.739Z" transform="translate(80.699 10)" fill="#2e3e5a"/><path d="M5.288,7.018,0,12.3l1.742,1.739L8.773,7.018,1.742,0,0,1.739Z" transform="translate(160.26 10)" fill="#2e3e5a"/></g></svg>