<svg xmlns="http://www.w3.org/2000/svg" xmlns:xlink="http://www.w3.org/1999/xlink" width="360" height="64" viewBox="0 0 360 64"><defs><clipPath id="b"><rect width="360" height="64"/></clipPath></defs><g id="a" clip-path="url(#b)"><path d="M179.951,2H0V-2H179.951Z" transform="translate(53.5 13.805)" fill="#2e3e5a"/><path d="M179.951,2H0V-2H179.951Z" transform="translate(53.5 31.805)" fill="#2e3e5a"/><path d="M585.874-201.2q-5.874,0-5.874-5.848T588.317-218l3.894,1.422-4.092,5.234.132.323q3.5.711,3.5,4.717Q591.749-201.2,585.874-201.2Zm15.789,0q-5.874,0-5.874-5.848T604.106-218L608-216.578l-4.092,5.234.132.323q3.5.711,3.5,4.717Q607.538-201.2,601.664-201.2Z" transform="translate(-565 228)" fill="#2e3e5a" fill-rule="evenodd"/><rect width="4" height="64" fill="#2e3e5a"/><path d="M71.858,1H0V-1H71.858Z" transform="translate(53.5 55.43)" fill="#2e3e5a"/></g></svg>