<svg xmlns="http://www.w3.org/2000/svg" xmlns:xlink="http://www.w3.org/1999/xlink" width="360" height="136" viewBox="0 0 360 136"><defs><clipPath id="b"><rect width="360" height="136"/></clipPath></defs><g id="a" clip-path="url(#b)"><rect width="132" height="132" rx="2" transform="translate(2 2)" fill="#fff"/><path d="M2,0A2,2,0,0,0,0,2V130a2,2,0,0,0,2,2H130a2,2,0,0,0,2-2V2a2,2,0,0,0-2-2H2M2-2H130a4,4,0,0,1,4,4V130a4,4,0,0,1-4,4H2a4,4,0,0,1-4-4V2A4,4,0,0,1,2-2Z" transform="translate(2 2)" fill="#2e3e5a"/><rect width="132" height="28" transform="translate(2 2)" fill="#e4e6ea"/><path d="M73,1.5H0v-3H73Z" transform="translate(12.5 20.5)" fill="#2e3e5a"/><rect width="74" height="40" transform="translate(13 82.5)" fill="#e4e6ea"/><path d="M2,2V38H72V2H2M0,0H74V40H0Z" transform="translate(13 82.5)" fill="#2e3e5a"/><path d="M73,1H0V-1H73Z" transform="translate(13 42.5)" fill="#2e3e5a"/><path d="M73,1H0V-1H73Z" transform="translate(13 60.5)" fill="#2e3e5a"/><path d="M73,1H0V-1H73Z" transform="translate(13 66.5)" fill="#2e3e5a"/><path d="M73,1H0V-1H73Z" transform="translate(13 48.5)" fill="#2e3e5a"/><path d="M37,1H0V-1H37Z" transform="translate(13 72.5)" fill="#2e3e5a"/><g transform="translate(-866.552 -1767)"><rect width="17.696" height="7.912" rx="3.956" transform="translate(927 1874)" fill="#2e3e5a"/></g><path d="M45,1H0V-1H45Z" transform="translate(22 93.5)" fill="#2e3e5a"/><path d="M45,1H0V-1H45Z" transform="translate(22 99.5)" fill="#2e3e5a"/><rect width="34" height="6" transform="translate(22 108)" fill="#fff"/><path d="M0-1H34a1,1,0,0,1,1,1V6a1,1,0,0,1-1,1H0A1,1,0,0,1-1,6V0A1,1,0,0,1,0-1ZM33,1H1V5H33Z" transform="translate(22 108)" fill="#2e3e5a"/></g></svg>