<svg xmlns="http://www.w3.org/2000/svg" xmlns:xlink="http://www.w3.org/1999/xlink" width="360" height="136" viewBox="0 0 360 136"><defs><clipPath id="b"><rect width="360" height="136"/></clipPath></defs><g id="a" clip-path="url(#b)"><rect width="132" height="132" rx="2" transform="translate(2 2)" fill="#fff"/><path d="M2,0A2,2,0,0,0,0,2V130a2,2,0,0,0,2,2H130a2,2,0,0,0,2-2V2a2,2,0,0,0-2-2H2M2-2H130a4,4,0,0,1,4,4V130a4,4,0,0,1-4,4H2a4,4,0,0,1-4-4V2A4,4,0,0,1,2-2Z" transform="translate(2 2)" fill="#2e3e5a"/><rect width="132" height="28" transform="translate(2 2)" fill="#e4e6ea"/><path d="M73,1H0V-1H73Z" transform="translate(13 95.5)" fill="#2e3e5a"/><path d="M73,1H0V-1H73Z" transform="translate(13 113.5)" fill="#2e3e5a"/><path d="M73,1H0V-1H73Z" transform="translate(13 119.5)" fill="#2e3e5a"/><path d="M73,1H0V-1H73Z" transform="translate(13 101.5)" fill="#2e3e5a"/><path d="M73,1.5H0v-3H73Z" transform="translate(12.5 20.5)" fill="#2e3e5a"/><rect width="74" height="42" transform="translate(13 36.5)" fill="#e4e6ea"/><path d="M37,1H0V-1H37Z" transform="translate(13 83.5)" fill="#2e3e5a"/></g></svg>