<svg xmlns="http://www.w3.org/2000/svg" xmlns:xlink="http://www.w3.org/1999/xlink" width="360" height="79" viewBox="0 0 360 79"><defs><clipPath id="b"><rect width="360" height="79"/></clipPath></defs><g id="a" clip-path="url(#b)"><rect width="233.659" height="75.028" rx="2" transform="translate(2 1.896)" fill="#fff"/><path d="M2,0A2,2,0,0,0,0,2V73.028a2,2,0,0,0,2,2H231.659a2,2,0,0,0,2-2V2a2,2,0,0,0-2-2H2M2-2H231.659a4,4,0,0,1,4,4V73.028a4,4,0,0,1-4,4H2a4,4,0,0,1-4-4V2A4,4,0,0,1,2-2Z" transform="translate(2 1.896)" fill="#2e3e5a"/><rect width="92.178" height="75.028" transform="translate(143.481 1.896)" fill="#e4e6ea"/><path d="M121.117,1H0V-1H121.117Z" transform="translate(11.11 31.908)" fill="#2e3e5a"/><path d="M121.117,2H0V-2H121.117Z" transform="translate(11.11 15.621)" fill="#2e3e5a"/><path d="M79.316,1H0V-1H79.316Z" transform="translate(11.11 42.664)" fill="#2e3e5a"/><g transform="translate(11.646 57.521)"><path d="M36.179-41.983H30v-1.659h6.178l-2.3-2.295L34.938-47l3.911,4.187-3.911,4.188-1.056-1.056Z" transform="translate(-30 47)" fill="#2e3e5a" fill-rule="evenodd"/></g><rect width="110.399" height="75.028" rx="2" transform="translate(247.45 1.896)" fill="#fff"/><path d="M2,0A2,2,0,0,0,0,2V73.028a2,2,0,0,0,2,2H108.4a2,2,0,0,0,2-2V2a2,2,0,0,0-2-2H2M2-2H108.4a4,4,0,0,1,4,4V73.028a4,4,0,0,1-4,4H2a4,4,0,0,1-4-4V2A4,4,0,0,1,2-2Z" transform="translate(247.45 1.896)" fill="#2e3e5a"/><path d="M91.119,1H0V-1H91.119Z" transform="translate(256.561 31.908)" fill="#2e3e5a"/><path d="M91.119,2H0V-2H91.119Z" transform="translate(256.561 15.621)" fill="#2e3e5a"/><path d="M60.023,1H0V-1H60.023Z" transform="translate(256.561 42.664)" fill="#2e3e5a"/><g transform="translate(257.097 57.521)"><path d="M36.179-41.983H30v-1.659h6.178l-2.3-2.295L34.938-47l3.911,4.187-3.911,4.188-1.056-1.056Z" transform="translate(-30 47)" fill="#2e3e5a" fill-rule="evenodd"/></g></g></svg>