<svg xmlns="http://www.w3.org/2000/svg" xmlns:xlink="http://www.w3.org/1999/xlink" width="360" height="136" viewBox="0 0 360 136"><defs><clipPath id="b"><rect width="360" height="136"/></clipPath></defs><g id="a" clip-path="url(#b)"><rect width="132" height="132" rx="2" transform="translate(2 2)" fill="#fff"/><path d="M2,0A2,2,0,0,0,0,2V130a2,2,0,0,0,2,2H130a2,2,0,0,0,2-2V2a2,2,0,0,0-2-2H2M2-2H130a4,4,0,0,1,4,4V130a4,4,0,0,1-4,4H2a4,4,0,0,1-4-4V2A4,4,0,0,1,2-2Z" transform="translate(2 2)" fill="#2e3e5a"/><rect width="132" height="28" transform="translate(2 2)" fill="#e4e6ea"/><g transform="translate(0 7)"><path d="M61.053,1H0V-1H61.053Z" transform="translate(39.447 48.906)" fill="#2e3e5a"/><path d="M30.053,1H0V-1H30.053Z" transform="translate(39.447 53.779)" fill="#2e3e5a"/><rect width="22" height="19" transform="translate(13 42)" fill="#e4e6ea"/><path d="M2,2V20.131H109.261V2H2M0,0H111.261V22.131H0Z" transform="translate(11.747 40.377)" fill="#2e3e5a"/><path d="M3.343,4.437,0,7.775l1.1,1.1L5.546,4.437,1.1,0,0,1.1Z" transform="translate(115.273 48.727) rotate(90)" fill="#2e3e5a"/></g><g transform="translate(0 34)"><path d="M61.053,1H0V-1H61.053Z" transform="translate(39.447 48.906)" fill="#2e3e5a"/><path d="M30.053,1H0V-1H30.053Z" transform="translate(39.447 53.779)" fill="#2e3e5a"/><rect width="22" height="19" transform="translate(13 42)" fill="#e4e6ea"/><path d="M2,2V20.131H109.261V2H2M0,0H111.261V22.131H0Z" transform="translate(11.747 40.377)" fill="#2e3e5a"/><path d="M3.343,4.437,0,7.775l1.1,1.1L5.546,4.437,1.1,0,0,1.1Z" transform="translate(115.273 48.727) rotate(90)" fill="#2e3e5a"/></g><g transform="translate(0 61)"><path d="M61.053,1H0V-1H61.053Z" transform="translate(39.447 48.906)" fill="#2e3e5a"/><path d="M30.053,1H0V-1H30.053Z" transform="translate(39.447 53.779)" fill="#2e3e5a"/><rect width="22" height="19" transform="translate(13 42)" fill="#e4e6ea"/><path d="M2,2V20.131H109.261V2H2M0,0H111.261V22.131H0Z" transform="translate(11.747 40.377)" fill="#2e3e5a"/><path d="M3.343,4.437,0,7.775l1.1,1.1L5.546,4.437,1.1,0,0,1.1Z" transform="translate(115.273 48.727) rotate(90)" fill="#2e3e5a"/></g><path d="M37,1H0V-1H37Z" transform="translate(12.5 37.5)" fill="#2e3e5a"/><path d="M73,1.5H0v-3H73Z" transform="translate(12.5 20.5)" fill="#2e3e5a"/></g></svg>