<svg xmlns="http://www.w3.org/2000/svg" xmlns:xlink="http://www.w3.org/1999/xlink" width="360" height="136" viewBox="0 0 360 136"><defs><clipPath id="b"><rect width="360" height="136"/></clipPath></defs><g id="a" clip-path="url(#b)"><rect width="132" height="132" rx="2" transform="translate(2 2)" fill="#fff"/><path d="M2,0A2,2,0,0,0,0,2V130a2,2,0,0,0,2,2H130a2,2,0,0,0,2-2V2a2,2,0,0,0-2-2H2M2-2H130a4,4,0,0,1,4,4V130a4,4,0,0,1-4,4H2a4,4,0,0,1-4-4V2A4,4,0,0,1,2-2Z" transform="translate(2 2)" fill="#2e3e5a"/><rect width="132" height="28" transform="translate(2 2)" fill="#e4e6ea"/><g transform="translate(11.785 40.53)"><rect width="31.399" height="23.241" transform="translate(0 0)" fill="#fff"/><path d="M2,2V21.241H29.4V2H2M0,0H31.4V23.241H0Z" transform="translate(0 0)" fill="#2e3e5a"/><path d="M13.455,1H0V-1H13.455Z" transform="translate(6.728 8.562)" fill="#2e3e5a"/><path d="M11.009,1H0V-1H11.009Z" transform="translate(6.728 13.455)" fill="#2e3e5a"/></g><g transform="translate(11.785 71.11)"><rect width="31.399" height="23.241" transform="translate(0 0)" fill="#fff"/><path d="M2,2V21.241H29.4V2H2M0,0H31.4V23.241H0Z" transform="translate(0 0)" fill="#2e3e5a"/><path d="M13.455,1H0V-1H13.455Z" transform="translate(6.728 8.562)" fill="#2e3e5a"/><path d="M11.009,1H0V-1H11.009Z" transform="translate(6.728 13.455)" fill="#2e3e5a"/></g><g transform="translate(11.785 101.69)"><rect width="31.399" height="23.241" transform="translate(0 0)" fill="#fff"/><path d="M2,2V21.241H29.4V2H2M0,0H31.4V23.241H0Z" transform="translate(0 0)" fill="#2e3e5a"/><path d="M13.455,1H0V-1H13.455Z" transform="translate(6.728 8.562)" fill="#2e3e5a"/><path d="M11.009,1H0V-1H11.009Z" transform="translate(6.728 13.455)" fill="#2e3e5a"/></g><g transform="translate(50.928 40.53)"><rect width="31.399" height="23.241" transform="translate(0 0)" fill="#fff"/><path d="M2,2V21.241H29.4V2H2M0,0H31.4V23.241H0Z" transform="translate(0 0)" fill="#2e3e5a"/><path d="M13.455,1H0V-1H13.455Z" transform="translate(6.728 8.562)" fill="#2e3e5a"/><path d="M11.009,1H0V-1H11.009Z" transform="translate(6.728 13.455)" fill="#2e3e5a"/></g><g transform="translate(50.928 71.11)"><rect width="31.399" height="23.241" transform="translate(0 0)" fill="#fff"/><path d="M2,2V21.241H29.4V2H2M0,0H31.4V23.241H0Z" transform="translate(0 0)" fill="#2e3e5a"/><path d="M13.455,1H0V-1H13.455Z" transform="translate(6.728 8.562)" fill="#2e3e5a"/><path d="M11.009,1H0V-1H11.009Z" transform="translate(6.728 13.455)" fill="#2e3e5a"/></g><g transform="translate(50.928 101.69)"><rect width="31.399" height="23.241" transform="translate(0 0)" fill="#fff"/><path d="M2,2V21.241H29.4V2H2M0,0H31.4V23.241H0Z" transform="translate(0 0)" fill="#2e3e5a"/><path d="M13.455,1H0V-1H13.455Z" transform="translate(6.728 8.562)" fill="#2e3e5a"/><path d="M11.009,1H0V-1H11.009Z" transform="translate(6.728 13.455)" fill="#2e3e5a"/></g><g transform="translate(90.07 40.53)"><rect width="31.399" height="23.241" transform="translate(0 0)" fill="#fff"/><path d="M2,2V21.241H29.4V2H2M0,0H31.4V23.241H0Z" transform="translate(0 0)" fill="#2e3e5a"/><path d="M13.455,1H0V-1H13.455Z" transform="translate(6.727 8.562)" fill="#2e3e5a"/><path d="M11.009,1H0V-1H11.009Z" transform="translate(6.727 13.455)" fill="#2e3e5a"/></g><g transform="translate(90.07 71.11)"><rect width="31.399" height="23.241" transform="translate(0 0)" fill="#fff"/><path d="M2,2V21.241H29.4V2H2M0,0H31.4V23.241H0Z" transform="translate(0 0)" fill="#2e3e5a"/><path d="M13.455,1H0V-1H13.455Z" transform="translate(6.727 8.562)" fill="#2e3e5a"/><path d="M11.009,1H0V-1H11.009Z" transform="translate(6.727 13.455)" fill="#2e3e5a"/></g><g transform="translate(90.07 101.69)"><rect width="31.399" height="23.241" transform="translate(0 0)" fill="#fff"/><path d="M2,2V21.241H29.4V2H2M0,0H31.4V23.241H0Z" transform="translate(0 0)" fill="#2e3e5a"/><path d="M13.455,1H0V-1H13.455Z" transform="translate(6.727 8.562)" fill="#2e3e5a"/><path d="M11.009,1H0V-1H11.009Z" transform="translate(6.727 13.455)" fill="#2e3e5a"/></g><path d="M73,1.5H0v-3H73Z" transform="translate(12.5 20.5)" fill="#2e3e5a"/></g></svg>