<svg xmlns="http://www.w3.org/2000/svg" xmlns:xlink="http://www.w3.org/1999/xlink" width="360" height="136" viewBox="0 0 360 136"><defs><clipPath id="b"><rect width="360" height="136"/></clipPath></defs><g id="a" clip-path="url(#b)"><rect width="132" height="132" rx="2" transform="translate(2 2)" fill="#fff"/><path d="M2,0A2,2,0,0,0,0,2V130a2,2,0,0,0,2,2H130a2,2,0,0,0,2-2V2a2,2,0,0,0-2-2H2M2-2H130a4,4,0,0,1,4,4V130a4,4,0,0,1-4,4H2a4,4,0,0,1-4-4V2A4,4,0,0,1,2-2Z" transform="translate(2 2)" fill="#2e3e5a"/><rect width="132" height="28" transform="translate(2 2)" fill="#e4e6ea"/><path d="M73,1H0V-1H73Z" transform="translate(51.5 37.5)" fill="#2e3e5a"/><path d="M73,1H0V-1H73Z" transform="translate(51.5 94.5)" fill="#2e3e5a"/><path d="M73,1H0V-1H73Z" transform="translate(51.5 112.5)" fill="#2e3e5a"/><path d="M73,1H0V-1H73Z" transform="translate(51.5 43.5)" fill="#2e3e5a"/><path d="M73,1H0V-1H73Z" transform="translate(51.5 118.5)" fill="#2e3e5a"/><path d="M73,1H0V-1H73Z" transform="translate(51.5 100.5)" fill="#2e3e5a"/><path d="M18.689,1H0V-1H18.689Z" transform="translate(21.906 38.5)" fill="#2e3e5a"/><path d="M37,1H0V-1H37Z" transform="translate(51.5 49.5)" fill="#2e3e5a"/><path d="M37,1H0V-1H37Z" transform="translate(51.5 124.5)" fill="#2e3e5a"/><path d="M18.623,1H0V-1H18.623Z" transform="translate(21.906 53.5)" fill="#2e3e5a"/><path d="M18.623,1H0V-1H18.623Z" transform="translate(21.906 66.5)" fill="#2e3e5a"/><path d="M73,1.5H0v-3H73Z" transform="translate(12.5 20.5)" fill="#2e3e5a"/><rect width="74" height="26" transform="translate(51 58)" fill="#e4e6ea"/><path d="M4.49,1.558H2.8V-3.062l.016-.759.027-.83q-.42.42-.584.551l-.917.737L.532-4.377,3.1-6.425H4.49Z" transform="translate(13.046 42)" fill="#2e3e5a"/><path d="M5.945,1.58H.365V.406l2-2.026q.89-.912,1.163-1.264a2.78,2.78,0,0,0,.393-.652,1.661,1.661,0,0,0,.12-.622.907.907,0,0,0-.265-.715,1.027,1.027,0,0,0-.707-.235,2.033,2.033,0,0,0-.9.213,4.649,4.649,0,0,0-.912.606L.343-5.376a5.984,5.984,0,0,1,.977-.71,3.587,3.587,0,0,1,.846-.319,4.336,4.336,0,0,1,1.026-.112,3.039,3.039,0,0,1,1.321.273,2.108,2.108,0,0,1,.89.764,2.031,2.031,0,0,1,.317,1.125A2.753,2.753,0,0,1,5.527-3.32a3.972,3.972,0,0,1-.6.991A14.683,14.683,0,0,1,3.493-.883L2.467.084V.16H5.945Z" transform="translate(13 55.644)" fill="#2e3e5a"/><path d="M5.633-4.617A1.878,1.878,0,0,1,5.18-3.345a2.349,2.349,0,0,1-1.272.721v.033A2.542,2.542,0,0,1,5.371-2a1.644,1.644,0,0,1,.5,1.258,2.132,2.132,0,0,1-.835,1.794,3.851,3.851,0,0,1-2.386.642,5.793,5.793,0,0,1-2.3-.431V-.178A5.207,5.207,0,0,0,1.364.2a4.3,4.3,0,0,0,1.1.147A2.145,2.145,0,0,0,3.7.068a1.042,1.042,0,0,0,.4-.912.823.823,0,0,0-.459-.8,3.393,3.393,0,0,0-1.463-.235H1.571V-3.17h.617a2.869,2.869,0,0,0,1.357-.243.877.877,0,0,0,.429-.833q0-.906-1.136-.906a2.6,2.6,0,0,0-.8.131,3.907,3.907,0,0,0-.9.453L.354-5.731a4.338,4.338,0,0,1,2.6-.786,3.363,3.363,0,0,1,1.957.5A1.611,1.611,0,0,1,5.633-4.617Z" transform="translate(13 69.311)" fill="#2e3e5a"/></g></svg>