<svg xmlns="http://www.w3.org/2000/svg" xmlns:xlink="http://www.w3.org/1999/xlink" width="360" height="53" viewBox="0 0 360 53"><defs><clipPath id="b"><rect width="360" height="53"/></clipPath></defs><g id="a" clip-path="url(#b)"><rect width="356" height="33.188" rx="2" transform="translate(2 2)" fill="#e4e6ea"/><path d="M2,0A2,2,0,0,0,0,2V31.188a2,2,0,0,0,2,2H354a2,2,0,0,0,2-2V2a2,2,0,0,0-2-2H2M2-2H354a4,4,0,0,1,4,4V31.188a4,4,0,0,1-4,4H2a4,4,0,0,1-4-4V2A4,4,0,0,1,2-2Z" transform="translate(2 2)" fill="#2e3e5a"/><path d="M300.024,1H0V-1H300.024Z" transform="translate(14.476 18.594)" fill="#2e3e5a"/><path d="M607.75,51.4l-5.4-5.4L601,47.35l5.4,5.4-5.4,5.4,1.35,1.35,5.4-5.4,5.4,5.4,1.35-1.35-5.4-5.4,5.4-5.4L613.15,46Z" transform="translate(-268.5 -35)" fill="#2e3e5a" fill-rule="evenodd"/></g></svg>