<svg xmlns="http://www.w3.org/2000/svg" xmlns:xlink="http://www.w3.org/1999/xlink" width="360" height="130" viewBox="0 0 360 130"><defs><clipPath id="a"><path d="M35.89,25.491V64.662a1.521,1.521,0,1,0,3.042,0V25.491a1.521,1.521,0,1,0-3.042,0" transform="translate(-35.89 -23.97)" fill="none" stroke="#2e3e5a" stroke-linecap="round" stroke-width="3"/></clipPath><clipPath id="c"><rect width="360" height="130"/></clipPath></defs><g id="b" clip-path="url(#c)"><path d="M0,0V7.7H40.09V0H0M0-3H40.09a3,3,0,0,1,3,3V7.7a3,3,0,0,1-3,3H0a3,3,0,0,1-3-3V0A3,3,0,0,1,0-3Z" transform="translate(115.472 80.723)" fill="#2e3e5a"/><path d="M10.069,93.165l5.611,34.077H40.655l6.857-34.077H10.069m0-3H47.512a3,3,0,0,1,2.941,3.592L43.6,127.834a3,3,0,0,1-2.941,2.408H15.68a3,3,0,0,1-2.96-2.513L7.109,93.652a3,3,0,0,1,2.96-3.487Z" transform="translate(106.694 -1.535)" fill="#2e3e5a"/><g transform="translate(110.286 29.7)"><path d="M37.411,56.5a1.381,1.381,0,0,0,1.521-1.172V25.142a1.573,1.573,0,0,0-3.042,0V55.331A1.382,1.382,0,0,0,37.411,56.5m0,3a4.777,4.777,0,0,1-2.907-.967,4.039,4.039,0,0,1-1.614-3.205V25.142A4.038,4.038,0,0,1,34.5,21.936a4.852,4.852,0,0,1,5.812,0,4.038,4.038,0,0,1,1.615,3.205V55.331a4.039,4.039,0,0,1-1.614,3.2A4.776,4.776,0,0,1,37.411,59.5Z" transform="translate(-12.803 -8.551)" fill="#2e3e5a"/></g><g transform="translate(133.373 45.119)" clip-path="url(#a)"><path d="M0,0V54.479H15.307V0H0M-3-3H18.307V57.479H-3Z" transform="translate(-6.132 -6.132)" fill="#2e3e5a"/></g><path d="M15.917,49.676l-.316,0a17.427,17.427,0,0,1-17.1-17.894A3.029,3.029,0,0,1,.067,29.212a17.431,17.431,0,0,1,23.752,6.95,17.5,17.5,0,0,1,2.1,8.772v.01a1.612,1.612,0,0,1-.026.243,1.492,1.492,0,0,1-.113.381l.922.488L24.53,47.39a1.6,1.6,0,0,1-.169.108l0,0A17.506,17.506,0,0,1,15.917,49.676ZM8.506,30.037a14.5,14.5,0,0,0-6.991,1.8.02.02,0,0,0-.011.016A14.42,14.42,0,0,0,20.224,46.018L10.679,40.96l-.038-.023a3.021,3.021,0,1,1,3.14-5.162,1.5,1.5,0,1,1-1.56,2.562.015.015,0,0,0-.014,0,.017.017,0,0,0-.013.009.018.018,0,0,0,0,.017l0,.006L22.917,44.05A14.43,14.43,0,0,0,8.767,30.039Z" transform="translate(105.286 16.824)" fill="#2e3e5a"/><path d="M49.558,60.576a17.325,17.325,0,0,1-2.126-.131,17.5,17.5,0,0,1-8.361-3.382l-.006,0a1.6,1.6,0,0,1-.188-.168,1.491,1.491,0,0,1-.241-.31l-1.013.507.252-2.614a1.587,1.587,0,0,1,.011-.179A17.427,17.427,0,0,1,65.692,42.375a3.032,3.032,0,0,1,1.184,2.763A17.433,17.433,0,0,1,49.558,60.576ZM41.53,55.132A14.426,14.426,0,0,0,63.9,44.791a.021.021,0,0,0-.008-.02,14.42,14.42,0,0,0-22.4,7.024L51.15,46.96l.041-.017A3.021,3.021,0,1,1,53.572,52.5a1.5,1.5,0,0,1-1.182-2.757.021.021,0,0,0,.011-.028.017.017,0,0,0-.011-.011l-.007,0Z" transform="translate(99.239 14.611)" fill="#2e3e5a"/><path d="M44.635,21.3a17.508,17.508,0,0,1-8.111-2,1.594,1.594,0,0,1-.217-.137,1.491,1.491,0,0,1-.29-.268l-.842.61-.245-2.533a1.606,1.606,0,0,1-.022-.184v-.023A17.427,17.427,0,0,1,60.415.5,3.035,3.035,0,0,1,62.031,3.03,17.432,17.432,0,0,1,45.323,21.287Q44.979,21.3,44.635,21.3Zm-6-4.3A14.493,14.493,0,0,0,45.2,18.29,14.427,14.427,0,0,0,59.035,3.172a.023.023,0,0,0-.013-.018A14.42,14.42,0,0,0,38.06,13.715l8.747-6.338.038-.024a3.021,3.021,0,0,1,3.25,5.094,1.5,1.5,0,0,1-1.614-2.529.018.018,0,0,0,.01-.014.015.015,0,0,0,0-.015.022.022,0,0,0-.021-.011Z" transform="translate(99.574 25.318)" fill="#2e3e5a"/><g transform="translate(37.88 12.307)"><path d="M0,86.3,9.549,40.772c-5.325-6.394-8.93-14.23-8.328-23.01C2.957-7.536,37.388-1.971,44.084,10.8s5.9,45.157-2.753,47.439c-3.452.91-10.806-1.319-18.29-5.933l4.7,33.994Z" transform="translate(0 0)" fill="#fff"/><path d="M29.46,87.8H-1.847l9.781-46.63A39.377,39.377,0,0,1,1.763,30.7,30.2,30.2,0,0,1-.275,17.66,22.674,22.674,0,0,1,2.013,8.871,17.576,17.576,0,0,1,7,2.861C10.708.008,15.665-1.5,21.329-1.5A34.518,34.518,0,0,1,35.674,1.691a26.028,26.028,0,0,1,5.773,3.631,16.2,16.2,0,0,1,3.966,4.78C48.033,15.1,49.7,23.158,50,32.221a76.506,76.506,0,0,1-.527,12.087A36.543,36.543,0,0,1,47,54.154c-1.369,3.107-3.148,4.968-5.289,5.533a8.509,8.509,0,0,1-2.153.25c-3.707,0-9.126-1.8-14.612-4.792Zm-27.613-3h24.17l-4.9-35.441,2.709,1.67c5.824,3.591,12,5.911,15.732,5.91a5.548,5.548,0,0,0,1.389-.151c1.2-.315,2.34-1.644,3.308-3.841,1.99-4.517,3.015-12.228,2.742-20.626a73.17,73.17,0,0,0-1.277-11.65,35.1,35.1,0,0,0-2.966-9.174c-1.423-2.713-4.39-5.23-8.354-7.087A31.455,31.455,0,0,0,21.329,1.5c-5,0-9.322,1.293-12.506,3.74C5.153,8.059,3.1,12.307,2.718,17.865A27.224,27.224,0,0,0,4.561,29.621,36.775,36.775,0,0,0,10.7,39.812l.464.558Z" transform="translate(0 0)" fill="#2e3e5a"/></g><path d="M11.686,44.946h0A6.874,6.874,0,0,1,7.729,42.5a24.731,24.731,0,0,1-3.78-5.662A36.491,36.491,0,0,1,0,21.29,19.792,19.792,0,0,1,6.58,6.363C11.214,2.2,17.829,0,25.709,0A39.223,39.223,0,0,1,35.3,1.067a20.5,20.5,0,0,1,6.457,2.765c3.053,2.067,4.825,4.907,4.988,8-5.754,1.6-15.719,2.378-30.466,2.378-1.1,0-2.256,0-3.423-.013v1.183L26.879,16.56l2.337,7.1c-.178-.013-.362-.021-.549-.021a7.059,7.059,0,0,0-4.506,1.658,15.459,15.459,0,0,0-3.442,4.12,5.573,5.573,0,0,0-3.189-1.025A5.713,5.713,0,0,0,13.4,30.219,6,6,0,0,0,11.686,34.3c0,2.973,1.355,5.487,3.537,6.561-1.3,2.571-2.39,3.83-3.537,4.084Z" transform="translate(36.082 10.509)" fill="#2e3e5a"/><path d="M0,2.087,7.937,0c16.62,43.761,84.517,68.642,89.988,85.065,2.007,6.023-2.149,9.52.3,11.194l-9.8,8.584c-1.955-1.914-5.409,2.2-13.544.246S4.648,55.219,0,2.087Z" transform="translate(65.316 72.688) rotate(22)" fill="#abb1bd"/><path d="M6.42,131.371c10.5,19.365,71.2-1.872,77.536-21.627,7.96-24.8-29.379-40.238-25.612-105.511L34.354,0C15.237,27.463-12.727,96.067,6.42,131.371Z" transform="translate(14.877 68.898) rotate(8)" fill="#abb1bd"/><rect width="32.74" height="19.644" rx="4" transform="matrix(0.978, 0.208, -0.208, 0.978, 41.64, 67.936)" fill="#abb1bd"/><path d="M50,0S29.946,7.906,13.211,44.293C2.646,67.262-7.891,123.55,8.623,136.306h20.1C21.467,74.217,56,5.334,56,5.334Z" transform="translate(-7.031 70.21)" fill="#abb1bd"/></g></svg>