<svg xmlns="http://www.w3.org/2000/svg" xmlns:xlink="http://www.w3.org/1999/xlink" width="360" height="35" viewBox="0 0 360 35"><defs><clipPath id="b"><rect width="360" height="35"/></clipPath></defs><g id="a" clip-path="url(#b)"><path d="M17.654,14.539a3.1,3.1,0,0,0-2.139.854L8.092,11.7a4.115,4.115,0,0,0,0-2.632l7.423-3.692a3.113,3.113,0,1,0-.976-2.261,3.08,3.08,0,0,0,.031.412l-7.62,3.79a4.154,4.154,0,1,0,0,6.133l7.62,3.79a3.114,3.114,0,1,0,3.085-2.7" transform="translate(1 7)" fill="#2e3e5a"/><path d="M0,16.277v-15L2.28,3.165l8.482,7.068a.879.879,0,0,0,1.279,0l10.44-8.693.3-.246c0,.112.018.19.018.267V16.212a.888.888,0,0,1-.987.98H.97A.868.868,0,0,1,0,16.277ZM1.209,0H21.592L11.4,8.494Z" transform="translate(106.128 8.193)" fill="#2e3e5a"/><path d="M18.363,20.205H2.7V15.564H0V5.46H2.7V9.01H18.6V5.46h2.5l-.057,10.1H18.383l-.019,4.64h0ZM4.851,18.294H16.17V15.837H4.851Zm0-11.468V0H16.44V6.826Z" transform="translate(208.194 6.999)" fill="#2e3e5a"/><path d="M42.738,1.5H0v-3H42.738Z" transform="translate(30.41 17.136)" fill="#2e3e5a"/><path d="M42.738,1.5H0v-3H42.738Z" transform="translate(135.533 17.136)" fill="#2e3e5a"/><path d="M42.738,1.5H0v-3H42.738Z" transform="translate(237.604 17.136)" fill="#2e3e5a"/></g></svg>