<svg xmlns="http://www.w3.org/2000/svg" xmlns:xlink="http://www.w3.org/1999/xlink" width="360" height="88" viewBox="0 0 360 88"><defs><clipPath id="b"><rect width="360" height="88"/></clipPath></defs><g id="a" clip-path="url(#b)"><path d="M0,83.8Z" transform="translate(2 2)" fill="#e4e6ea"/><rect width="356" height="83.8" rx="2" transform="translate(2 2)" fill="#e4e6ea"/><path d="M2,0A2,2,0,0,0,0,2V81.8a2,2,0,0,0,2,2H354a2,2,0,0,0,2-2V2a2,2,0,0,0-2-2H2M2-2H354a4,4,0,0,1,4,4V81.8a4,4,0,0,1-4,4H2a4,4,0,0,1-4-4V2A4,4,0,0,1,2-2Z" transform="translate(2 2)" fill="#2e3e5a"/><rect width="285" height="71" transform="translate(38 15)" fill="#fff"/><path d="M199.254,1H0V-1H199.254Z" transform="translate(53.5 51.5)" fill="#2e3e5a"/><path d="M199.254,2H0V-2H199.254Z" transform="translate(53.5 33.305)" fill="#2e3e5a"/><path d="M118,1H0V-1H118Z" transform="translate(53.5 66.695)" fill="#2e3e5a"/></g></svg>