<svg xmlns="http://www.w3.org/2000/svg" xmlns:xlink="http://www.w3.org/1999/xlink" width="360" height="126" viewBox="0 0 360 126"><defs><clipPath id="b"><rect width="360" height="126"/></clipPath></defs><g id="a" clip-path="url(#b)"><rect width="157" height="122" rx="2" transform="translate(2 2)" fill="#fff"/><path d="M2,0A2,2,0,0,0,0,2V120a2,2,0,0,0,2,2H155a2,2,0,0,0,2-2V2a2,2,0,0,0-2-2H2M2-2H155a4,4,0,0,1,4,4V120a4,4,0,0,1-4,4H2a4,4,0,0,1-4-4V2A4,4,0,0,1,2-2Z" transform="translate(2 2)" fill="#2e3e5a"/><path d="M2,2V24H75.21V2H2M0,0H77.21V26H0Z" transform="translate(69.387 12.5)" fill="#2e3e5a"/><path d="M2,2V24H75.21V2H2M0,0H77.21V26H0Z" transform="translate(69.387 47.326)" fill="#2e3e5a"/><path d="M2,2V24H75.21V2H2M0,0H77.21V26H0Z" transform="translate(69.387 82.152)" fill="#2e3e5a"/><path d="M58.951,1H0V-1H58.951Z" transform="translate(78.777 22.5)" fill="#2e3e5a"/><path d="M58.951,1H0V-1H58.951Z" transform="translate(78.777 57.326)" fill="#2e3e5a"/><path d="M58.951,1H0V-1H58.951Z" transform="translate(78.777 92.152)" fill="#2e3e5a"/><path d="M46.952,1H0V-1H46.952Z" transform="translate(78.777 28.5)" fill="#2e3e5a"/><path d="M46.952,1H0V-1H46.952Z" transform="translate(78.777 63.326)" fill="#2e3e5a"/><path d="M46.952,1H0V-1H46.952Z" transform="translate(78.777 98.152)" fill="#2e3e5a"/><rect width="14.01" height="14.01" transform="translate(12.909 13.901)" fill="#e4e6ea"/><path d="M0-1H14.01a1,1,0,0,1,1,1V14.01a1,1,0,0,1-1,1H0a1,1,0,0,1-1-1V0A1,1,0,0,1,0-1ZM13.01,1H1V13.01H13.01Z" transform="translate(12.909 13.901)" fill="#abb1bd"/><rect width="14.01" height="14.01" transform="translate(12.909 35.316)" fill="#e4e6ea"/><path d="M0-1H14.01a1,1,0,0,1,1,1V14.01a1,1,0,0,1-1,1H0a1,1,0,0,1-1-1V0A1,1,0,0,1,0-1ZM13.01,1H1V13.01H13.01Z" transform="translate(12.909 35.316)" fill="#abb1bd"/><rect width="14.01" height="14.01" transform="translate(12.909 56.732)" fill="#e4e6ea"/><path d="M0-1H14.01a1,1,0,0,1,1,1V14.01a1,1,0,0,1-1,1H0a1,1,0,0,1-1-1V0A1,1,0,0,1,0-1ZM13.01,1H1V13.01H13.01Z" transform="translate(12.909 56.732)" fill="#abb1bd"/><path d="M23.116,1H0V-1H23.116Z" transform="translate(33.121 20.906)" fill="#2e3e5a"/><path d="M23.116,1H0V-1H23.116Z" transform="translate(33.121 42.321)" fill="#2e3e5a"/><path d="M23.116,1H0V-1H23.116Z" transform="translate(33.121 62.336)" fill="#2e3e5a"/><path d="M0,7.122,1.823,5.267,5.039,8.49,13.534,0l1.839,1.827L5.038,12.161Z" transform="translate(15.749 34.587)" fill="#2e3e5a"/><path d="M0,7.122,1.823,5.267,5.039,8.49,13.534,0l1.839,1.827L5.038,12.161Z" transform="translate(15.749 12.5)" fill="#2e3e5a"/></g></svg>