<svg xmlns="http://www.w3.org/2000/svg" xmlns:xlink="http://www.w3.org/1999/xlink" width="360" height="70" viewBox="0 0 360 70"><defs><clipPath id="b"><rect width="360" height="70"/></clipPath></defs><g id="a" clip-path="url(#b)"><rect width="230.5" height="31.9" rx="2" transform="translate(2 2.009)" fill="#e4e6ea"/><path d="M2,0A2,2,0,0,0,0,2V29.9a2,2,0,0,0,2,2H228.5a2,2,0,0,0,2-2V2a2,2,0,0,0-2-2H2M2-2H228.5a4,4,0,0,1,4,4V29.9a4,4,0,0,1-4,4H2a4,4,0,0,1-4-4V2A4,4,0,0,1,2-2Z" transform="translate(2 2.009)" fill="#2e3e5a"/><path d="M177,1H0V-1H177Z" transform="translate(13.5 17.959)" fill="#2e3e5a"/><path d="M5.181,6.876,0,12.048l1.707,1.7L8.6,6.876,1.707,0,0,1.7Z" transform="translate(219.676 13.702) rotate(90)" fill="#2e3e5a"/><rect width="230.5" height="31.9" rx="2" transform="translate(2 36.009)" fill="#e4e6ea"/><path d="M2,0A2,2,0,0,0,0,2V29.9a2,2,0,0,0,2,2H228.5a2,2,0,0,0,2-2V2a2,2,0,0,0-2-2H2M2-2H228.5a4,4,0,0,1,4,4V29.9a4,4,0,0,1-4,4H2a4,4,0,0,1-4-4V2A4,4,0,0,1,2-2Z" transform="translate(2 36.009)" fill="#2e3e5a"/><path d="M177,1H0V-1H177Z" transform="translate(13.5 51.959)" fill="#2e3e5a"/><path d="M5.181,6.876,0,12.048l1.707,1.7L8.6,6.876,1.707,0,0,1.7Z" transform="translate(219.676 47.662) rotate(90)" fill="#2e3e5a"/></g></svg>