<svg xmlns="http://www.w3.org/2000/svg" xmlns:xlink="http://www.w3.org/1999/xlink" width="360" height="109" viewBox="0 0 360 109"><defs><clipPath id="b"><rect width="360" height="109"/></clipPath></defs><g id="a" clip-path="url(#b)"><rect width="230.5" height="105.512" rx="2" transform="translate(1.839 2)" fill="#fff"/><path d="M2,0A2,2,0,0,0,0,2V103.512a2,2,0,0,0,2,2H228.5a2,2,0,0,0,2-2V2a2,2,0,0,0-2-2H2M2-2H228.5a4,4,0,0,1,4,4V103.512a4,4,0,0,1-4,4H2a4,4,0,0,1-4-4V2A4,4,0,0,1,2-2Z" transform="translate(1.839 2)" fill="#2e3e5a"/><path d="M166.279,1H0V-1H166.279Z" transform="translate(48.92 44)" fill="#2e3e5a"/><path d="M166.7,2H0V-2H166.7Z" transform="translate(48.5 25.805)" fill="#2e3e5a"/><path d="M166.279,1H0V-1H166.279Z" transform="translate(48.92 59.195)" fill="#2e3e5a"/><path d="M65.161,1H0V-1H65.161Z" transform="translate(48.92 74.391)" fill="#2e3e5a"/><circle cx="13" cy="13" r="13" transform="translate(13 15.909)" fill="#788295"/></g></svg>