<svg xmlns="http://www.w3.org/2000/svg" xmlns:xlink="http://www.w3.org/1999/xlink" width="360" height="155" viewBox="0 0 360 155"><defs><clipPath id="b"><rect width="360" height="155"/></clipPath></defs><g id="a" clip-path="url(#b)"><rect width="157" height="151" rx="2" transform="translate(2 2)" fill="#fff"/><path d="M2,0A2,2,0,0,0,0,2V149a2,2,0,0,0,2,2H155a2,2,0,0,0,2-2V2a2,2,0,0,0-2-2H2M2-2H155a4,4,0,0,1,4,4V149a4,4,0,0,1-4,4H2a4,4,0,0,1-4-4V2A4,4,0,0,1,2-2Z" transform="translate(2 2)" fill="#2e3e5a"/><path d="M52.425,1H0V-1H52.425Z" transform="translate(42.777 19.663)" fill="#2e3e5a"/><path d="M52.425,1H0V-1H52.425Z" transform="translate(42.777 55.246)" fill="#2e3e5a"/><path d="M52.425,1H0V-1H52.425Z" transform="translate(42.777 90.83)" fill="#2e3e5a"/><path d="M52.425,1H0V-1H52.425Z" transform="translate(42.777 126.413)" fill="#2e3e5a"/><path d="M41.754,1H0V-1H41.754Z" transform="translate(42.777 27.495)" fill="#2e3e5a"/><path d="M41.754,1H0V-1H41.754Z" transform="translate(42.777 63.079)" fill="#2e3e5a"/><path d="M41.754,1H0V-1H41.754Z" transform="translate(42.777 98.663)" fill="#2e3e5a"/><path d="M41.754,1H0V-1H41.754Z" transform="translate(42.777 134.246)" fill="#2e3e5a"/><path d="M1.25,120h-2.5V0h2.5Z" transform="translate(22 19)" fill="#abb1bd"/><g transform="translate(-3)"><circle cx="11.663" cy="11.663" r="11.663" transform="translate(14 11)" fill="#2e3e5a"/><path d="M11.663,2.5a9.163,9.163,0,1,0,9.163,9.163A9.173,9.173,0,0,0,11.663,2.5m0-2.5A11.663,11.663,0,1,1,0,11.663,11.663,11.663,0,0,1,11.663,0Z" transform="translate(14 11)" fill="#2e3e5a"/><path d="M0,6.788,1.737,5.02,4.8,8.092,12.9,0,14.65,1.741,4.8,11.59Z" transform="translate(18 17)" fill="#fff"/></g><g transform="translate(-3 36.5)"><circle cx="11.663" cy="11.663" r="11.663" transform="translate(14 11)" fill="#2e3e5a"/><path d="M11.663,2.5a9.163,9.163,0,1,0,9.163,9.163A9.173,9.173,0,0,0,11.663,2.5m0-2.5A11.663,11.663,0,1,1,0,11.663,11.663,11.663,0,0,1,11.663,0Z" transform="translate(14 11)" fill="#2e3e5a"/><path d="M0,6.788,1.737,5.02,4.8,8.092,12.9,0,14.65,1.741,4.8,11.59Z" transform="translate(18 17)" fill="#fff"/></g><g transform="translate(-4)"><circle cx="11.663" cy="11.663" r="11.663" transform="translate(15 84)" fill="#fff"/><path d="M11.663,2.5a9.163,9.163,0,1,0,9.163,9.163A9.173,9.173,0,0,0,11.663,2.5m0-2.5A11.663,11.663,0,1,1,0,11.663,11.663,11.663,0,0,1,11.663,0Z" transform="translate(15 84)" fill="#2e3e5a"/><path d="M8,1.5H0v-3H8Z" transform="translate(22.5 95.5)" fill="#2e3e5a"/></g><g transform="translate(-4 36.5)"><circle cx="11.663" cy="11.663" r="11.663" transform="translate(15 84)" fill="#fff"/><path d="M11.663,2.5a9.163,9.163,0,1,0,9.163,9.163A9.173,9.173,0,0,0,11.663,2.5m0-2.5A11.663,11.663,0,1,1,0,11.663,11.663,11.663,0,0,1,11.663,0Z" transform="translate(15 84)" fill="#2e3e5a"/><path d="M8,1.5H0v-3H8Z" transform="translate(22.5 95.5)" fill="#2e3e5a"/></g><rect width="42.429" height="34" transform="translate(106.82 13.5)" fill="#e4e6ea"/><path d="M2,2V32H40.429V2H2M0,0H42.429V34H0Z" transform="translate(106.82 13.5)" fill="#2e3e5a"/></g></svg>