<svg xmlns="http://www.w3.org/2000/svg" xmlns:xlink="http://www.w3.org/1999/xlink" width="360" height="54" viewBox="0 0 360 54"><defs><clipPath id="b"><rect width="360" height="54"/></clipPath></defs><g id="a" clip-path="url(#b)"><path d="M61.333,3H0A3,3,0,0,1-3,0,3,3,0,0,1,0-3H61.333a3,3,0,0,1,3,3A3,3,0,0,1,61.333,3Z" transform="translate(68.842 18.5)" fill="#2e3e5a"/><path d="M61.333,3H0A3,3,0,0,1-3,0,3,3,0,0,1,0-3H61.333a3,3,0,0,1,3,3A3,3,0,0,1,61.333,3Z" transform="translate(68.842 35.5)" fill="#2e3e5a"/><circle cx="23.222" cy="23.222" r="23.222" transform="translate(2 3)" fill="#abb1bd"/><path d="M23.222,3a20.222,20.222,0,0,0-14.3,34.521,20.222,20.222,0,1,0,28.6-28.6A20.09,20.09,0,0,0,23.222,3m0-3A23.222,23.222,0,1,1,0,23.222,23.222,23.222,0,0,1,23.222,0Z" transform="translate(2 3)" fill="#2e3e5a"/><path d="M1,46H-1V0H1Z" transform="translate(56.5 3.5)" fill="#2e3e5a"/></g></svg>