<svg xmlns="http://www.w3.org/2000/svg" xmlns:xlink="http://www.w3.org/1999/xlink" width="360" height="94" viewBox="0 0 360 94"><defs><clipPath id="b"><rect width="360" height="94"/></clipPath></defs><g id="a" clip-path="url(#b)"><rect width="230.5" height="43.9" rx="2" transform="translate(1.839 2)" fill="#e4e6ea"/><path d="M2,0A2,2,0,0,0,0,2V41.9a2,2,0,0,0,2,2H228.5a2,2,0,0,0,2-2V2a2,2,0,0,0-2-2H2M2-2H228.5a4,4,0,0,1,4,4V41.9a4,4,0,0,1-4,4H2a4,4,0,0,1-4-4V2A4,4,0,0,1,2-2Z" transform="translate(1.839 2)" fill="#2e3e5a"/><path d="M209.5,2H0V-2H209.5Z" transform="translate(10.339 14.805)" fill="#2e3e5a"/><path d="M74,1H0V-1H74Z" transform="translate(24.339 31.807)" fill="#2e3e5a"/><g transform="translate(10.839 27.9)"><path d="M35.765-42.32H30v-1.548h5.764l-2.142-2.141L34.607-47l3.649,3.907-3.649,3.907-.985-.985Z" transform="translate(-30 47)" fill="#2e3e5a" fill-rule="evenodd"/></g><rect width="230.5" height="43.9" rx="2" transform="translate(1.839 48)" fill="#e4e6ea"/><path d="M2,0A2,2,0,0,0,0,2V41.9a2,2,0,0,0,2,2H228.5a2,2,0,0,0,2-2V2a2,2,0,0,0-2-2H2M2-2H228.5a4,4,0,0,1,4,4V41.9a4,4,0,0,1-4,4H2a4,4,0,0,1-4-4V2A4,4,0,0,1,2-2Z" transform="translate(1.839 48)" fill="#2e3e5a"/><path d="M209.5,2H0V-2H209.5Z" transform="translate(10.339 60.805)" fill="#2e3e5a"/><path d="M74,1H0V-1H74Z" transform="translate(24.339 77.807)" fill="#2e3e5a"/><g transform="translate(10.839 73.9)"><path d="M35.765-42.32H30v-1.548h5.764l-2.142-2.141L34.607-47l3.649,3.907-3.649,3.907-.985-.985Z" transform="translate(-30 47)" fill="#2e3e5a" fill-rule="evenodd"/></g></g></svg>