<svg xmlns="http://www.w3.org/2000/svg" xmlns:xlink="http://www.w3.org/1999/xlink" width="360" height="74" viewBox="0 0 360 74"><defs><clipPath id="b"><rect width="360" height="74"/></clipPath></defs><g id="a" clip-path="url(#b)"><g transform="translate(2 2)"><rect width="79" height="70" rx="2" fill="#fff"/><path d="M2,0A2,2,0,0,0,0,2V68a2,2,0,0,0,2,2H77a2,2,0,0,0,2-2V2a2,2,0,0,0-2-2H2M2-2H77a4,4,0,0,1,4,4V68a4,4,0,0,1-4,4H2a4,4,0,0,1-4-4V2A4,4,0,0,1,2-2Z" fill="#2e3e5a"/><path d="M59.425,2H0V-2H59.425Z" transform="translate(9.346 39.805)" fill="#2e3e5a"/><g transform="translate(8.796 51.897)"><path d="M36.339-41.854H30v-1.7h6.338L33.983-45.91,35.066-47l4.012,4.3-4.012,4.3-1.083-1.083Z" transform="translate(-30 47)" fill="#2e3e5a" fill-rule="evenodd"/></g><ellipse cx="11" cy="10" rx="11" ry="10" transform="translate(9 9)" fill="#abb1bd"/></g><g transform="translate(94.459 2)"><rect width="80" height="70" rx="2" transform="translate(-0.459)" fill="#fff"/><path d="M2,0A2,2,0,0,0,0,2V68a2,2,0,0,0,2,2H78a2,2,0,0,0,2-2V2a2,2,0,0,0-2-2H2M2-2H78a4,4,0,0,1,4,4V68a4,4,0,0,1-4,4H2a4,4,0,0,1-4-4V2A4,4,0,0,1,2-2Z" transform="translate(-0.459)" fill="#2e3e5a"/><path d="M59.425,2H0V-2H59.425Z" transform="translate(9.248 39.805)" fill="#2e3e5a"/><g transform="translate(8.699 51.897)"><path d="M36.339-41.854H30v-1.7h6.338L33.983-45.91,35.066-47l4.012,4.3-4.012,4.3-1.083-1.083Z" transform="translate(-30 47)" fill="#2e3e5a" fill-rule="evenodd"/></g><ellipse cx="11" cy="10" rx="11" ry="10" transform="translate(9.541 9)" fill="#abb1bd"/></g><g transform="translate(186.919 2)"><rect width="79" height="70" rx="2" transform="translate(0.081)" fill="#fff"/><path d="M2,0A2,2,0,0,0,0,2V68a2,2,0,0,0,2,2H77a2,2,0,0,0,2-2V2a2,2,0,0,0-2-2H2M2-2H77a4,4,0,0,1,4,4V68a4,4,0,0,1-4,4H2a4,4,0,0,1-4-4V2A4,4,0,0,1,2-2Z" transform="translate(0.081)" fill="#2e3e5a"/><path d="M59.425,2H0V-2H59.425Z" transform="translate(9.334 39.805)" fill="#2e3e5a"/><g transform="translate(8.785 51.897)"><path d="M36.339-41.854H30v-1.7h6.338L33.983-45.91,35.066-47l4.012,4.3-4.012,4.3-1.083-1.083Z" transform="translate(-30 47)" fill="#2e3e5a" fill-rule="evenodd"/></g><ellipse cx="10.5" cy="10" rx="10.5" ry="10" transform="translate(9.081 9)" fill="#abb1bd"/></g><g transform="translate(279.378 2)"><rect width="79" height="70" rx="2" transform="translate(-0.378)" fill="#fff"/><path d="M2,0A2,2,0,0,0,0,2V68a2,2,0,0,0,2,2H77a2,2,0,0,0,2-2V2a2,2,0,0,0-2-2H2M2-2H77a4,4,0,0,1,4,4V68a4,4,0,0,1-4,4H2a4,4,0,0,1-4-4V2A4,4,0,0,1,2-2Z" transform="translate(-0.378)" fill="#2e3e5a"/><path d="M59.425,2H0V-2H59.425Z" transform="translate(9.292 39.805)" fill="#2e3e5a"/><g transform="translate(8.742 51.897)"><path d="M36.339-41.854H30v-1.7h6.338L33.983-45.91,35.066-47l4.012,4.3-4.012,4.3-1.083-1.083Z" transform="translate(-30 47)" fill="#2e3e5a" fill-rule="evenodd"/></g><ellipse cx="11.5" cy="10" rx="11.5" ry="10" transform="translate(7.622 9)" fill="#abb1bd"/></g></g></svg>