<svg xmlns="http://www.w3.org/2000/svg" xmlns:xlink="http://www.w3.org/1999/xlink" width="360" height="121" viewBox="0 0 360 121"><defs><clipPath id="b"><rect width="360" height="121"/></clipPath></defs><g id="a" clip-path="url(#b)"><rect width="108" height="117" rx="2" transform="translate(250 2)" fill="#fff"/><path d="M2,0A2,2,0,0,0,0,2V115a2,2,0,0,0,2,2H106a2,2,0,0,0,2-2V2a2,2,0,0,0-2-2H2M2-2H106a4,4,0,0,1,4,4V115a4,4,0,0,1-4,4H2a4,4,0,0,1-4-4V2A4,4,0,0,1,2-2Z" transform="translate(250 2)" fill="#2e3e5a"/><rect width="108" height="117" rx="2" transform="translate(126 2)" fill="#fff"/><path d="M2,0A2,2,0,0,0,0,2V115a2,2,0,0,0,2,2H106a2,2,0,0,0,2-2V2a2,2,0,0,0-2-2H2M2-2H106a4,4,0,0,1,4,4V115a4,4,0,0,1-4,4H2a4,4,0,0,1-4-4V2A4,4,0,0,1,2-2Z" transform="translate(126 2)" fill="#2e3e5a"/><rect width="108" height="117" rx="2" transform="translate(2 2)" fill="#fff"/><path d="M2,0A2,2,0,0,0,0,2V115a2,2,0,0,0,2,2H106a2,2,0,0,0,2-2V2a2,2,0,0,0-2-2H2M2-2H106a4,4,0,0,1,4,4V115a4,4,0,0,1-4,4H2a4,4,0,0,1-4-4V2A4,4,0,0,1,2-2Z" transform="translate(2 2)" fill="#2e3e5a"/><rect width="108" height="54" transform="translate(2 2)" fill="#e4e6ea"/><path d="M89.028,1H0V-1H89.028Z" transform="translate(10.445 82.43)" fill="#2e3e5a"/><path d="M89.028,2H0V-2H89.028Z" transform="translate(10.445 69)" fill="#2e3e5a"/><path d="M58.645,1H0V-1H58.645Z" transform="translate(10.445 91.3)" fill="#2e3e5a"/><g transform="translate(11.748 103.551)"><path d="M36.037-42.863H30v-1.368h6.037l-2.243-1.892L34.825-47l3.821,3.453-3.821,3.453-1.032-.871Z" transform="translate(-30 47)" fill="#2e3e5a" fill-rule="evenodd"/></g><rect width="108" height="54" transform="translate(126 2)" fill="#e4e6ea"/><path d="M89.028,1H0V-1H89.028Z" transform="translate(135.206 82.43)" fill="#2e3e5a"/><path d="M89.028,2H0V-2H89.028Z" transform="translate(135.206 69)" fill="#2e3e5a"/><path d="M58.645,1H0V-1H58.645Z" transform="translate(135.206 91.3)" fill="#2e3e5a"/><g transform="translate(136.51 103.551)"><path d="M36.037-42.863H30v-1.368h6.037l-2.243-1.892L34.825-47l3.821,3.453-3.821,3.453-1.032-.871Z" transform="translate(-30 47)" fill="#2e3e5a" fill-rule="evenodd"/></g><rect width="108" height="54" transform="translate(250 2)" fill="#e4e6ea"/><path d="M89.028,1H0V-1H89.028Z" transform="translate(258.859 82.43)" fill="#2e3e5a"/><path d="M89.028,2H0V-2H89.028Z" transform="translate(258.859 69)" fill="#2e3e5a"/><path d="M58.645,1H0V-1H58.645Z" transform="translate(258.859 91.3)" fill="#2e3e5a"/><g transform="translate(260.162 103.551)"><path d="M36.037-42.863H30v-1.368h6.037l-2.243-1.892L34.825-47l3.821,3.453-3.821,3.453-1.032-.871Z" transform="translate(-30 47)" fill="#2e3e5a" fill-rule="evenodd"/></g></g></svg>