<svg xmlns="http://www.w3.org/2000/svg" xmlns:xlink="http://www.w3.org/1999/xlink" width="360" height="121" viewBox="0 0 360 121"><defs><clipPath id="b"><rect width="360" height="121"/></clipPath></defs><g id="a" clip-path="url(#b)"><rect width="230.5" height="117.42" rx="2" transform="translate(1.839 2)" fill="#e4e6ea"/><path d="M2,0A2,2,0,0,0,0,2V115.42a2,2,0,0,0,2,2H228.5a2,2,0,0,0,2-2V2a2,2,0,0,0-2-2H2M2-2H228.5a4,4,0,0,1,4,4V115.42a4,4,0,0,1-4,4H2a4,4,0,0,1-4-4V2A4,4,0,0,1,2-2Z" transform="translate(1.839 2)" fill="#2e3e5a"/><path d="M199.678,1H0V-1H199.678Z" transform="translate(16.339 44)" fill="#2e3e5a"/><path d="M199.678,2H0V-2H199.678Z" transform="translate(16.339 25.805)" fill="#2e3e5a"/><path d="M65.161,1H0V-1H65.161Z" transform="translate(16.339 60.391)" fill="#2e3e5a"/><g transform="translate(-913 -1794.091)"><rect width="52" height="22" rx="11" transform="translate(927 1874)" fill="#2e3e5a"/><path d="M27.322,1.5H0v-3H27.322Z" transform="translate(939.178 1885)" fill="#fff"/></g></g></svg>