<svg xmlns="http://www.w3.org/2000/svg" xmlns:xlink="http://www.w3.org/1999/xlink" width="360" height="84" viewBox="0 0 360 84"><defs><clipPath id="a"><rect width="30" height="30" fill="#2e3e5a"/></clipPath><clipPath id="c"><rect width="360" height="84"/></clipPath></defs><g id="b" clip-path="url(#c)"><path d="M0,15.184l3.886-3.955L10.741,18.1,28.852,0l3.92,3.9-22.03,22.03Z" transform="translate(102 3)" fill="#2e3e5a"/><path d="M11.3,15,0,26.283,3.724,30,18.75,15,3.724,0,0,3.717Z" transform="translate(7 1)" fill="#2e3e5a"/><path d="M22.134,17.97H0V12.027H22.131l-8.225-8.22L17.689,0,31.7,15,17.689,30l-3.782-3.782Z" transform="translate(51 1)" fill="#2e3e5a"/><path d="M15,18,3,30,0,27,12,15,0,3,3,0,15,12,27,0l3,3L18,15,30,27l-3,3Z" transform="translate(153 3)" fill="#2e3e5a"/><g transform="translate(1 49)"><path d="M26.313,30h0l-7.091-7.091.614-.614-2.558-2.558A10.9,10.9,0,0,1,0,10.9a10.9,10.9,0,1,1,19.734,6.38l2.558,2.558.614-.614L30,26.315,26.314,30ZM10.9,3.475a7.424,7.424,0,1,0,5.25,2.175A7.378,7.378,0,0,0,10.9,3.475Z" fill="#2e3e5a"/></g><path d="M26.333,3h-20A3.332,3.332,0,0,0,3,6.333V29.667A3.332,3.332,0,0,0,6.333,33H29.667A3.343,3.343,0,0,0,33,29.667v-20ZM18,29.667a5,5,0,1,1,5-5A4.993,4.993,0,0,1,18,29.667ZM23,13H6.333V6.333H23Z" transform="translate(49 44)" fill="#2e3e5a"/><g transform="translate(103 49)" clip-path="url(#a)"><path d="M26.5,0H2.945A2.941,2.941,0,0,0,.015,2.945L0,29.449l5.89-5.89H26.5a2.954,2.954,0,0,0,2.945-2.945V2.945A2.954,2.954,0,0,0,26.5,0M7.362,10.307H22.086a1.472,1.472,0,1,1,0,2.945H7.362a1.472,1.472,0,1,1,0-2.945M16.2,17.669H7.362a1.472,1.472,0,0,1,0-2.945H16.2a1.472,1.472,0,1,1,0,2.945m5.89-8.835H7.362a1.472,1.472,0,0,1,0-2.945H22.086a1.472,1.472,0,1,1,0,2.945" transform="translate(0.551)" fill="#2e3e5a"/></g><g transform="translate(156 47)"><path d="M20.795,30H2.727A2.73,2.73,0,0,1,0,27.273V15a2.732,2.732,0,0,1,2.216-2.676V9.544a9.545,9.545,0,0,1,19.09,0v2.781A2.726,2.726,0,0,1,23.522,15V27.273A2.73,2.73,0,0,1,20.795,30ZM11.76,16.618a2.726,2.726,0,0,0-1.023,5.253V25.91h2.047V21.871a2.726,2.726,0,0,0-1.024-5.253Zm0-12.528A5.469,5.469,0,0,0,6.306,9.544v2.729H17.212V9.544A5.466,5.466,0,0,0,11.76,4.09Z" fill="#2e3e5a"/></g></g></svg>