<svg xmlns="http://www.w3.org/2000/svg" xmlns:xlink="http://www.w3.org/1999/xlink" width="360" height="79" viewBox="0 0 360 79"><defs><clipPath id="b"><rect width="360" height="79"/></clipPath></defs><g id="a" clip-path="url(#b)"><rect width="110.399" height="75.028" rx="2" transform="translate(247.602 1.896)" fill="#fff"/><path d="M2,0A2,2,0,0,0,0,2V73.028a2,2,0,0,0,2,2H108.4a2,2,0,0,0,2-2V2a2,2,0,0,0-2-2H2M2-2H108.4a4,4,0,0,1,4,4V73.028a4,4,0,0,1-4,4H2a4,4,0,0,1-4-4V2A4,4,0,0,1,2-2Z" transform="translate(247.602 1.896)" fill="#2e3e5a"/><path d="M91.119,1H0V-1H91.119Z" transform="translate(256.712 31.908)" fill="#2e3e5a"/><g transform="translate(-116)"><path d="M211.39,1H0V-1H211.39Z" transform="translate(131.11 15.621)" fill="#2e3e5a"/><path d="M211.39,1H0V-1H211.39Z" transform="translate(131.11 31.908)" fill="#2e3e5a"/><path d="M211.39,1H0V-1H211.39Z" transform="translate(131.11 48.195)" fill="#2e3e5a"/><path d="M60.39,1H0V-1H60.39Z" transform="translate(131.11 64.482)" fill="#2e3e5a"/></g><path d="M91.119,2H0V-2H91.119Z" transform="translate(256.712 15.621)" fill="#2e3e5a"/><g transform="translate(-670 -1822.647)"><rect width="37.807" height="15.995" rx="7.998" transform="translate(927 1874)" fill="#2e3e5a"/><path d="M19.865,1.5H0v-3H19.865Z" transform="translate(935.854 1881.998)" fill="#fff"/></g></g></svg>