<svg xmlns="http://www.w3.org/2000/svg" xmlns:xlink="http://www.w3.org/1999/xlink" width="360" height="136" viewBox="0 0 360 136"><defs><clipPath id="b"><rect width="360" height="136"/></clipPath></defs><g id="a" clip-path="url(#b)"><rect width="132" height="132" rx="2" transform="translate(2 2)" fill="#fff"/><path d="M2,0A2,2,0,0,0,0,2V130a2,2,0,0,0,2,2H130a2,2,0,0,0,2-2V2a2,2,0,0,0-2-2H2M2-2H130a4,4,0,0,1,4,4V130a4,4,0,0,1-4,4H2a4,4,0,0,1-4-4V2A4,4,0,0,1,2-2Z" transform="translate(2 2)" fill="#2e3e5a"/><rect width="132" height="28" transform="translate(2 2)" fill="#e4e6ea"/><path d="M73,1.5H0v-3H73Z" transform="translate(12.5 20.5)" fill="#2e3e5a"/><path d="M2,0H36.969a0,0,0,0,1,0,0V14.927a0,0,0,0,1,0,0H0a0,0,0,0,1,0,0V2A2,2,0,0,1,2,0Z" transform="translate(12.5 39.009)" fill="#e4e6ea"/><path d="M2,0A2,2,0,0,0,0,2V14.927H36.969V0H2M2-2H38.969V16.927H-2V2A4,4,0,0,1,2-2Z" transform="translate(12.5 39.009)" fill="#2e3e5a"/><rect width="36.969" height="14.927" transform="translate(12.5 55.511)" fill="#fff"/><path d="M0,0V14.927H36.969V0H0M-2-2H38.969V16.927H-2Z" transform="translate(12.5 55.511)" fill="#2e3e5a"/><rect width="36.969" height="14.927" transform="translate(12.5 72.013)" fill="#fff"/><path d="M0,0V14.927H36.969V0H0M-2-2H38.969V16.927H-2Z" transform="translate(12.5 72.013)" fill="#2e3e5a"/><rect width="36.969" height="14.927" transform="translate(12.5 88.514)" fill="#fff"/><path d="M0,0V14.927H36.969V0H0M-2-2H38.969V16.927H-2Z" transform="translate(12.5 88.514)" fill="#2e3e5a"/><path d="M0,0H36.969a0,0,0,0,1,0,0V14.927a0,0,0,0,1,0,0H2a2,2,0,0,1-2-2V0A0,0,0,0,1,0,0Z" transform="translate(12.5 105.016)" fill="#fff"/><path d="M0,0V12.927a2,2,0,0,0,2,2H36.969V0H0M-2-2H38.969V16.927H2a4,4,0,0,1-4-4Z" transform="translate(12.5 105.016)" fill="#2e3e5a"/><rect width="36.969" height="14.927" transform="translate(50.193 39.009)" fill="#e4e6ea"/><path d="M0,0V14.927H36.969V0H0M-2-2H38.969V16.927H-2Z" transform="translate(50.193 39.009)" fill="#2e3e5a"/><rect width="36.969" height="14.927" transform="translate(50.193 55.511)" fill="#fff"/><path d="M0,0V14.927H36.969V0H0M-2-2H38.969V16.927H-2Z" transform="translate(50.193 55.511)" fill="#2e3e5a"/><rect width="36.969" height="14.927" transform="translate(50.193 72.013)" fill="#fff"/><path d="M0,0V14.927H36.969V0H0M-2-2H38.969V16.927H-2Z" transform="translate(50.193 72.013)" fill="#2e3e5a"/><rect width="36.969" height="14.927" transform="translate(50.193 88.514)" fill="#fff"/><path d="M0,0V14.927H36.969V0H0M-2-2H38.969V16.927H-2Z" transform="translate(50.193 88.514)" fill="#2e3e5a"/><rect width="36.969" height="14.927" transform="translate(50.193 105.016)" fill="#fff"/><path d="M0,0V14.927H36.969V0H0M-2-2H38.969V16.927H-2Z" transform="translate(50.193 105.016)" fill="#2e3e5a"/><path d="M0,0H34.969a2,2,0,0,1,2,2V14.927a0,0,0,0,1,0,0H0a0,0,0,0,1,0,0V0A0,0,0,0,1,0,0Z" transform="translate(87.888 39.009)" fill="#e4e6ea"/><path d="M0,0V14.927H36.969V2a2,2,0,0,0-2-2H0M-2-2H34.969a4,4,0,0,1,4,4V16.927H-2Z" transform="translate(87.888 39.009)" fill="#2e3e5a"/><rect width="36.969" height="14.927" transform="translate(87.888 55.511)" fill="#fff"/><path d="M0,0V14.927H36.969V0H0M-2-2H38.969V16.927H-2Z" transform="translate(87.888 55.511)" fill="#2e3e5a"/><rect width="36.969" height="14.927" transform="translate(87.888 72.013)" fill="#fff"/><path d="M0,0V14.927H36.969V0H0M-2-2H38.969V16.927H-2Z" transform="translate(87.888 72.013)" fill="#2e3e5a"/><rect width="36.969" height="14.927" transform="translate(87.888 88.514)" fill="#fff"/><path d="M0,0V14.927H36.969V0H0M-2-2H38.969V16.927H-2Z" transform="translate(87.888 88.514)" fill="#2e3e5a"/><path d="M0,0H36.969a0,0,0,0,1,0,0V12.927a2,2,0,0,1-2,2H0a0,0,0,0,1,0,0V0A0,0,0,0,1,0,0Z" transform="translate(87.888 105.016)" fill="#fff"/><path d="M0,0V14.927H34.969a2,2,0,0,0,2-2V0H0M-2-2H38.969V12.927a4,4,0,0,1-4,4H-2Z" transform="translate(87.888 105.016)" fill="#2e3e5a"/></g></svg>