<svg xmlns="http://www.w3.org/2000/svg" xmlns:xlink="http://www.w3.org/1999/xlink" width="360" height="68" viewBox="0 0 360 68"><defs><clipPath id="b"><rect width="360" height="68"/></clipPath></defs><g id="a" clip-path="url(#b)"><rect width="230.5" height="63.5" rx="2" transform="translate(2 2)" fill="#fff"/><path d="M2,0A2,2,0,0,0,0,2V61.5a2,2,0,0,0,2,2H228.5a2,2,0,0,0,2-2V2a2,2,0,0,0-2-2H2M2-2H228.5a4,4,0,0,1,4,4V61.5a4,4,0,0,1-4,4H2a4,4,0,0,1-4-4V2A4,4,0,0,1,2-2Z" transform="translate(2 2)" fill="#2e3e5a"/><rect width="230.5" height="31.75" transform="translate(2 2)" fill="#e4e6ea"/><path d="M182.133,1H0V-1H182.133Z" transform="translate(38.5 48.43)" fill="#2e3e5a"/><path d="M40.577,27.083a.4.4,0,0,1,.23.537.346.346,0,0,1-.23.23L28.952,34.564c-.384.23-.652.038-.652-.384V20.752c0-.422.307-.575.652-.384Z" transform="translate(-12.309 21.213)" fill="#2e3e5a"/><path d="M204,2H0V-2H204Z" transform="translate(16.5 18.805)" fill="#2e3e5a"/></g></svg>