<svg xmlns="http://www.w3.org/2000/svg" xmlns:xlink="http://www.w3.org/1999/xlink" width="360" height="96" viewBox="0 0 360 96"><defs><clipPath id="b"><rect width="360" height="96"/></clipPath></defs><g id="a" clip-path="url(#b)"><rect width="356" height="91.188" rx="2" transform="translate(2 2)" fill="#abb1bd"/><path d="M2,0A2,2,0,0,0,0,2V89.188a2,2,0,0,0,2,2H354a2,2,0,0,0,2-2V2a2,2,0,0,0-2-2H2M2-2H354a4,4,0,0,1,4,4V89.188a4,4,0,0,1-4,4H2a4,4,0,0,1-4-4V2A4,4,0,0,1,2-2Z" transform="translate(2 2)" fill="#2e3e5a"/><path d="M47.151,1.5H0v-3H47.151Z" transform="translate(14.176 74.68)" fill="#2e3e5a"/><path d="M47.151,1.5H0v-3H47.151Z" transform="translate(76.176 74.68)" fill="#2e3e5a"/><path d="M47.151,1.5H0v-3H47.151Z" transform="translate(141.176 74.68)" fill="#2e3e5a"/><path d="M47.151,1.5H0v-3H47.151Z" transform="translate(206.176 74.68)" fill="#2e3e5a"/><path d="M205.324,1.5H0v-3H205.324Z" transform="translate(16.176 20.68)" fill="#2e3e5a"/><path d="M205.324,1.5H0v-3H205.324Z" transform="translate(16.176 36.68)" fill="#2e3e5a"/><path d="M125.324,1.5H0v-3H125.324Z" transform="translate(16.176 52.68)" fill="#2e3e5a"/></g></svg>