<svg xmlns="http://www.w3.org/2000/svg" xmlns:xlink="http://www.w3.org/1999/xlink" width="360" height="104" viewBox="0 0 360 104"><defs><clipPath id="b"><rect width="360" height="104"/></clipPath></defs><g id="a" clip-path="url(#b)"><rect width="230.5" height="103" transform="translate(0 1)" fill="#fff"/><path d="M230.5,1H0V-1H230.5Z" transform="translate(0 1)" fill="#2e3e5a"/><path d="M230.5,1H0V-1H230.5Z" transform="translate(0 52.5)" fill="#2e3e5a"/><path d="M230.5,1H0V-1H230.5Z" transform="translate(0 103)" fill="#2e3e5a"/><g transform="translate(-6 5)"><circle cx="13" cy="13" r="13" transform="translate(197 8)" fill="#abb1bd"/><path d="M5.721,7.592,0,13.3l1.885,1.881L9.491,7.592,1.885,0,0,1.881Z" transform="translate(217.457 17.132) rotate(90)" fill="#2e3e5a"/></g><g transform="translate(-6 56)"><circle cx="13" cy="13" r="13" transform="translate(197 8)" fill="#abb1bd"/><path d="M5.721,7.592,0,13.3l1.885,1.881L9.491,7.592,1.885,0,0,1.881Z" transform="translate(217.457 17.132) rotate(90)" fill="#2e3e5a"/></g><path transform="translate(13.5 85.959)" fill="#2e3e5a"/><path d="M166.7,2H0V-2H166.7Z" transform="translate(4 25.805)" fill="#2e3e5a"/><path d="M166.7,2H0V-2H166.7Z" transform="translate(4 76.805)" fill="#2e3e5a"/></g></svg>