<svg xmlns="http://www.w3.org/2000/svg" xmlns:xlink="http://www.w3.org/1999/xlink" width="360" height="130" viewBox="0 0 360 130"><defs><clipPath id="b"><rect width="360" height="130"/></clipPath></defs><g id="a" clip-path="url(#b)"><rect width="75.299" height="102.258" transform="translate(31.225 9.691) rotate(8)" fill="#abb1bd"/><path d="M0,0V102.258H75.3V0H0M0-3H75.3a3,3,0,0,1,3,3V102.258a3,3,0,0,1-3,3H0a3,3,0,0,1-3-3V0A3,3,0,0,1,0-3Z" transform="translate(31.225 9.691) rotate(8)" fill="#2e3e5a"/><rect width="75.299" height="102.258" transform="matrix(0.998, 0.07, -0.07, 0.998, 21.401, 11.932)" fill="#e4e6ea"/><path d="M0,0V102.258H75.3V0H0M0-3H75.3a3,3,0,0,1,3,3V102.258a3,3,0,0,1-3,3H0a3,3,0,0,1-3-3V0A3,3,0,0,1,0-3Z" transform="matrix(0.998, 0.07, -0.07, 0.998, 21.401, 11.932)" fill="#2e3e5a"/><rect width="75" height="103" transform="translate(12 14)" fill="#fff"/><path d="M0,0V103H75V0H0M0-3H75a3,3,0,0,1,3,3V103a3,3,0,0,1-3,3H0a3,3,0,0,1-3-3V0A3,3,0,0,1,0-3Z" transform="translate(12 14)" fill="#2e3e5a"/><circle cx="24" cy="24" r="24" transform="translate(25 29)" fill="#2e3e5a"/><text transform="translate(50 61)" fill="#fff" font-size="22" font-family="OpenSans-Bold, Open Sans" font-weight="700"><tspan x="-15.479" y="0">XD</tspan></text></g></svg>