<svg xmlns="http://www.w3.org/2000/svg" xmlns:xlink="http://www.w3.org/1999/xlink" width="360" height="41" viewBox="0 0 360 41"><defs><clipPath id="a"><rect width="21" height="21" transform="translate(0.212 0.061)" fill="#2e3e5a"/></clipPath><clipPath id="c"><rect width="360" height="41"/></clipPath></defs><g id="b" clip-path="url(#c)"><rect width="118" height="41" rx="20.5" fill="#e4e6ea"/><path d="M20.5,2A18.5,18.5,0,0,0,7.419,33.581,18.379,18.379,0,0,0,20.5,39h77A18.5,18.5,0,0,0,110.581,7.419,18.379,18.379,0,0,0,97.5,2h-77m0-2h77a20.5,20.5,0,0,1,0,41h-77a20.5,20.5,0,0,1,0-41Z" fill="#2e3e5a"/><g transform="translate(75.788 9.939)"><g transform="translate(0 0)" clip-path="url(#a)"><path d="M18.028,0H2A2,2,0,0,0,.01,2L0,20.031l4.006-4.006H18.028a2.009,2.009,0,0,0,2-2V2a2.009,2.009,0,0,0-2-2M5.008,7.011H15.023a1,1,0,0,1,0,2H5.008a1,1,0,1,1,0-2m6.009,5.008H5.008a1,1,0,0,1,0-2h6.009a1,1,0,0,1,0,2m4.006-6.009H5.008a1,1,0,0,1,0-2H15.023a1,1,0,0,1,0,2" transform="translate(0.98 0.642)" fill="#2e3e5a"/></g></g><path d="M44.079,1.5H0A1.5,1.5,0,0,1-1.5,0,1.5,1.5,0,0,1,0-1.5H44.079a1.5,1.5,0,0,1,1.5,1.5A1.5,1.5,0,0,1,44.079,1.5Z" transform="translate(21.041 20.21)" fill="#2e3e5a"/></g></svg>