<svg xmlns="http://www.w3.org/2000/svg" xmlns:xlink="http://www.w3.org/1999/xlink" width="360" height="68" viewBox="0 0 360 68"><defs><clipPath id="b"><rect width="360" height="68"/></clipPath></defs><g id="a" clip-path="url(#b)"><rect width="230.5" height="63.5" rx="2" transform="translate(2 2)" fill="#e4e6ea"/><path d="M2,0A2,2,0,0,0,0,2V61.5a2,2,0,0,0,2,2H228.5a2,2,0,0,0,2-2V2a2,2,0,0,0-2-2H2M2-2H228.5a4,4,0,0,1,4,4V61.5a4,4,0,0,1-4,4H2a4,4,0,0,1-4-4V2A4,4,0,0,1,2-2Z" transform="translate(2 2)" fill="#2e3e5a"/><path d="M158.069,1H0V-1H158.069Z" transform="translate(40.449 21.43)" fill="#2e3e5a"/><path d="M158.069,1H0V-1H158.069Z" transform="translate(40.449 34.43)" fill="#2e3e5a"/><path d="M158.532,1H0V-1H158.532Z" transform="translate(40.449 48.43)" fill="#2e3e5a"/><circle cx="10.219" cy="10.219" r="10.219" transform="translate(12 17.991)" fill="#788295"/><g transform="translate(2)"><rect width="15.273" height="1.697" transform="translate(209.807 11.723) rotate(45)" fill="#2e3e5a"/><rect width="15.273" height="1.697" transform="translate(208.606 22.522) rotate(-45)" fill="#2e3e5a"/></g></g></svg>