<svg xmlns="http://www.w3.org/2000/svg" xmlns:xlink="http://www.w3.org/1999/xlink" width="360" height="121" viewBox="0 0 360 121"><defs><clipPath id="b"><rect width="360" height="121"/></clipPath></defs><g id="a" clip-path="url(#b)"><path d="M3,3V25H25V3H3M0,0H28V28H0Z" transform="translate(2 2)" fill="#2e3e5a"/><path d="M3,3V25H25V3H3M0,0H28V28H0Z" transform="translate(2 46)" fill="#2e3e5a"/><path d="M3,3V25H25V3H3M0,0H28V28H0Z" transform="translate(2 90)" fill="#2e3e5a"/><path d="M135.59,2H0V-2H135.59Z" transform="translate(35.91 16.5)" fill="#2e3e5a"/><path d="M135.59,2H0V-2H135.59Z" transform="translate(35.91 60.5)" fill="#2e3e5a"/><path d="M135.59,2H0V-2H135.59Z" transform="translate(35.91 104.5)" fill="#2e3e5a"/><path d="M0,7.983,2.043,5.9l3.6,3.612L15.168,0l2.061,2.048L5.647,13.63Z" transform="translate(8 53.37)" fill="#2e3e5a"/></g></svg>