<svg xmlns="http://www.w3.org/2000/svg" xmlns:xlink="http://www.w3.org/1999/xlink" width="360" height="64" viewBox="0 0 360 64"><defs><clipPath id="b"><rect width="360" height="64"/></clipPath></defs><g id="a" clip-path="url(#b)"><path d="M46.618,1H0V-1H46.618Z" transform="translate(28.376 46.248)" fill="#2e3e5a"/><path d="M46.618,1H0V-1H46.618Z" transform="translate(122.611 46.248)" fill="#2e3e5a"/><path d="M233,2H0V-2H233Z" transform="translate(2.5 18.805)" fill="#2e3e5a"/><g transform="translate(3 31)"><path d="M0,19V10.687H2.375v5.938H16.625V10.687H19V19ZM3.982,8.384l1.68-1.679,2.65,2.651V0h2.375V9.5l2.795-2.795,1.679,1.679L9.572,13.974Z" fill="#2e3e5a"/></g><g transform="translate(96.443 31)"><path d="M0,19V10.687H2.375v5.938H16.625V10.687H19V19ZM3.982,8.384l1.68-1.679,2.65,2.651V0h2.375V9.5l2.795-2.795,1.679,1.679L9.572,13.974Z" transform="translate(-0.442)" fill="#2e3e5a"/></g></g></svg>