<svg xmlns="http://www.w3.org/2000/svg" xmlns:xlink="http://www.w3.org/1999/xlink" width="360" height="41" viewBox="0 0 360 41"><defs><clipPath id="b"><rect width="360" height="41"/></clipPath></defs><g id="a" clip-path="url(#b)"><path d="M230.5,2H0V-2H230.5Z" transform="translate(-0.141 2)" fill="#2e3e5a"/><path d="M119.5,1.5H0v-3H119.5Z" transform="translate(0 22.5)" fill="#2e3e5a"/><rect width="38" height="22" rx="11" transform="translate(139 11)" fill="#fff"/><path d="M11,2a9,9,0,0,0,0,18H27A9,9,0,0,0,27,2H11m0-2H27a11,11,0,0,1,0,22H11A11,11,0,0,1,11,0Z" transform="translate(139 11)" fill="#2e3e5a"/><rect width="37" height="22" rx="11" transform="translate(184 11)" fill="#fff"/><path d="M11,2a9,9,0,0,0,0,18H26A9,9,0,0,0,26,2H11m0-2H26a11,11,0,0,1,0,22H11A11,11,0,0,1,11,0Z" transform="translate(184 11)" fill="#2e3e5a"/><path d="M18.5,1.5H0v-3H18.5Z" transform="translate(148.5 22.5)" fill="#2e3e5a"/><path d="M18.5,1.5H0v-3H18.5Z" transform="translate(193.5 22.5)" fill="#2e3e5a"/></g></svg>