<svg xmlns="http://www.w3.org/2000/svg" xmlns:xlink="http://www.w3.org/1999/xlink" width="360" height="48" viewBox="0 0 360 48"><defs><clipPath id="b"><rect width="360" height="48"/></clipPath></defs><g id="a" clip-path="url(#b)"><g transform="translate(-956.5 -1458.109)"><rect width="230.5" height="43.9" rx="2" transform="translate(958.5 1460.109)" fill="#e4e6ea"/><path d="M2,0A2,2,0,0,0,0,2V41.9a2,2,0,0,0,2,2H228.5a2,2,0,0,0,2-2V2a2,2,0,0,0-2-2H2M2-2H228.5a4,4,0,0,1,4,4V41.9a4,4,0,0,1-4,4H2a4,4,0,0,1-4-4V2A4,4,0,0,1,2-2Z" transform="translate(958.5 1460.109)" fill="#2e3e5a"/><path d="M177,1H0V-1H177Z" transform="translate(999 1482.06)" fill="#2e3e5a"/></g><circle cx="13" cy="13" r="13" transform="translate(11 10.991)" fill="#788295"/></g></svg>