<svg xmlns="http://www.w3.org/2000/svg" xmlns:xlink="http://www.w3.org/1999/xlink" width="360" height="84" viewBox="0 0 360 84"><defs><clipPath id="b"><rect width="360" height="84"/></clipPath></defs><g id="a" clip-path="url(#b)"><rect width="30" height="30" rx="2" transform="translate(2 2)" fill="#e3ecf6"/><path d="M2,0A2,2,0,0,0,0,2V28a2,2,0,0,0,2,2H28a2,2,0,0,0,2-2V2a2,2,0,0,0-2-2H2M2-2H28a4,4,0,0,1,4,4V28a4,4,0,0,1-4,4H2a4,4,0,0,1-4-4V2A4,4,0,0,1,2-2Z" transform="translate(2 2)" fill="#2e3e5a"/><rect width="30" height="30" rx="2" transform="translate(92 2)" fill="#96b7df"/><path d="M2,0A2,2,0,0,0,0,2V28a2,2,0,0,0,2,2H28a2,2,0,0,0,2-2V2a2,2,0,0,0-2-2H2M2-2H28a4,4,0,0,1,4,4V28a4,4,0,0,1-4,4H2a4,4,0,0,1-4-4V2A4,4,0,0,1,2-2Z" transform="translate(92 2)" fill="#2e3e5a"/><rect width="30" height="30" rx="2" transform="translate(2 52)" fill="#e4e6ea"/><path d="M2,0A2,2,0,0,0,0,2V28a2,2,0,0,0,2,2H28a2,2,0,0,0,2-2V2a2,2,0,0,0-2-2H2M2-2H28a4,4,0,0,1,4,4V28a4,4,0,0,1-4,4H2a4,4,0,0,1-4-4V2A4,4,0,0,1,2-2Z" transform="translate(2 52)" fill="#2e3e5a"/><rect width="30" height="30" rx="2" transform="translate(92 52)" fill="#788295"/><path d="M2,0A2,2,0,0,0,0,2V28a2,2,0,0,0,2,2H28a2,2,0,0,0,2-2V2a2,2,0,0,0-2-2H2M2-2H28a4,4,0,0,1,4,4V28a4,4,0,0,1-4,4H2a4,4,0,0,1-4-4V2A4,4,0,0,1,2-2Z" transform="translate(92 52)" fill="#2e3e5a"/><rect width="30" height="30" rx="2" transform="translate(47 2)" fill="#c7d9ee"/><path d="M2,0A2,2,0,0,0,0,2V28a2,2,0,0,0,2,2H28a2,2,0,0,0,2-2V2a2,2,0,0,0-2-2H2M2-2H28a4,4,0,0,1,4,4V28a4,4,0,0,1-4,4H2a4,4,0,0,1-4-4V2A4,4,0,0,1,2-2Z" transform="translate(47 2)" fill="#2e3e5a"/><rect width="30" height="30" rx="2" transform="translate(137 2)" fill="#2e6cb9"/><path d="M2,0A2,2,0,0,0,0,2V28a2,2,0,0,0,2,2H28a2,2,0,0,0,2-2V2a2,2,0,0,0-2-2H2M2-2H28a4,4,0,0,1,4,4V28a4,4,0,0,1-4,4H2a4,4,0,0,1-4-4V2A4,4,0,0,1,2-2Z" transform="translate(137 2)" fill="#2e3e5a"/><rect width="30" height="30" rx="2" transform="translate(47 52)" fill="#abb1bd"/><path d="M2,0A2,2,0,0,0,0,2V28a2,2,0,0,0,2,2H28a2,2,0,0,0,2-2V2a2,2,0,0,0-2-2H2M2-2H28a4,4,0,0,1,4,4V28a4,4,0,0,1-4,4H2a4,4,0,0,1-4-4V2A4,4,0,0,1,2-2Z" transform="translate(47 52)" fill="#2e3e5a"/><rect width="30" height="30" rx="2" transform="translate(137 52)" fill="#2e3e5a"/><path d="M2,0A2,2,0,0,0,0,2V28a2,2,0,0,0,2,2H28a2,2,0,0,0,2-2V2a2,2,0,0,0-2-2H2M2-2H28a4,4,0,0,1,4,4V28a4,4,0,0,1-4,4H2a4,4,0,0,1-4-4V2A4,4,0,0,1,2-2Z" transform="translate(137 52)" fill="#2e3e5a"/></g></svg>