<svg xmlns="http://www.w3.org/2000/svg" xmlns:xlink="http://www.w3.org/1999/xlink" width="360" height="131" viewBox="0 0 360 131"><defs><clipPath id="b"><rect width="360" height="131"/></clipPath></defs><g id="a" clip-path="url(#b)"><rect width="230.5" height="127" rx="2" transform="translate(2 2)" fill="#fff"/><path d="M2,0A2,2,0,0,0,0,2V125a2,2,0,0,0,2,2H228.5a2,2,0,0,0,2-2V2a2,2,0,0,0-2-2H2M2-2H228.5a4,4,0,0,1,4,4V125a4,4,0,0,1-4,4H2a4,4,0,0,1-4-4V2A4,4,0,0,1,2-2Z" transform="translate(2 2)" fill="#2e3e5a"/><rect width="230.5" height="101.43" transform="translate(2 2)" fill="#e4e6ea"/><path d="M211.188,1H0V-1H211.188Z" transform="translate(10.445 116.43)" fill="#2e3e5a"/><circle cx="21" cy="21" r="21" transform="translate(96 32)" fill="#2e3e5a"/><path d="M47.905,31.139a.633.633,0,0,1,.368.858.552.552,0,0,1-.368.368L29.342,43.086c-.613.368-1.042.061-1.042-.613V21.03c0-.674.49-.919,1.042-.613Z" transform="translate(81.7 21.713)" fill="#fff"/></g></svg>