<svg xmlns="http://www.w3.org/2000/svg" xmlns:xlink="http://www.w3.org/1999/xlink" width="360" height="130" viewBox="0 0 360 130"><defs><clipPath id="b"><rect width="360" height="130"/></clipPath></defs><g id="a" clip-path="url(#b)"><rect width="127.5" height="126" rx="2" transform="translate(2 2)" fill="#fff"/><path d="M2,0A2,2,0,0,0,0,2V124a2,2,0,0,0,2,2H125.5a2,2,0,0,0,2-2V2a2,2,0,0,0-2-2H2M2-2H125.5a4,4,0,0,1,4,4V124a4,4,0,0,1-4,4H2a4,4,0,0,1-4-4V2A4,4,0,0,1,2-2Z" transform="translate(2 2)" fill="#2e3e5a"/><path d="M1,128.5H-1V0H1Z" transform="translate(26.5 0.5)" fill="#2e3e5a"/><path d="M1,128.5H-1V0H1Z" transform="translate(85.5 0.5)" fill="#2e3e5a"/><path d="M1,128.5H-1V0H1Z" transform="translate(45.5 0.5)" fill="#2e3e5a"/><path d="M1,128.5H-1V0H1Z" transform="translate(105.5 0.5)" fill="#2e3e5a"/><path d="M1,128.5H-1V0H1Z" transform="translate(65.5 0.5)" fill="#2e3e5a"/><path d="M1,128.5H-1V0H1Z" transform="translate(1.75 104.5) rotate(-90)" fill="#2e3e5a"/><path d="M1,128.5H-1V0H1Z" transform="translate(1.75 46.5) rotate(-90)" fill="#2e3e5a"/><path d="M1,128.5H-1V0H1Z" transform="translate(1.75 85.5) rotate(-90)" fill="#2e3e5a"/><path d="M1,128.5H-1V0H1Z" transform="translate(1.75 26.5) rotate(-90)" fill="#2e3e5a"/><path d="M1,128.5H-1V0H1Z" transform="translate(1.75 65.5) rotate(-90)" fill="#2e3e5a"/></g></svg>