<svg xmlns="http://www.w3.org/2000/svg" xmlns:xlink="http://www.w3.org/1999/xlink" width="360" height="92" viewBox="0 0 360 92"><defs><clipPath id="b"><rect width="360" height="92"/></clipPath></defs><g id="a" clip-path="url(#b)"><g transform="translate(-535 -1479.29)"><rect width="356.11" height="87.8" rx="2" transform="translate(537 1481.29)" fill="#fff"/><path d="M2,0A2,2,0,0,0,0,2V85.8a2,2,0,0,0,2,2H354.11a2,2,0,0,0,2-2V2a2,2,0,0,0-2-2H2M2-2H354.11a4,4,0,0,1,4,4V85.8a4,4,0,0,1-4,4H2a4,4,0,0,1-4-4V2A4,4,0,0,1,2-2Z" transform="translate(537 1481.29)" fill="#2e3e5a"/><rect width="180.295" height="87.8" transform="translate(712.815 1481.29)" fill="#e4e6ea"/><path d="M126.542,1H0V-1H126.542Z" transform="translate(546.519 1514.29)" fill="#2e3e5a"/><path d="M126.542,2H0V-2H126.542Z" transform="translate(546.519 1496.095)" fill="#2e3e5a"/><path d="M82.868,1H0V-1H82.868Z" transform="translate(546.519 1529.485)" fill="#2e3e5a"/><g transform="translate(547.079 1550.347)"><path d="M36.456-41.759H30v-1.734h6.455l-2.4-2.4,1.1-1.11,4.086,4.375L35.159-38.25l-1.1-1.1Z" transform="translate(-30 47)" fill="#2e3e5a" fill-rule="evenodd"/></g></g></g></svg>