<svg xmlns="http://www.w3.org/2000/svg" xmlns:xlink="http://www.w3.org/1999/xlink" width="360" height="35" viewBox="0 0 360 35"><defs><clipPath id="b"><rect width="360" height="35"/></clipPath></defs><g id="a" clip-path="url(#b)"><path d="M33.44,1.5H0v-3H33.44Z" transform="translate(178.153 18.032)" fill="#2e3e5a"/><path d="M33.44,1.5H0v-3H33.44Z" transform="translate(123.833 18.032)" fill="#2e3e5a"/><path d="M33.44,1.5H0v-3H33.44Z" transform="translate(69.512 18.032)" fill="#2e3e5a"/><path d="M7.074,9.388,0,16.449l2.33,2.326,9.4-9.388L2.33,0,0,2.326Z" transform="translate(232.473 8)" fill="#2e3e5a"/><path d="M4.661,9.388l7.074,7.061L9.4,18.775,0,9.388,9.4,0l2.33,2.326Z" transform="translate(38.895 8)" fill="#2e3e5a"/><path d="M7.043,16.453,14.118,9.39,7.043,2.327,9.373,0,18.78,9.39,9.373,18.78ZM0,16.453,7.075,9.39,0,2.327,2.331,0l9.406,9.39L2.331,18.78Z" transform="translate(263.09 8)" fill="#2e3e5a"/><path d="M7.043,2.327,14.118,9.39,7.043,16.453l2.33,2.327L18.78,9.39,9.373,0ZM0,2.327,7.075,9.39,0,16.453,2.331,18.78l9.406-9.39L2.331,0Z" transform="translate(20.012 26.78) rotate(180)" fill="#2e3e5a"/></g></svg>