<svg xmlns="http://www.w3.org/2000/svg" xmlns:xlink="http://www.w3.org/1999/xlink" width="360" height="92" viewBox="0 0 360 92"><defs><clipPath id="b"><rect width="360" height="92"/></clipPath></defs><g id="a" clip-path="url(#b)"><rect width="230.5" height="87.8" rx="2" transform="translate(2 2)" fill="#fff"/><path d="M2,0A2,2,0,0,0,0,2V85.8a2,2,0,0,0,2,2H228.5a2,2,0,0,0,2-2V2a2,2,0,0,0-2-2H2M2-2H228.5a4,4,0,0,1,4,4V85.8a4,4,0,0,1-4,4H2a4,4,0,0,1-4-4V2A4,4,0,0,1,2-2Z" transform="translate(2 2)" fill="#2e3e5a"/><rect width="157.25" height="87.8" transform="translate(2 2)" fill="#e4e6ea"/><path d="M133.879,1H0V-1H133.879Z" transform="translate(13.056 37)" fill="#2e3e5a"/><path d="M133.879,2H0V-2H133.879Z" transform="translate(13.056 16.805)" fill="#2e3e5a"/><path d="M59.359,1H0V-1H59.359Z" transform="translate(13.056 47.195)" fill="#2e3e5a"/><path d="M52.444,1H0V-1H52.444Z" transform="translate(170.056 52.195)" fill="#2e3e5a"/><path d="M52.444,1H0V-1H52.444Z" transform="translate(170.056 63.195)" fill="#2e3e5a"/><g transform="translate(-913.944 -1808.647)"><rect width="37.807" height="15.995" rx="7.998" transform="translate(927 1874)" fill="#2e3e5a"/><path d="M19.865,1.5H0v-3H19.865Z" transform="translate(935.854 1881.998)" fill="#fff"/></g><path d="M12,24A12,12,0,1,1,24,12,12.014,12.014,0,0,1,12,24ZM12,3a9,9,0,1,0,9,9A9.011,9.011,0,0,0,12,3Zm6,12H10.5V7.5h3V12H18v3Z" transform="translate(168 14)" fill="#2e3e5a"/></g></svg>