<svg xmlns="http://www.w3.org/2000/svg" xmlns:xlink="http://www.w3.org/1999/xlink" width="360" height="96" viewBox="0 0 360 96"><defs><clipPath id="b"><rect width="360" height="96"/></clipPath></defs><g id="a" clip-path="url(#b)"><rect width="356" height="91.188" rx="2" transform="translate(2 2)" fill="#abb1bd"/><path d="M2,0A2,2,0,0,0,0,2V89.188a2,2,0,0,0,2,2H354a2,2,0,0,0,2-2V2a2,2,0,0,0-2-2H2M2-2H354a4,4,0,0,1,4,4V89.188a4,4,0,0,1-4,4H2a4,4,0,0,1-4-4V2A4,4,0,0,1,2-2Z" transform="translate(2 2)" fill="#2e3e5a"/><path d="M47.151,1.5H0v-3H47.151Z" transform="translate(18.176 20.68)" fill="#2e3e5a"/><path d="M47.151,1.5H0v-3H47.151Z" transform="translate(88.176 20.68)" fill="#2e3e5a"/><path d="M47.151,1.5H0v-3H47.151Z" transform="translate(158.176 20.68)" fill="#2e3e5a"/><path d="M47.151,1.5H0v-3H47.151Z" transform="translate(18.176 35.68)" fill="#2e3e5a"/><path d="M47.151,1.5H0v-3H47.151Z" transform="translate(88.176 35.68)" fill="#2e3e5a"/><path d="M47.151,1.5H0v-3H47.151Z" transform="translate(158.176 35.68)" fill="#2e3e5a"/><path d="M47.151,1.5H0v-3H47.151Z" transform="translate(88.176 50.68)" fill="#2e3e5a"/><path d="M47.151,1.5H0v-3H47.151Z" transform="translate(158.176 50.68)" fill="#2e3e5a"/><path d="M47.151,1.5H0v-3H47.151Z" transform="translate(158.176 65.68)" fill="#2e3e5a"/><rect width="108" height="61.188" rx="2" transform="translate(232 18)" fill="#fff"/><path d="M2,0A2,2,0,0,0,0,2V59.188a2,2,0,0,0,2,2H106a2,2,0,0,0,2-2V2a2,2,0,0,0-2-2H2M2-2H106a4,4,0,0,1,4,4V59.188a4,4,0,0,1-4,4H2a4,4,0,0,1-4-4V2A4,4,0,0,1,2-2Z" transform="translate(232 18)" fill="#2e3e5a"/><rect width="35.285" height="15.85" rx="7.925" transform="translate(240 55.68)" fill="#abb1bd"/><path d="M47.151,1.5H0v-3H47.151Z" transform="translate(239.5 28.68)" fill="#2e3e5a"/><path d="M82.324,1.5H0v-3H82.324Z" transform="translate(239.5 43.68)" fill="#2e3e5a"/></g></svg>