<svg xmlns="http://www.w3.org/2000/svg" xmlns:xlink="http://www.w3.org/1999/xlink" width="360" height="54" viewBox="0 0 360 54"><defs><clipPath id="b"><rect width="360" height="54"/></clipPath></defs><g id="a" clip-path="url(#b)"><rect width="94" height="37" rx="18.5" transform="translate(1 9)" fill="#abb1bd"/><path d="M18.5,3A15.5,15.5,0,0,0,7.54,29.46,15.4,15.4,0,0,0,18.5,34h57A15.5,15.5,0,0,0,86.46,7.54,15.4,15.4,0,0,0,75.5,3h-57m0-3h57a18.5,18.5,0,0,1,0,37h-57a18.5,18.5,0,0,1,0-37Z" transform="translate(1 9)" fill="#2e3e5a"/><rect width="94" height="37" rx="18.5" transform="translate(108 9)" fill="#2e3e5a"/><path d="M18.5,3A15.5,15.5,0,0,0,7.54,29.46,15.4,15.4,0,0,0,18.5,34h57A15.5,15.5,0,0,0,86.46,7.54,15.4,15.4,0,0,0,75.5,3h-57m0-3h57a18.5,18.5,0,0,1,0,37h-57a18.5,18.5,0,0,1,0-37Z" transform="translate(108 9)" fill="#2e3e5a"/><path d="M59.089,2H0V-2H59.089Z" transform="translate(18.521 27.5)" fill="#2e3e5a"/><path d="M59.089,2H0V-2H59.089Z" transform="translate(125.521 27.5)" fill="#fff"/></g></svg>