<svg xmlns="http://www.w3.org/2000/svg" xmlns:xlink="http://www.w3.org/1999/xlink" width="360" height="75" viewBox="0 0 360 75"><defs><clipPath id="b"><rect width="360" height="75"/></clipPath></defs><g id="a" clip-path="url(#b)"><rect width="356" height="71.188" rx="2" transform="translate(2 2)" fill="#fff"/><path d="M2,0A2,2,0,0,0,0,2V69.188a2,2,0,0,0,2,2H354a2,2,0,0,0,2-2V2a2,2,0,0,0-2-2H2M2-2H354a4,4,0,0,1,4,4V69.188a4,4,0,0,1-4,4H2a4,4,0,0,1-4-4V2A4,4,0,0,1,2-2Z" transform="translate(2 2)" fill="#2e3e5a"/><path d="M282,1.25H0v-2.5H282Z" transform="translate(35 32)" fill="#abb1bd"/><circle cx="16" cy="16" r="16" transform="translate(19 15.5)" fill="#2e3e5a"/><path d="M16,2.5A13.5,13.5,0,0,0,6.454,25.546,13.5,13.5,0,1,0,25.546,6.454,13.412,13.412,0,0,0,16,2.5M16,0A16,16,0,1,1,0,16,16,16,0,0,1,16,0Z" transform="translate(19 15.5)" fill="#2e3e5a"/><circle cx="16" cy="16" r="16" transform="translate(91 15.5)" fill="#2e3e5a"/><path d="M16,2.5A13.5,13.5,0,0,0,6.454,25.546,13.5,13.5,0,1,0,25.546,6.454,13.412,13.412,0,0,0,16,2.5M16,0A16,16,0,1,1,0,16,16,16,0,0,1,16,0Z" transform="translate(91 15.5)" fill="#2e3e5a"/><circle cx="16" cy="16" r="16" transform="translate(164 15.5)" fill="#fff"/><path d="M16,2.5A13.5,13.5,0,0,0,6.454,25.546,13.5,13.5,0,1,0,25.546,6.454,13.412,13.412,0,0,0,16,2.5M16,0A16,16,0,1,1,0,16,16,16,0,0,1,16,0Z" transform="translate(164 15.5)" fill="#2e3e5a"/><circle cx="16" cy="16" r="16" transform="translate(236 15.5)" fill="#fff"/><path d="M16,2.5A13.5,13.5,0,0,0,6.454,25.546,13.5,13.5,0,1,0,25.546,6.454,13.412,13.412,0,0,0,16,2.5M16,0A16,16,0,1,1,0,16,16,16,0,0,1,16,0Z" transform="translate(236 15.5)" fill="#2e3e5a"/><circle cx="16" cy="16" r="16" transform="translate(309 15.5)" fill="#fff"/><path d="M16,2.5A13.5,13.5,0,0,0,6.454,25.546,13.5,13.5,0,1,0,25.546,6.454,13.412,13.412,0,0,0,16,2.5M16,0A16,16,0,1,1,0,16,16,16,0,0,1,16,0Z" transform="translate(309 15.5)" fill="#2e3e5a"/><path d="M33.324,1.5H0v-3H33.324Z" transform="translate(18.176 60.68)" fill="#2e3e5a"/><path d="M33.324,1.5H0v-3H33.324Z" transform="translate(90.338 60.68)" fill="#2e3e5a"/><path d="M33.324,1.5H0v-3H33.324Z" transform="translate(162.5 60.68)" fill="#2e3e5a"/><path d="M8,1.5H0v-3H8Z" transform="translate(176 32)" fill="#2e3e5a"/><path d="M8,1.5H0v-3H8Z" transform="translate(248 32)" fill="#2e3e5a"/><path d="M8,1.5H0v-3H8Z" transform="translate(321 32)" fill="#2e3e5a"/><path d="M33.324,1.5H0v-3H33.324Z" transform="translate(236 60.68)" fill="#2e3e5a"/><path d="M33.324,1.5H0v-3H33.324Z" transform="translate(309.5 60.68)" fill="#2e3e5a"/><path d="M0,6.788,1.737,5.02,4.8,8.092,12.9,0,14.65,1.741,4.8,11.59Z" transform="translate(28.161 25.91)" fill="#fff"/><path d="M0,6.788,1.737,5.02,4.8,8.092,12.9,0,14.65,1.741,4.8,11.59Z" transform="translate(99.675 25.91)" fill="#fff"/></g></svg>