<svg xmlns="http://www.w3.org/2000/svg" xmlns:xlink="http://www.w3.org/1999/xlink" width="400" height="320" viewBox="0 0 400 320"><defs><clipPath id="a"><rect width="56.52" height="9.916" transform="translate(133.41 90.231)" fill="none"/></clipPath><clipPath id="b"><rect width="56.519" height="56.519" transform="translate(207.778 89.239)" fill="none"/></clipPath><clipPath id="c"><rect width="56.52" height="9.916" transform="translate(133.41 108.079)" fill="none"/></clipPath><clipPath id="d"><rect width="56.52" height="9.916" transform="translate(133.41 125.927)" fill="none"/></clipPath><clipPath id="e"><rect width="44.281" height="85.191" fill="none" stroke="#5bb3b3" stroke-width="2"/></clipPath><clipPath id="h"><rect width="400" height="320"/></clipPath></defs><g id="g" clip-path="url(#h)"><path d="M65.694,188.042H63.947c-2.13-4.844-4.5-10.071-7.26-15.981-3.166-6.787-6.629-13.2-10.194-19.725-.3-.539-.551-1.044-.777-1.49l-.013-.026c-1.085-2.141-1.74-3.434-4.4-4.178q-.6-.169-1.19-.33c-4.637-1.285-8.642-2.4-12.762-5.251a59.536,59.536,0,0,1-12.3-11.584,66.513,66.513,0,0,1-8.878-14.405,64.761,64.761,0,0,1-4.435-14.38A48.457,48.457,0,0,1,.635,91.177a13.06,13.06,0,0,1,.142-1.57V89.6c.183-1.387.355-2.7-.778-3.767a4.589,4.589,0,0,0,1.394.487c.076,0,.124-.019.146-.058.056-.1-.068-.306-.2-.526l-.007-.012c-.12-.2-.256-.427-.2-.532.024-.042.076-.062.16-.062a.783.783,0,0,1,.127.012l-.005,0H1.412A.112.112,0,0,0,1.3,85.2c-.157.3.758,1.739.993,2.079A12.837,12.837,0,0,0,5.76,89.94l0,0,.021.013A21.922,21.922,0,0,1,7.8,91.3a61.943,61.943,0,0,1,6.486,5.967,140.982,140.982,0,0,1,18.965,25.8c.553.955,1.07,2.068,1.57,3.145,1.387,2.984,2.821,6.07,5.355,7.248,2.236,1.039,5.052,1.262,7.775,1.477h.012c1.19.094,2.311.183,3.367.337,4.936.718,8.679,2.265,11.443,4.728a16.652,16.652,0,0,1,4.373,6.381H65.694Zm-21.1,0H42.186c-.407-.5-.811-1.022-1.26-1.6l-.034-.044c-.51-.654-1.036-1.33-1.577-1.988a5.509,5.509,0,0,1-4.125,1.956,6.052,6.052,0,0,1-3.84-1.491,5.35,5.35,0,0,1-1.893-2.8,5.031,5.031,0,0,1,.149-2.972A5.761,5.761,0,0,1,34.9,175.24a5.98,5.98,0,0,1,3.57,1.259,5.259,5.259,0,0,1,2.254,3.629,5.485,5.485,0,0,1-.964,3.715c1.622,1.313,3.249,2.726,4.835,4.2Zm89.165-.316V155.233a104.784,104.784,0,0,1,7.718-9.1c.688-.72,1.523-1.705,2.49-2.846l.059-.07c2.948-3.483,6.616-7.818,9.148-8.313a.845.845,0,0,1,.167-.017.625.625,0,0,1,.5.24c.87,1.048.088,5.22-.332,7.461l-.024.131c-.078.418-.139.748-.168.958a127.958,127.958,0,0,1-3.845,17,58.773,58.773,0,0,1-6.1,14.084,82.588,82.588,0,0,1-9.138,12.422c-.164.187-.322.365-.476.539ZM83.417,146.375H78.684c-1.582-12.38-2.712-20-3.1-20.893a15.884,15.884,0,0,1-.807-2.778c-.444-1.96-.863-3.811-2.538-4.69-1.445-.759-2.1-1.171-3.016-1.742-.424-.266-.951-.6-1.7-1.044-4.833-2.908-8.294-7.7-11.043-12.011a82.264,82.264,0,0,1-7.162-13.681,58.238,58.238,0,0,1-3.869-14.843,126.479,126.479,0,0,1-1.165-17.367c0-.227-.007-.6-.02-1.062v-.049c-.065-2.219-.185-6.35.786-7.349a.658.658,0,0,1,.481-.221.808.808,0,0,1,.274.052c2.447.886,5.425,5.736,7.818,9.633l.02.033c.8,1.3,1.485,2.416,2.065,3.244a108.625,108.625,0,0,1,7.4,12.309C69.629,86.435,74.236,96.806,76.8,104.743c1.911,5.914,4.014,19.143,6.618,41.632Zm42.388,0H105.2q.048-.177.1-.353l.016-.059c3.712-13.4,7.853-22.089,12.31-25.833,5.359-4.5,10.66-8.579,15.758-12.119,4.079-2.831,8.03-5.322,11.744-7.4a62.69,62.69,0,0,1,9.869-4.709l-.005.023a158.35,158.35,0,0,1-6.828,17.344,141.243,141.243,0,0,1-8.41,15.7,87.385,87.385,0,0,1-11.619,15.042c-.776.787-1.558,1.583-2.324,2.366Zm-25.9,0h-3.91c1.311-7.761,2.723-15.389,4.052-22.477l.017-.09c2.8-14.945,5.7-30.4,9.79-45.268A290.953,290.953,0,0,1,122.6,42.128a319.172,319.172,0,0,1,17.23-34.546c1.2-2.085,2.8-4.832,4.441-7.583.1.145.214.287.339.435-1.4.322.642,16.839,2,27.768l.009.074c.544,4.4.974,7.865.983,8.758a101.273,101.273,0,0,1-2.514,23.883A77.059,77.059,0,0,1,136.3,83.182a71.292,71.292,0,0,1-13.171,16.475,41.229,41.229,0,0,1-8.952,6.246,17.2,17.2,0,0,1-3.31.884l-.009,0c-1.873.392-3.811.8-4.39,1.423-.724.78-.986,3.485-1.176,5.459l0,.036c-.072.738-.134,1.375-.208,1.794-1.087,6.155-1.945,11.168-2.7,15.775-.224,1.361-.463,2.8-.674,4.07v.008l-.092.554c-.567,3.412-1.153,6.938-1.71,10.465Z" transform="translate(-52.416 19.958)" fill="#bfe2e2"/><path d="M133.261,189.039l0-1.316V155.064l.1-.134a105.281,105.281,0,0,1,7.754-9.145c.678-.709,1.509-1.689,2.47-2.824l.059-.07c1.473-1.741,3.143-3.713,4.761-5.31,1.919-1.894,3.448-2.931,4.673-3.171a1.338,1.338,0,0,1,.263-.026,1.118,1.118,0,0,1,.883.421c.941,1.134.4,4.511-.225,7.872l-.024.131c-.077.412-.137.737-.165.936a128.4,128.4,0,0,1-3.859,17.07,59.267,59.267,0,0,1-6.147,14.2,83.086,83.086,0,0,1-9.192,12.5c-.165.188-.323.367-.478.542Zm1-33.638v31a81.322,81.322,0,0,0,8.685-11.89,58.28,58.28,0,0,0,6.046-13.966,127.5,127.5,0,0,0,3.831-16.937c.031-.221.093-.555.172-.979l.025-.132c.214-1.141.507-2.7.644-4.134.207-2.16-.074-2.759-.2-2.916a.128.128,0,0,0-.114-.06.345.345,0,0,0-.068.007c-2.363.462-6.121,4.9-8.866,8.146l-.06.07c-.972,1.147-1.812,2.138-2.511,2.868A104.021,104.021,0,0,0,134.259,155.4ZM63.621,188.543l-.131-.3c-2.132-4.849-4.505-10.073-7.256-15.971-3.16-6.774-6.618-13.182-10.18-19.7-.3-.546-.557-1.055-.785-1.5l-.013-.026c-1.058-2.088-1.641-3.238-4.085-3.922q-.6-.169-1.188-.33c-4.682-1.3-8.724-2.418-12.914-5.323a60.034,60.034,0,0,1-12.4-11.681,67.021,67.021,0,0,1-8.945-14.515,65.252,65.252,0,0,1-4.47-14.49A48.884,48.884,0,0,1,.135,91.172a13.433,13.433,0,0,1,.147-1.631v0C.463,88.171.6,87.093-.343,86.2l.551-.818c.191.087.353.157.489.214a.711.711,0,0,1,0-.645.641.641,0,0,1,.6-.316,1.284,1.284,0,0,1,.209.018l1.248.207-.915.61A9.82,9.82,0,0,0,2.707,87a12.648,12.648,0,0,0,3.315,2.518l.026.016a22.221,22.221,0,0,1,2.065,1.374,62.445,62.445,0,0,1,6.539,6.015,141.482,141.482,0,0,1,19.033,25.888c.565.975,1.086,2.1,1.59,3.185,1.349,2.9,2.744,5.9,5.112,7.005,2.155,1,4.925,1.22,7.6,1.432H48c1.2.095,2.327.185,3.4.34,5.036.733,8.864,2.319,11.7,4.849a17.14,17.14,0,0,1,4.5,6.567l.277.687H66.194v41.667ZM1.219,86.807a6.306,6.306,0,0,1,.055,2.859v0a12.682,12.682,0,0,0-.138,1.511,48.024,48.024,0,0,0,1.1,9.414,64.268,64.268,0,0,0,4.4,14.271,66.006,66.006,0,0,0,8.81,14.3,59.035,59.035,0,0,0,12.2,11.487c4.05,2.808,8.017,3.907,12.611,5.181q.589.162,1.192.331c2.868.8,3.6,2.247,4.707,4.433l.013.026c.224.442.478.943.77,1.476,3.57,6.53,7.036,12.954,10.209,19.754,2.7,5.784,5.033,10.922,7.133,15.692h.921V145.875h1.2a15.867,15.867,0,0,0-3.95-5.508c-2.689-2.4-6.347-3.9-11.183-4.606-1.04-.151-2.154-.24-3.334-.333h-.012c-2.767-.218-5.629-.444-7.947-1.522-2.7-1.255-4.173-4.425-5.6-7.49-.5-1.067-1.007-2.169-1.549-3.1a140.481,140.481,0,0,0-18.9-25.705,61.441,61.441,0,0,0-6.434-5.919,21.634,21.634,0,0,0-1.966-1.3L5.5,90.368a13.079,13.079,0,0,1-3.615-2.8c-.1-.148-.286-.433-.47-.745A1.11,1.11,0,0,1,1.219,86.807ZM44.594,188.542H41.947l-.15-.185c-.409-.505-.815-1.027-1.266-1.607l-.034-.043c-.394-.506-.8-1.026-1.212-1.54a5.941,5.941,0,0,1-4.095,1.7,6.537,6.537,0,0,1-4.155-1.6,5.838,5.838,0,0,1-2.061-3.066,5.528,5.528,0,0,1,.162-3.266A6.268,6.268,0,0,1,34.9,174.74a6.468,6.468,0,0,1,3.866,1.356,5.746,5.746,0,0,1,2.454,3.973,5.915,5.915,0,0,1-.8,3.666c1.514,1.238,3.031,2.562,4.516,3.94l.016.015.84.851Zm-2.169-1h.883c-.919-.831-1.848-1.639-2.778-2.416.256.324.508.647.755.965l.034.044C41.713,186.641,42.071,187.1,42.425,187.542ZM34.9,175.74a5.254,5.254,0,0,0-4.82,3.526,4.533,4.533,0,0,0-.137,2.678,4.862,4.862,0,0,0,1.724,2.543,5.566,5.566,0,0,0,3.525,1.379,5.009,5.009,0,0,0,3.747-1.784l.24-.276.166-.245a4.985,4.985,0,0,0,.881-3.375,4.773,4.773,0,0,0-2.053-3.285A5.492,5.492,0,0,0,34.9,175.74Zm48.088-28.809-.007-.057H78.244l-.056-.437c-2.3-18.012-2.927-20.442-3.063-20.757a16.252,16.252,0,0,1-.836-2.866c-.436-1.924-.812-3.586-2.283-4.358s-2.127-1.184-3.049-1.76c-.423-.265-.948-.594-1.688-1.039-4.922-2.962-8.427-7.814-11.207-12.171a82.755,82.755,0,0,1-7.2-13.764,58.73,58.73,0,0,1-3.9-14.969,126.931,126.931,0,0,1-1.168-17.436c0-.216-.007-.578-.02-1.036l0-.052c-.1-3.319-.105-6.649.927-7.711a1.161,1.161,0,0,1,1.283-.29c1.183.428,2.544,1.69,4.16,3.858,1.363,1.828,2.718,4.035,3.914,5.982l.02.032c.793,1.29,1.477,2.4,2.049,3.219a109.118,109.118,0,0,1,7.432,12.365c6.534,12.543,11.152,22.94,13.725,30.9,1.922,5.947,4.031,19.206,6.639,41.728l.057.494ZM45.533,49.147c-.017,0-.055,0-.122.069-.188.194-.521.827-.641,2.9-.082,1.413-.037,2.959,0,4.088v.048c.014.475.025.848.02,1.087a126.03,126.03,0,0,0,1.161,17.3A57.745,57.745,0,0,0,49.786,89.35a81.773,81.773,0,0,0,7.12,13.6c2.717,4.259,6.135,9,10.879,11.852.748.45,1.278.782,1.7,1.049.9.564,1.555.972,2.983,1.723,1.879.987,2.344,3.038,2.793,5.022a15.518,15.518,0,0,0,.779,2.69c.544,1.259,2.14,13.241,3.082,20.591h3.733c-2.57-22.117-4.647-35.144-6.533-40.978-2.556-7.91-7.152-18.255-13.66-30.749A108.129,108.129,0,0,0,55.3,61.895c-.589-.84-1.281-1.965-2.082-3.268l-.02-.033c-2.228-3.629-5.28-8.6-7.563-9.424A.314.314,0,0,0,45.533,49.147ZM125.8,146.875H104.542l.172-.632q.046-.169.093-.337l.021-.077c3.739-13.5,7.935-22.272,12.47-26.082,5.37-4.512,10.684-8.6,15.795-12.147,4.092-2.84,8.057-5.34,11.785-7.429a63.139,63.139,0,0,1,9.967-4.751l.83-.255-.211.906a158.9,158.9,0,0,1-6.851,17.4,141.744,141.744,0,0,1-8.44,15.757,87.879,87.879,0,0,1-11.687,15.128c-.776.787-1.556,1.58-2.318,2.359l-.143.156Zm-19.951-1h19.741c.718-.733,1.45-1.478,2.179-2.217A86.888,86.888,0,0,0,139.324,128.7a140.745,140.745,0,0,0,8.38-15.646,163.264,163.264,0,0,0,6.5-16.333,73.919,73.919,0,0,0-8.834,4.32c-3.7,2.074-7.638,4.556-11.7,7.378-5.085,3.531-10.374,7.6-15.722,12.092C113.588,124.17,109.521,132.7,105.853,145.875Zm-5.951,1H95.4l.1-.583c1.311-7.758,2.723-15.392,4.054-22.485l.017-.091c2.8-14.954,5.705-30.417,9.8-45.307a291.454,291.454,0,0,1,12.767-36.475,319.672,319.672,0,0,1,17.257-34.6c1.206-2.087,2.8-4.836,4.444-7.589l.392-.657.444.623c.1.138.2.269.313.4l.534.627L144.831.9a9.5,9.5,0,0,0-.184,3.136c.045,1.684.207,4.019.483,6.941.51,5.4,1.318,11.925,1.967,17.166l.009.076c.546,4.41.977,7.893.986,8.815a101.774,101.774,0,0,1-2.527,24,77.557,77.557,0,0,1-8.835,22.407,71.793,71.793,0,0,1-13.267,16.592,41.724,41.724,0,0,1-9.063,6.321,17.322,17.322,0,0,1-3.429.925l-.009,0c-1.629.341-3.655.766-4.126,1.274-.61.656-.882,3.48-1.045,5.167l0,.037c-.073.75-.136,1.395-.213,1.832-1.086,6.153-1.945,11.164-2.7,15.77-.222,1.353-.461,2.785-.671,4.049l-.1.584c-.567,3.408-1.153,6.933-1.709,10.457l-.061.426Zm-3.318-1h2.891c.537-3.389,1.1-6.772,1.644-10.048l.1-.584c.21-1.263.448-2.695.67-4.047.758-4.61,1.617-9.625,2.7-15.781.07-.4.131-1.027.2-1.753l0-.039c.256-2.652.531-4.915,1.307-5.751.688-.741,2.614-1.145,4.654-1.572l.009,0a17.137,17.137,0,0,0,3.192-.843,40.736,40.736,0,0,0,8.841-6.171,70.791,70.791,0,0,0,13.074-16.359,76.56,76.56,0,0,0,8.719-22.119,100.772,100.772,0,0,0,2.5-23.765c-.009-.865-.437-4.324-.979-8.7l-.009-.073c-.681-5.5-1.528-12.336-2.033-17.879-.279-3.059-.422-5.352-.436-7.009,0-.529,0-.984.024-1.375-1.264,2.139-2.453,4.19-3.4,5.831a318.674,318.674,0,0,0-17.2,34.491,290.453,290.453,0,0,0-12.723,36.349c-4.083,14.85-6.98,30.293-9.781,45.228l-.017.091C99.239,130.9,97.865,138.325,96.584,145.875Z" transform="translate(-52.416 19.958)" fill="rgba(0,0,0,0)"/><path d="M315.312,1H0A1,1,0,0,1-1,0,1,1,0,0,1,0-1H315.312a1,1,0,0,1,1,1A1,1,0,0,1,315.312,1Z" transform="translate(80.5 207.5)" fill="#5bb3b3"/><path d="M0-1H68.065a1,1,0,0,1,1,1V88.854a1,1,0,0,1-1,1H0a1,1,0,0,1-1-1V0A1,1,0,0,1,0-1ZM67.065,1H1V87.854H67.065Z" transform="translate(12.278 165.333)" fill="#5bb3b3"/><path d="M0-1H44.461a1,1,0,0,1,1,1V64.213a1,1,0,0,1-1,1H0a1,1,0,0,1-1-1V0A1,1,0,0,1,0-1ZM43.461,1H1V63.213H43.461Z" transform="translate(24.08 177.654)" fill="#5bb3b3"/><path d="M36.375,220.911a1.775,1.775,0,0,1-.453-.062l-.012,0a7.442,7.442,0,0,1-5.453-6.8,2.976,2.976,0,0,1,.356-1.651q.015-.028.033-.055a2.944,2.944,0,0,1,2.945-1.152,3,3,0,0,1,2.551,1.573,1,1,0,0,1-1.859.733,2.175,2.175,0,0,0-1.355-.329.883.883,0,0,0-.577.224.982.982,0,0,0-.1.516q0,.015,0,.03a5.444,5.444,0,0,0,3.508,4.83,1.147,1.147,0,0,1,1.313.218,1.08,1.08,0,0,1,.2,1.307A1.223,1.223,0,0,1,36.375,220.911Z" transform="translate(0.306 -8.93)" fill="#5bb3b3"/><path d="M58.678,220.22a1,1,0,0,1-.255-1.967c2.376-.63,3.263-2.956,3.3-4.923q0-.033,0-.065a.954.954,0,0,0-.055-.41,2.894,2.894,0,0,0-1.014-.116,2.765,2.765,0,0,0-1.02.194,1,1,0,0,1-1.818-.815c.251-.729,1.031-1.192,2.254-1.338.413-.05,2.511-.238,3.255.921q.018.029.035.059a2.95,2.95,0,0,1,.359,1.639,8,8,0,0,1-1.206,4.167,6.044,6.044,0,0,1-3.581,2.62A1,1,0,0,1,58.678,220.22Z" transform="translate(0.741 -8.937)" fill="#5bb3b3"/><path d="M58.967,213.487a1,1,0,0,1-.958-.715,2.917,2.917,0,0,0-1.69-1.872c-.883-.362-3.186.487-4.464,1.175a1,1,0,0,1-.937.006,29.527,29.527,0,0,0-5.186-2.106,1,1,0,1,1,.573-1.916,31.54,31.54,0,0,1,5.08,2.014,17.224,17.224,0,0,1,1.671-.7,5.782,5.782,0,0,1,4.023-.325,4.91,4.91,0,0,1,2.846,3.15,1,1,0,0,1-.959,1.286Z" transform="translate(0.539 -8.98)" fill="#5bb3b3"/><path d="M35.321,213.515a1,1,0,0,1-.269-1.963,19.7,19.7,0,0,0,8.972-5.4,1,1,0,0,1,1.661,1.04q-.207.552-.434,1.1a9.672,9.672,0,0,0,2.335-1.94,1,1,0,0,1,1.5,1.32,11.653,11.653,0,0,1-5.568,3.525,1,1,0,0,1-1.271-.882,21.7,21.7,0,0,1-6.66,3.161A1,1,0,0,1,35.321,213.515Z" transform="translate(0.368 -9.015)" fill="#5bb3b3"/><path d="M32.121,213.557a1,1,0,0,1-.986-1.172,8.6,8.6,0,0,1,.966-2.714q-.114.053-.225.112a1,1,0,0,1-1.465-.892,4.805,4.805,0,0,1,1.743-3.109,10.632,10.632,0,0,1,4.933-2.505,1,1,0,0,1,.453,1.948,8.7,8.7,0,0,0-3.958,1.961,7.655,7.655,0,0,1,1.057-.058,1,1,0,0,1,.641,1.755,6.617,6.617,0,0,0-2.174,3.846A1,1,0,0,1,32.121,213.557Z" transform="translate(0.306 -9.056)" fill="#5bb3b3"/><path d="M61.772,212.719a1,1,0,0,1-.911-1.412l-.027-.02a1,1,0,0,1-.3-1.236c.143-.323.114-2.1-.813-4.59a11.846,11.846,0,0,0-4.04-5.723,13.358,13.358,0,0,0-5.374-1.584,40.749,40.749,0,0,0-4.127-.292,3.777,3.777,0,0,0,.457.964,1,1,0,0,1-1.014,1.578,15.6,15.6,0,0,0-11.7,2.052,11.521,11.521,0,0,1,3.818,1,1,1,0,1,1-.835,1.817,9.556,9.556,0,0,0-5.9-.666,1,1,0,0,1-.894-1.7,17.592,17.592,0,0,1,14.061-4.765c-.306-1.07-.178-1.5-.009-1.783a1.07,1.07,0,0,1,1.039-.517c.056,0,.207,0,.355.007a45.052,45.052,0,0,1,5,.32,15,15,0,0,1,6.224,1.9c2.69,1.781,4.179,4.985,4.826,6.737a15.36,15.36,0,0,1,.976,4.363,2.282,2.282,0,0,1,.81.264,1,1,0,0,1,.3,1.507l-1.143,1.408A1,1,0,0,1,61.772,212.719Z" transform="translate(0.296 -9.175)" fill="#5bb3b3"/><path d="M24.143,243.993a1,1,0,0,1-.888-1.459,15.89,15.89,0,0,1,4.4-5.294l.005,0a16.342,16.342,0,0,1,4.177-2.324c.393-.154.882-.311,1.448-.493,1.93-.622,5.522-1.779,5.522-3.382q0-.042,0-.085L39.2,226.4a1,1,0,0,1,1.993.169l-.384,4.517c-.02,1.386-.927,2.587-2.7,3.571a23.928,23.928,0,0,1-4.212,1.668c-.537.173-1,.322-1.338.454l-.012,0a14.344,14.344,0,0,0-3.668,2.04,13.9,13.9,0,0,0-3.848,4.63A1,1,0,0,1,24.143,243.993Z" transform="translate(0.19 -8.701)" fill="#5bb3b3"/><path d="M67.709,239.9a1,1,0,0,1-.683-.27c-.3-.281-.623-.557-.957-.82a14.343,14.343,0,0,0-3.667-2.039l-.012,0c-.337-.132-.8-.281-1.338-.454a23.929,23.929,0,0,1-4.212-1.668c-1.765-.981-2.672-2.179-2.7-3.559l-.433-4.035a1,1,0,0,1,1.989-.213l.438,4.083a1,1,0,0,1,.006.107c0,1.6,3.592,2.76,5.522,3.382.566.182,1.055.34,1.448.493a16.342,16.342,0,0,1,4.177,2.324l.009.007c.381.3.748.614,1.092.936a1,1,0,0,1-.683,1.73Z" transform="translate(0.678 -8.694)" fill="#5bb3b3"/><path d="M47.728,238.949a15.783,15.783,0,0,1-3.46-.4A20.531,20.531,0,0,1,38.1,236.03a1,1,0,0,1,1.1-1.673h0a18.826,18.826,0,0,0,5.567,2.253c4.084.9,7.5.033,10.162-2.584a1,1,0,0,1,1.4,1.426A11.926,11.926,0,0,1,47.728,238.949Z" transform="translate(0.421 -8.569)" fill="#5bb3b3"/><path d="M47.643,228.72a12.307,12.307,0,0,1-8.848-3.844,14.969,14.969,0,0,1-4.166-9.851,9.974,9.974,0,0,1,.042-2.594,1,1,0,1,1,1.979.292,7.974,7.974,0,0,0-.03,2.1q0,.038.006.076c.282,6.761,5.412,12.058,11.435,11.807s10.693-5.956,10.411-12.718a13.959,13.959,0,0,0-.135-1.444,1,1,0,0,1,1.979-.29,15.962,15.962,0,0,1,.154,1.651,14.973,14.973,0,0,1-3.329,10.2,12.268,12.268,0,0,1-9,4.6C47.977,228.717,47.809,228.72,47.643,228.72Z" transform="translate(0.372 -8.926)" fill="#5bb3b3"/><path d="M9.237,1H0A1,1,0,0,1-1,0,1,1,0,0,1,0-1H9.237a1,1,0,0,1,1,1A1,1,0,0,1,9.237,1Z" transform="translate(1.15 207.5)" fill="#5bb3b3"/><g transform="translate(16.187 16.046)"><path d="M293.425,145.055c7.4-.367,16.555,3.726,17.348,11.347.577,5.544.4,11.06,1.29,16.594a43.119,43.119,0,0,0,4.264,12.688c1.97,3.872,6.056,7.171,7.119,11.3a16.862,16.862,0,0,1-.631,8.922c-1.134,3.135-.531,2.887,1.732,5.517A71.058,71.058,0,0,1,335.8,228.018c4.069,8.866,6.739,19.229,5.235,28.936-.19,1.233-.417,5.655-2.208,5.966-2,.347-1.066-2.184-.96-3,.679-5.214,1.28-9.778.458-15.068-3.177-20.428-18.649-33.886-28.726-51.222-.554-.9-1.723-3.023-2.537-4.428-1.284-2.217-2.575-6.437-4.313-8.08-3.274-3.094-.262,3.13.375,4.319.807,1.5,1.694,3.1,2.52,4.415,3.781,6.108,8,12.774,11.906,19.07-16.874,3.656-28.769-15.569-33.3-28.212-3.736-10.413-8.21-34.757,9.177-35.658" transform="translate(2 4.837)" fill="#bfe2e2"/><path d="M392.559,125.73c-12.365.928-20.3,8.662-24,19.478-1.992,5.832-2.221,11.813-3.327,17.806a37.43,37.43,0,0,1-12.248,22.261,22.545,22.545,0,0,0-4.9,6.214,26.5,26.5,0,0,0-5.66,7.666c-1.843,3.856-2.363,8.477-.237,12.318a12.8,12.8,0,0,0,3.478,4.048,75.866,75.866,0,0,0-8.238,35.632c.208,7.377.588,14.76,1.031,22.126.12,1.979.8,5.245,1.821,1.927.935-3.035-.238-7.8-.346-10.97-.528-15.446-.979-29.491,5.73-43.919q1.056-2.27,2.227-4.5a1.517,1.517,0,0,0,.13-.084c.029.022.056.045.087.066.049-.084.117-.184.2-.295a3.984,3.984,0,0,0,.6-.8,5.726,5.726,0,0,0,1.272-2.2v-.013a208.288,208.288,0,0,1,13.768-18.445c-.037.043,5.27-6.806,4.45-3.017-.4,1.825-4.3,5.3-5.876,7.234a180.113,180.113,0,0,0-10.986,15.014,7.536,7.536,0,0,0-1.573,2.386c-.258.462-.5.928-.736,1.334,12.059,3.776,21.439-3.83,27.836-12.676l.021-.032a39.254,39.254,0,0,1,6.431-6.806c4.156-3.224,22.113-43.031,9.047-71.749" transform="translate(0 4.837)" fill="#bfe2e2"/><path d="M368.133,87.256c-12.691,12.518-18.823,29.877-23.677,46.2-5.423,18.23-9,36.742-9.142,55.7-.09,12.453-.446,24.988.32,37.422a125.575,125.575,0,0,0,1.476,13.213c.06.36,1.714,10.117,3.3,7.844.9-1.294-1.694-10.122-1.89-11.592a180.135,180.135,0,0,1-1.305-24.969c.089-13.735-.339-27.4,1.131-41.085a43.993,43.993,0,0,1,.9-6.188c.544-2.126-.149-1.2,1.622-2.039,1.721-.819,3.848-.7,5.633-1.727,7.082-4.075,10.706-14.525,13.526-21.385a125.939,125.939,0,0,0,6.751-24.465,163.9,163.9,0,0,0,2.441-18.238,44.886,44.886,0,0,1,.554-5.864,12.778,12.778,0,0,0,.631-1.877c-.042-.963-.655-1.528-.705-2.338q-.8.68-1.563,1.392" transform="translate(0 4.837)" fill="#bfe2e2"/><path d="M298.932,254.036c.086,20.783,17.793,37.564,39.551,37.483,21.758.081,39.466-16.7,39.551-37.483" transform="translate(1 4.837)" fill="#bfe2e2"/><path d="M381.005,267.9a6.276,6.276,0,0,1-4.144-1.381,7.833,7.833,0,0,1-2.234-3.4,27.871,27.871,0,0,1-1.177-8.446,32.465,32.465,0,0,0-1.275-9.109,16,16,0,0,0-1.93-3.989,16.423,16.423,0,0,0-3.275-3.563c-.669-.547-1.382-1.069-2.072-1.573-.616-.45-1.251-.915-1.853-1.4l-.288-.23c-1.935-1.541-3.935-3.134-4.18-5.654a3.766,3.766,0,0,1,.707-3.06,3.162,3.162,0,0,1,2.4-.806,10.327,10.327,0,0,1,2.036.236c.108.022.394.125.792.268a16.225,16.225,0,0,0,4.048,1.09.722.722,0,0,0,.609-.2.545.545,0,0,0-.027-.537c-.234-.532-1.037-1-2.387-1.4-2.716-.281-5.28-.532-6.807-.532a5.442,5.442,0,0,0-.988.067,15.214,15.214,0,0,0-7.287,3.85,24.543,24.543,0,0,0-5.029,6.873,50.364,50.364,0,0,0-4.665,16.068c-.115.928-.216,1.938-.324,3.081h-2.084a63.382,63.382,0,0,1,.775-7.425,46,46,0,0,1,5.525-15.317,23.028,23.028,0,0,1,5.4-6.225,15.41,15.41,0,0,1,7.492-3.185,11.715,11.715,0,0,1,1.214-.042c.786,0,1.732.029,2.666.081a7.244,7.244,0,0,1,2.947-.828c.418-.029.843-.044,1.266-.044a22.5,22.5,0,0,1,7.125,1.238,31.4,31.4,0,0,1,6.81,3.282,35.177,35.177,0,0,1,5.886,4.681,28.5,28.5,0,0,1,4.359,5.432,20.091,20.091,0,0,1,2.716,10.451,32.252,32.252,0,0,1-1.9,10.745,24.154,24.154,0,0,1-3.812,7.1c-2.051,2.491-4.378,3.769-6.929,3.8Z" transform="translate(0 4.837)" fill="#bfe2e2"/></g><path d="M136.552,236.18V231.8l18.826-15.281h87.515L261.719,231.8v4Z" transform="translate(0 6.047)" fill="#9aa2b0"/><path d="M136.552,236.18V231.8l18.826-15.281h87.515L261.719,231.8v4Z" transform="translate(0 6.047)" fill="#7a8293"/><path d="M136.552,237.68a1.5,1.5,0,0,1-1.5-1.5V231.8a1.5,1.5,0,0,1,.555-1.165l18.826-15.281a1.5,1.5,0,0,1,.945-.335h87.515a1.5,1.5,0,0,1,.945.335l18.826,15.281a1.5,1.5,0,0,1,.555,1.165v4a1.5,1.5,0,0,1-1.5,1.5l-125.167.378Zm1.5-5.166v2.161l122.167-.369v-1.792l-17.858-14.5H155.91Z" transform="translate(0 6.047)" fill="#7a8293"/><path d="M183.04,186.313l-3.968,30.556h40.2l-2.975-30.556Z" transform="translate(0 2.9)" fill="#7a8293"/><path d="M111.361,64.163H287.4a4.614,4.614,0,0,1,4.614,4.614V184.458a4.614,4.614,0,0,1-4.614,4.614H111.361a4.614,4.614,0,0,1-4.614-4.614V68.777a4.614,4.614,0,0,1,4.614-4.614" transform="translate(0 3.047)" fill="#313e58"/><rect width="165.387" height="94.057" transform="translate(116.595 76.524)" fill="#85cb85"/><path d="M199.38,173.242a4.339,4.339,0,1,1-4.339,4.338,4.338,4.338,0,0,1,4.339-4.338" transform="translate(0 3.047)" fill="#fff"/><path d="M136.552,231.222l18.826-19.657h87.515l18.826,19.283Z" transform="translate(0 6.047)" fill="#d1d5db"/><path d="M136.552,232.722a1.5,1.5,0,0,1-1.083-2.538l18.826-19.657a1.5,1.5,0,0,1,1.083-.462h87.515a1.5,1.5,0,0,1,1.073.452L262.792,229.8a1.5,1.5,0,0,1-1.069,2.548l-125.167.374Zm19.466-19.657-15.943,16.646,118.093-.353-15.907-16.294Z" transform="translate(0 6.047)" fill="#d1d5db"/><path d="M4.1,1.5H0A1.5,1.5,0,0,1-1.5,0,1.5,1.5,0,0,1,0-1.5H4.1A1.5,1.5,0,0,1,5.6,0,1.5,1.5,0,0,1,4.1,1.5Z" transform="translate(158.122 223.759)" fill="#313e58"/><path d="M4.1,1.5H0A1.5,1.5,0,0,1-1.5,0,1.5,1.5,0,0,1,0-1.5H4.1A1.5,1.5,0,0,1,5.6,0,1.5,1.5,0,0,1,4.1,1.5Z" transform="translate(169.344 223.759)" fill="#313e58"/><path d="M4.1,1.5H0A1.5,1.5,0,0,1-1.5,0,1.5,1.5,0,0,1,0-1.5H4.1A1.5,1.5,0,0,1,5.6,0,1.5,1.5,0,0,1,4.1,1.5Z" transform="translate(180.567 223.759)" fill="#313e58"/><path d="M4.1,1.5H0A1.5,1.5,0,0,1-1.5,0,1.5,1.5,0,0,1,0-1.5H4.1A1.5,1.5,0,0,1,5.6,0,1.5,1.5,0,0,1,4.1,1.5Z" transform="translate(152.078 230.414)" fill="#313e58"/><path d="M4.1,1.5H0A1.5,1.5,0,0,1-1.5,0,1.5,1.5,0,0,1,0-1.5H4.1A1.5,1.5,0,0,1,5.6,0,1.5,1.5,0,0,1,4.1,1.5Z" transform="translate(163.829 230.414)" fill="#313e58"/><path d="M4.1,1.5H0A1.5,1.5,0,0,1-1.5,0,1.5,1.5,0,0,1,0-1.5H4.1A1.5,1.5,0,0,1,5.6,0,1.5,1.5,0,0,1,4.1,1.5Z" transform="translate(175.052 230.414)" fill="#313e58"/><path d="M4.1,1.5H0A1.5,1.5,0,0,1-1.5,0,1.5,1.5,0,0,1,0-1.5H4.1A1.5,1.5,0,0,1,5.6,0,1.5,1.5,0,0,1,4.1,1.5Z" transform="translate(219.642 230.5)" fill="#313e58"/><path d="M4.1,1.5H0A1.5,1.5,0,0,1-1.5,0,1.5,1.5,0,0,1,0-1.5H4.1A1.5,1.5,0,0,1,5.6,0,1.5,1.5,0,0,1,4.1,1.5Z" transform="translate(231.394 230.5)" fill="#313e58"/><path d="M4.1,1.5H0A1.5,1.5,0,0,1-1.5,0,1.5,1.5,0,0,1,0-1.5H4.1A1.5,1.5,0,0,1,5.6,0,1.5,1.5,0,0,1,4.1,1.5Z" transform="translate(242.616 230.5)" fill="#313e58"/><path d="M25.533,1.5H0A1.5,1.5,0,0,1-1.5,0,1.5,1.5,0,0,1,0-1.5H25.533a1.5,1.5,0,0,1,1.5,1.5A1.5,1.5,0,0,1,25.533,1.5Z" transform="translate(186.274 230.5)" fill="#313e58"/><path d="M4.1,1.5H0A1.5,1.5,0,0,1-1.5,0,1.5,1.5,0,0,1,0-1.5H4.1A1.5,1.5,0,0,1,5.6,0,1.5,1.5,0,0,1,4.1,1.5Z" transform="translate(191.79 223.759)" fill="#313e58"/><path d="M4.1,1.5H0A1.5,1.5,0,0,1-1.5,0,1.5,1.5,0,0,1,0-1.5H4.1A1.5,1.5,0,0,1,5.6,0,1.5,1.5,0,0,1,4.1,1.5Z" transform="translate(203.012 223.759)" fill="#313e58"/><path d="M4.1,1.5H0A1.5,1.5,0,0,1-1.5,0,1.5,1.5,0,0,1,0-1.5H4.1A1.5,1.5,0,0,1,5.6,0,1.5,1.5,0,0,1,4.1,1.5Z" transform="translate(214.235 223.5)" fill="#313e58"/><path d="M4.1,1.5H0A1.5,1.5,0,0,1-1.5,0,1.5,1.5,0,0,1,0-1.5H4.1A1.5,1.5,0,0,1,5.6,0,1.5,1.5,0,0,1,4.1,1.5Z" transform="translate(225.458 223.5)" fill="#313e58"/><path d="M4.1,1.5H0A1.5,1.5,0,0,1-1.5,0,1.5,1.5,0,0,1,0-1.5H4.1A1.5,1.5,0,0,1,5.6,0,1.5,1.5,0,0,1,4.1,1.5Z" transform="translate(236.681 223.5)" fill="#313e58"/><g transform="translate(0 3.047)" opacity="0.95" style="isolation:isolate"><g clip-path="url(#a)"><rect width="56.519" height="9.916" transform="translate(133.41 90.231)" fill="#fff"/></g></g><g transform="translate(0.222 2.761)" opacity="0.95" style="isolation:isolate"><g clip-path="url(#b)"><rect width="56.519" height="56.519" transform="translate(207.778 89.239)" fill="#fff"/></g></g><g transform="translate(0 3.047)" opacity="0.95" style="isolation:isolate"><g clip-path="url(#c)"><rect width="56.519" height="9.916" transform="translate(133.41 108.079)" fill="#fff"/></g></g><g transform="translate(0 3.047)" opacity="0.95" style="isolation:isolate"><g clip-path="url(#d)"><rect width="56.519" height="9.916" transform="translate(133.41 125.927)" fill="#fff"/></g></g><path d="M236.534,99.155A18.84,18.84,0,1,1,217.694,118a18.84,18.84,0,0,1,18.84-18.84" transform="translate(-0.694 2.845)" fill="#ffcf4c"/><path d="M226.618,119.25l2.351-2.393,4.153,4.157,10.956-10.952,2.371,2.357-13.331,13.332Z" transform="translate(-0.617 2.938)" fill="#1f3048"/><g transform="translate(86.466 227.211)"><g clip-path="url(#e)"><path d="M43.823,59.766H1.25a1,1,0,0,1-.966-1.257L2.8,49.041a1,1,0,0,1,.966-.743H41.286a1,1,0,0,1,.966.741l2.537,9.469a1,1,0,0,1-.966,1.259Zm-41.272-2H42.52l-2-7.469H4.536Z" transform="translate(-0.396 -16.446)" fill="#5bb3b3"/><path d="M35.787,106.623H9.265a1,1,0,0,1-.99-.859L2.317,63.882a1,1,0,0,1,.99-1.141H43.07a1,1,0,0,1,.985,1.171l-7.283,41.882A1,1,0,0,1,35.787,106.623Zm-25.654-2H34.946l6.935-39.882H4.46Z" transform="translate(-1.048 -21.265)" fill="#5bb3b3"/></g><path d="M39.77,48.051a1,1,0,0,1-1-1V44.483H14.646V46.8a1,1,0,0,1-2,0V43.483a1,1,0,0,1,1-1H39.77a1,1,0,0,1,1,1v3.567A1,1,0,0,1,39.77,48.051Z" transform="translate(-4.567 -14.505)" fill="#5bb3b3"/><g clip-path="url(#e)"><path d="M25.566,35.014A1,1,0,0,1,24.8,33.37c.405-.482.356-.763-1.042-2.224-1.022-1.069-2.295-2.4-2.15-4.183.112-1.389,1.07-2.745,2.926-4.145a1,1,0,1,1,1.2,1.6c-1.355,1.022-2.074,1.934-2.137,2.71-.072.89.779,1.779,1.6,2.639a7.929,7.929,0,0,1,1.562,2.016,2.572,2.572,0,0,1-.435,2.877A1,1,0,0,1,25.566,35.014Z" transform="translate(-7.161 -7.879)" fill="#5bb3b3"/><path d="M16.235,25.449a1,1,0,0,1-.552-.167,4.772,4.772,0,0,1-2.246-2.987c-.408-2.05.916-4.019,2.2-5.924,1.047-1.557,2.129-3.166,1.845-4.341a3.157,3.157,0,0,0-1.73-1.78A1,1,0,1,1,16.716,8.5a4.931,4.931,0,0,1,2.706,3.061c.49,2.03-.841,4.011-2.129,5.927-1.052,1.565-2.14,3.184-1.9,4.418a2.852,2.852,0,0,0,1.391,1.711,1,1,0,0,1-.554,1.833Z" transform="translate(-4.551 -3.128)" fill="#5bb3b3"/><path d="M27.809,8.773a1,1,0,0,1-.98-1.2,5.868,5.868,0,0,0-1.974-5.552A1,1,0,0,1,26.133.481a7.793,7.793,0,0,1,2.35,3.4,7.644,7.644,0,0,1,.3,4.1A1,1,0,0,1,27.809,8.773Z" transform="translate(-8.079 -0.417)" fill="#5bb3b3"/></g></g></g></svg>