<svg xmlns="http://www.w3.org/2000/svg" xmlns:xlink="http://www.w3.org/1999/xlink" width="400" height="320" viewBox="0 0 400 320"><defs><clipPath id="b"><rect width="400" height="320"/></clipPath></defs><g id="a" clip-path="url(#b)"><path d="M0,321a1,1,0,0,1-1-1V0A1,1,0,0,1,0-1,1,1,0,0,1,1,0V320A1,1,0,0,1,0,321Z" transform="translate(375.374)" fill="#5bb3b3"/><path d="M0,321a1,1,0,0,1-1-1V0A1,1,0,0,1,0-1,1,1,0,0,1,1,0V320A1,1,0,0,1,0,321Z" transform="translate(350.468)" fill="#5bb3b3"/><path d="M0,319.3a1,1,0,0,1-1-1V0A1,1,0,0,1,0-1,1,1,0,0,1,1,0V318.3A1,1,0,0,1,0,319.3Z" transform="translate(183.373)" fill="#5bb3b3"/><path d="M0,321.5a1,1,0,0,1-1-1V0A1,1,0,0,1,0-1,1,1,0,0,1,1,0V320.5A1,1,0,0,1,0,321.5Z" transform="translate(158.467)" fill="#5bb3b3"/><path d="M156.69,1H0A1,1,0,0,1-1,0,1,1,0,0,1,0-1H156.69a1,1,0,0,1,1,1A1,1,0,0,1,156.69,1Z" transform="translate(188.411 202.938)" fill="#5bb3b3"/><path d="M142.023,1H0A1,1,0,0,1-1,0,1,1,0,0,1,0-1H142.023a1,1,0,0,1,1,1A1,1,0,0,1,142.023,1Z" transform="translate(11.5 202.938)" fill="#5bb3b3"/><path d="M151.476,1H0A1,1,0,0,1-1,0,1,1,0,0,1,0-1H151.476a1,1,0,0,1,1,1A1,1,0,0,1,151.476,1Z" transform="translate(2.342 191.603)" fill="#5bb3b3"/><path d="M156.69,1H0A1,1,0,0,1-1,0,1,1,0,0,1,0-1H156.69a1,1,0,0,1,1,1A1,1,0,0,1,156.69,1Z" transform="translate(188.411 191.603)" fill="#5bb3b3"/><path d="M79.6,1H0A1,1,0,0,1-1,0,1,1,0,0,1,0-1H79.6a1,1,0,0,1,1,1A1,1,0,0,1,79.6,1Z" transform="translate(265.5 104.268)" fill="#5bb3b3"/><path d="M150.925,1H0A1,1,0,0,1-1,0,1,1,0,0,1,0-1H150.925a1,1,0,0,1,1,1A1,1,0,0,1,150.925,1Z" transform="translate(2.598 104.268)" fill="#5bb3b3"/><path d="M150.588,1H0A1,1,0,0,1-1,0,1,1,0,0,1,0-1H150.588a1,1,0,0,1,1,1A1,1,0,0,1,150.588,1Z" transform="translate(2.342 93.967)" fill="#5bb3b3"/><path d="M13.824,1H0A1,1,0,0,1-1,0,1,1,0,0,1,0-1H13.824a1,1,0,0,1,1,1A1,1,0,0,1,13.824,1Z" transform="translate(380.022 209.63)" fill="#5bb3b3"/><path d="M13.871,1H0A1,1,0,0,1-1,0,1,1,0,0,1,0-1H13.871a1,1,0,0,1,1,1A1,1,0,0,1,13.871,1Z" transform="translate(380.315 198.296)" fill="#5bb3b3"/><path d="M17.373,1H0A1,1,0,0,1-1,0,1,1,0,0,1,0-1H17.373a1,1,0,0,1,1,1A1,1,0,0,1,17.373,1Z" transform="translate(381.022 104.598)" fill="#5bb3b3"/><path d="M18.126,1H0A1,1,0,0,1-1,0,1,1,0,0,1,0-1H18.126a1,1,0,0,1,1,1A1,1,0,0,1,18.126,1Z" transform="translate(380.022 94.298)" fill="#5bb3b3"/><path d="M156.1,1H0A1,1,0,0,1-1,0,1,1,0,0,1,0-1H156.1a1,1,0,0,1,1,1A1,1,0,0,1,156.1,1Z" transform="translate(189.003 93.967)" fill="#5bb3b3"/><path d="M1.486-1C2.515-1,2.892.163,3.015.546a15.238,15.238,0,0,1,.512,2.5,60.754,60.754,0,0,1,.444,7.815,60.754,60.754,0,0,1-.444,7.815,15.238,15.238,0,0,1-.512,2.5c-.124.382-.5,1.546-1.53,1.546S.08,21.556-.044,21.174a15.238,15.238,0,0,1-.512-2.5A60.754,60.754,0,0,1-1,10.86,60.754,60.754,0,0,1-.556,3.045,15.238,15.238,0,0,1-.044.546C.08.163.456-1,1.486-1Zm0,19.815c.05-.324.1-.7.148-1.12a63.132,63.132,0,0,0,.337-6.835,63.132,63.132,0,0,0-.337-6.835c-.048-.425-.1-.8-.148-1.12-.05.324-.1.7-.148,1.12A63.132,63.132,0,0,0,1,10.86,63.132,63.132,0,0,0,1.337,17.7C1.386,18.12,1.436,18.491,1.486,18.815Z" transform="translate(203.909 47.273) rotate(-90.634)" fill="#5bb3b3"/><path d="M335.856,97.953a37.685,37.685,0,0,1-9.219-1.055l-.059-.018a14.951,14.951,0,0,1-9.7-9.057,23.94,23.94,0,0,1-.966-11.214,53.49,53.49,0,0,1,2.765-11.259,80.9,80.9,0,0,1,5.509-12.27,1,1,0,1,1,1.733,1,80.466,80.466,0,0,0-5.367,11.969A51.425,51.425,0,0,0,317.9,76.865a21.976,21.976,0,0,0,.856,10.259,12.448,12.448,0,0,0,2.99,4.625,14.627,14.627,0,0,0,5.454,3.229,37.046,37.046,0,0,0,9.109.973,40.933,40.933,0,0,0,9.376-1.181,14.62,14.62,0,0,0,5.374-3.346,12.448,12.448,0,0,0,2.887-4.691,21.994,21.994,0,0,0,.625-10.291,51.508,51.508,0,0,0-2.9-10.771,80.292,80.292,0,0,0-5.619-11.815,1,1,0,0,1,1.711-1.036,80.9,80.9,0,0,1,5.78,12.146,53.491,53.491,0,0,1,3.013,11.195,23.939,23.939,0,0,1-.718,11.232,14.95,14.95,0,0,1-9.5,9.268q-.038.014-.076.025a41.872,41.872,0,0,1-9.93,1.265Z" transform="translate(-121.223 -7.791)" fill="#5bb3b3"/><path d="M1.977-1C2.687-1,3.257-.5,3.67.5a12.937,12.937,0,0,1,.69,2.62,49.313,49.313,0,0,1,.594,8.123,49.313,49.313,0,0,1-.594,8.123,12.937,12.937,0,0,1-.69,2.62c-.414,1-.983,1.5-1.693,1.5s-1.279-.5-1.693-1.5a12.937,12.937,0,0,1-.69-2.62A49.313,49.313,0,0,1-1,11.243,49.313,49.313,0,0,1-.406,3.12,12.937,12.937,0,0,1,.284.5C.7-.5,1.268-1,1.977-1Zm0,21.791A15.85,15.85,0,0,0,2.5,18.329a50.627,50.627,0,0,0,.453-7.087A50.627,50.627,0,0,0,2.5,4.156a15.85,15.85,0,0,0-.525-2.462,15.85,15.85,0,0,0-.525,2.462A50.627,50.627,0,0,0,1,11.243a50.627,50.627,0,0,0,.453,7.087A15.85,15.85,0,0,0,1.977,20.791Z" transform="translate(258.475 129.984) rotate(-90.693)" fill="#5bb3b3"/><path d="M332.184,229.722a29.352,29.352,0,0,1-9.391-1.443q-.036-.013-.071-.03c-4.973-2.29-7.471-6.227-7.635-12.036-.14-4.978,1.381-10.629,2.991-16.612.636-2.364,1.294-4.808,1.83-7.176,2.366-10.461.213-21.149.191-21.256a1,1,0,0,1,1.959-.4,54.421,54.421,0,0,1,.837,6.931,55.1,55.1,0,0,1-1.036,15.17c-.545,2.407-1.208,4.871-1.849,7.254-1.571,5.838-3.055,11.351-2.923,16.036.142,5.027,2.186,8.288,6.432,10.257a28.321,28.321,0,0,0,9.027,1.3,31.233,31.233,0,0,0,9.286-1.532c4.411-2.181,6.481-5.808,6.514-11.411.03-5.164-1.693-11.354-3.359-17.34-.523-1.879-1.064-3.822-1.542-5.7a62.194,62.194,0,0,1-1.79-14.616,56.137,56.137,0,0,1,.274-6.534,1,1,0,0,1,1.986.236h0a55.422,55.422,0,0,0-.26,6.315,61.169,61.169,0,0,0,1.728,14.106c.472,1.858,1.01,3.79,1.53,5.658,1.7,6.118,3.465,12.445,3.433,17.888-.038,6.38-2.551,10.7-7.683,13.219q-.045.022-.092.039a32.446,32.446,0,0,1-10,1.672Z" transform="translate(-62.176 -42.788)" fill="#5bb3b3"/><path d="M2.075-1C3.224-1,3.667.369,3.834.884a20.9,20.9,0,0,1,.7,3.422,84.438,84.438,0,0,1,.617,10.859,84.438,84.438,0,0,1-.617,10.859,20.9,20.9,0,0,1-.7,3.422c-.167.515-.609,1.884-1.759,1.884S.482,29.961.316,29.446a20.9,20.9,0,0,1-.7-3.422A84.438,84.438,0,0,1-1,15.165,84.438,84.438,0,0,1-.383,4.306,20.9,20.9,0,0,1,.316.884C.482.369.925-1,2.075-1Zm0,29.336a26.105,26.105,0,0,0,.58-3.406,87.554,87.554,0,0,0,.494-9.765A87.554,87.554,0,0,0,2.655,5.4a26.105,26.105,0,0,0-.58-3.406A26.105,26.105,0,0,0,1.494,5.4,87.554,87.554,0,0,0,1,15.165a87.554,87.554,0,0,0,.494,9.765A26.105,26.105,0,0,0,2.075,28.336Z" transform="translate(100.483 30.527) rotate(-90.634)" fill="#5bb3b3"/><path d="M413.237,101.914a52.2,52.2,0,0,1-12.773-1.46l-.059-.018c-6.594-2.272-11.07-6.448-13.3-12.411-1.6-4.265-2.043-9.471-1.326-15.473a74.3,74.3,0,0,1,3.841-15.637,114.857,114.857,0,0,1,7.663-17.068,1,1,0,1,1,1.733,1,112.748,112.748,0,0,0-7.522,16.766,72.233,72.233,0,0,0-3.733,15.2c-.676,5.675-.267,10.559,1.216,14.517a17.775,17.775,0,0,0,4.271,6.6,20.822,20.822,0,0,0,7.777,4.6,52.057,52.057,0,0,0,12.839,1.377,57.5,57.5,0,0,0,13.209-1.669,20.816,20.816,0,0,0,7.665-4.772,17.775,17.775,0,0,0,4.124-6.7c1.4-3.994,1.7-8.892.891-14.557a72.318,72.318,0,0,0-4.077-15.124A112.57,112.57,0,0,0,427.8,40.526a1,1,0,1,1,1.711-1.036,114.86,114.86,0,0,1,8.039,16.894,74.3,74.3,0,0,1,4.186,15.548c.85,5.985.519,11.2-.983,15.5-2.1,6.011-6.482,10.284-13.024,12.7q-.038.014-.076.025a58.073,58.073,0,0,1-13.764,1.753C413.667,101.912,413.451,101.914,413.237,101.914Z" transform="translate(-297.774 -11.892)" fill="#5bb3b3"/><path d="M1.486-1C2.515-1,2.892.163,3.015.546a15.238,15.238,0,0,1,.512,2.5,60.754,60.754,0,0,1,.444,7.815,60.754,60.754,0,0,1-.444,7.815,15.238,15.238,0,0,1-.512,2.5c-.124.382-.5,1.546-1.53,1.546S.08,21.556-.044,21.174a15.238,15.238,0,0,1-.512-2.5A60.754,60.754,0,0,1-1,10.86,60.754,60.754,0,0,1-.556,3.045,15.238,15.238,0,0,1-.044.546C.08.163.456-1,1.486-1Zm0,19.815c.05-.324.1-.7.148-1.12a63.132,63.132,0,0,0,.337-6.835,63.132,63.132,0,0,0-.337-6.835c-.048-.425-.1-.8-.148-1.12-.05.324-.1.7-.148,1.12A63.132,63.132,0,0,0,1,10.86,63.132,63.132,0,0,0,1.337,17.7C1.386,18.12,1.436,18.491,1.486,18.815Z" transform="translate(255.764 47.273) rotate(-90.634)" fill="#5bb3b3"/><path d="M1.486-1C2.515-1,2.892.163,3.015.546a15.238,15.238,0,0,1,.512,2.5,60.754,60.754,0,0,1,.444,7.815,60.754,60.754,0,0,1-.444,7.815,15.238,15.238,0,0,1-.512,2.5c-.124.382-.5,1.546-1.53,1.546S.08,21.556-.044,21.174a15.238,15.238,0,0,1-.512-2.5A60.754,60.754,0,0,1-1,10.86,60.754,60.754,0,0,1-.556,3.045,15.238,15.238,0,0,1-.044.546C.08.163.456-1,1.486-1Zm0,19.815c.05-.324.1-.7.148-1.12a63.132,63.132,0,0,0,.337-6.835,63.132,63.132,0,0,0-.337-6.835c-.048-.425-.1-.8-.148-1.12-.05.324-.1.7-.148,1.12A63.132,63.132,0,0,0,1,10.86,63.132,63.132,0,0,0,1.337,17.7C1.386,18.12,1.436,18.491,1.486,18.815Z" transform="translate(38.559 144.379) rotate(-90.634)" fill="#5bb3b3"/><path d="M1.486-1C2.515-1,2.892.163,3.015.546a15.238,15.238,0,0,1,.512,2.5,60.754,60.754,0,0,1,.444,7.815,60.754,60.754,0,0,1-.444,7.815,15.238,15.238,0,0,1-.512,2.5c-.124.382-.5,1.546-1.53,1.546S.08,21.556-.044,21.174a15.238,15.238,0,0,1-.512-2.5A60.754,60.754,0,0,1-1,10.86,60.754,60.754,0,0,1-.556,3.045,15.238,15.238,0,0,1-.044.546C.08.163.456-1,1.486-1Zm0,19.815c.05-.324.1-.7.148-1.12a63.132,63.132,0,0,0,.337-6.835,63.132,63.132,0,0,0-.337-6.835c-.048-.425-.1-.8-.148-1.12-.05.324-.1.7-.148,1.12A63.132,63.132,0,0,0,1,10.86,63.132,63.132,0,0,0,1.337,17.7C1.386,18.12,1.436,18.491,1.486,18.815Z" transform="translate(308.352 47.273) rotate(-90.634)" fill="#5bb3b3"/><path d="M1.486-1C2.515-1,2.892.163,3.015.546a15.238,15.238,0,0,1,.512,2.5,60.754,60.754,0,0,1,.444,7.815,60.754,60.754,0,0,1-.444,7.815,15.238,15.238,0,0,1-.512,2.5c-.124.382-.5,1.546-1.53,1.546S.08,21.556-.044,21.174a15.238,15.238,0,0,1-.512-2.5A60.754,60.754,0,0,1-1,10.86,60.754,60.754,0,0,1-.556,3.045,15.238,15.238,0,0,1-.044.546C.08.163.456-1,1.486-1Zm0,19.815c.05-.324.1-.7.148-1.12a63.132,63.132,0,0,0,.337-6.835,63.132,63.132,0,0,0-.337-6.835c-.048-.425-.1-.8-.148-1.12-.05.324-.1.7-.148,1.12A63.132,63.132,0,0,0,1,10.86,63.132,63.132,0,0,0,1.337,17.7C1.386,18.12,1.436,18.491,1.486,18.815Z" transform="translate(115.903 144.379) rotate(-90.634)" fill="#5bb3b3"/><path d="M296.2,97.953a37.7,37.7,0,0,1-9.219-1.055l-.06-.018a14.95,14.95,0,0,1-9.7-9.057,23.94,23.94,0,0,1-.965-11.214,53.491,53.491,0,0,1,2.765-11.259,80.9,80.9,0,0,1,5.51-12.27,1,1,0,1,1,1.733,1A80.467,80.467,0,0,0,280.9,66.046a51.427,51.427,0,0,0-2.657,10.819,21.975,21.975,0,0,0,.856,10.259,12.448,12.448,0,0,0,2.99,4.625,14.626,14.626,0,0,0,5.454,3.229,37.058,37.058,0,0,0,9.109.973,40.934,40.934,0,0,0,9.376-1.181,14.621,14.621,0,0,0,5.374-3.346,12.448,12.448,0,0,0,2.887-4.691,21.993,21.993,0,0,0,.625-10.291,51.508,51.508,0,0,0-2.9-10.77,80.289,80.289,0,0,0-5.619-11.815,1,1,0,0,1,1.711-1.036,80.9,80.9,0,0,1,5.78,12.145,53.49,53.49,0,0,1,3.013,11.195,23.939,23.939,0,0,1-.717,11.232,14.95,14.95,0,0,1-9.5,9.269q-.038.014-.076.025a41.872,41.872,0,0,1-9.93,1.265Z" transform="translate(-29.716 -7.791)" fill="#5bb3b3"/><path d="M296.2,97.953a37.7,37.7,0,0,1-9.219-1.055l-.06-.018a14.95,14.95,0,0,1-9.7-9.057,23.94,23.94,0,0,1-.965-11.214,53.491,53.491,0,0,1,2.765-11.259,80.9,80.9,0,0,1,5.51-12.27,1,1,0,1,1,1.733,1A80.467,80.467,0,0,0,280.9,66.046a51.427,51.427,0,0,0-2.657,10.819,21.975,21.975,0,0,0,.856,10.259,12.448,12.448,0,0,0,2.99,4.625,14.626,14.626,0,0,0,5.454,3.229,37.058,37.058,0,0,0,9.109.973,40.934,40.934,0,0,0,9.376-1.181,14.621,14.621,0,0,0,5.374-3.346,12.448,12.448,0,0,0,2.887-4.691,21.993,21.993,0,0,0,.625-10.291,51.508,51.508,0,0,0-2.9-10.77,80.289,80.289,0,0,0-5.619-11.815,1,1,0,0,1,1.711-1.036,80.9,80.9,0,0,1,5.78,12.145,53.49,53.49,0,0,1,3.013,11.195,23.939,23.939,0,0,1-.717,11.232,14.95,14.95,0,0,1-9.5,9.269q-.038.014-.076.025a41.872,41.872,0,0,1-9.93,1.265Z" transform="translate(-246.92 89.315)" fill="#5bb3b3"/><path d="M296.2,97.953a37.7,37.7,0,0,1-9.219-1.055l-.06-.018a14.95,14.95,0,0,1-9.7-9.057,23.94,23.94,0,0,1-.965-11.214,53.491,53.491,0,0,1,2.765-11.259,80.9,80.9,0,0,1,5.51-12.27,1,1,0,1,1,1.733,1A80.467,80.467,0,0,0,280.9,66.046a51.427,51.427,0,0,0-2.657,10.819,21.975,21.975,0,0,0,.856,10.259,12.448,12.448,0,0,0,2.99,4.625,14.626,14.626,0,0,0,5.454,3.229,37.058,37.058,0,0,0,9.109.973,40.934,40.934,0,0,0,9.376-1.181,14.621,14.621,0,0,0,5.374-3.346,12.448,12.448,0,0,0,2.887-4.691,21.993,21.993,0,0,0,.625-10.291,51.508,51.508,0,0,0-2.9-10.77,80.289,80.289,0,0,0-5.619-11.815,1,1,0,0,1,1.711-1.036,80.9,80.9,0,0,1,5.78,12.145,53.49,53.49,0,0,1,3.013,11.195,23.939,23.939,0,0,1-.717,11.232,14.95,14.95,0,0,1-9.5,9.269q-.038.014-.076.025a41.872,41.872,0,0,1-9.93,1.265Z" transform="translate(22.871 -7.791)" fill="#5bb3b3"/><path d="M296.2,97.953a37.7,37.7,0,0,1-9.219-1.055l-.06-.018a14.95,14.95,0,0,1-9.7-9.057,23.94,23.94,0,0,1-.965-11.214,53.491,53.491,0,0,1,2.765-11.259,80.9,80.9,0,0,1,5.51-12.27,1,1,0,1,1,1.733,1A80.467,80.467,0,0,0,280.9,66.046a51.427,51.427,0,0,0-2.657,10.819,21.975,21.975,0,0,0,.856,10.259,12.448,12.448,0,0,0,2.99,4.625,14.626,14.626,0,0,0,5.454,3.229,37.058,37.058,0,0,0,9.109.973,40.934,40.934,0,0,0,9.376-1.181,14.621,14.621,0,0,0,5.374-3.346,12.448,12.448,0,0,0,2.887-4.691,21.993,21.993,0,0,0,.625-10.291,51.508,51.508,0,0,0-2.9-10.77,80.289,80.289,0,0,0-5.619-11.815,1,1,0,0,1,1.711-1.036,80.9,80.9,0,0,1,5.78,12.145,53.49,53.49,0,0,1,3.013,11.195,23.939,23.939,0,0,1-.717,11.232,14.95,14.95,0,0,1-9.5,9.269q-.038.014-.076.025a41.872,41.872,0,0,1-9.93,1.265Z" transform="translate(-169.578 89.315)" fill="#5bb3b3"/><g transform="translate(300.486 153.37)"><path d="M411.925,191.087c-4.9,0-9.511-.068-12.983-.191-1.7-.06-3.034-.131-3.972-.209-.5-.042-.881-.086-1.154-.133a2.749,2.749,0,0,1-.436-.106,1.068,1.068,0,0,1-.765-1.01,1.174,1.174,0,0,1,.695-1.052,3.116,3.116,0,0,1,.876-.247,32.6,32.6,0,0,1,3.8-.265,1,1,0,0,1,1.03.969q0,.028,0,.055c3.016.108,7.348.189,12.907.189,5.716,0,10.134-.086,13.158-.2a1,1,0,0,1,1.034-.864c1.337.058,2.383.123,3.109.194.4.039.7.079.92.123a2.181,2.181,0,0,1,.389.109,1.047,1.047,0,0,1-.065,2,2.751,2.751,0,0,1-.436.106c-.273.047-.651.091-1.154.133-.938.079-2.275.149-3.972.209C421.436,191.019,416.825,191.087,411.925,191.087Z" transform="translate(-393.615 -188.873)" fill="#5bb3b3"/><path d="M411.925,223.315c-3.865,0-7.5-.058-10.239-.163-1.342-.052-2.4-.112-3.144-.18-.405-.037-.711-.075-.935-.117a2.275,2.275,0,0,1-.388-.1,1.061,1.061,0,0,1-.714-.873h0l-3.884-32.456a1,1,0,0,1,1.986-.238l3.8,31.767c1.547.168,6.189.363,13.516.363s11.967-.2,13.515-.363l3.8-31.767a1,1,0,1,1,1.986.238l-3.885,32.456h0a1.061,1.061,0,0,1-.714.873,2.275,2.275,0,0,1-.388.1c-.224.042-.529.08-.935.117-.744.068-1.8.128-3.144.18C419.426,223.257,415.79,223.315,411.925,223.315Z" transform="translate(-393.615 -188.74)" fill="#5bb3b3"/></g><g transform="translate(297.811 125.94)"><path d="M391.568,193.094a1,1,0,0,1-.864-1.5c2.4-4.124,6.238-6.327,9.628-8.271a34.979,34.979,0,0,0,4.7-3.026,1,1,0,0,1,1.6,1.011,17.957,17.957,0,0,1-3.436,6.632,19.4,19.4,0,0,1-5.8,5.011,1,1,0,1,1-.943-1.764,17.363,17.363,0,0,0,5.178-4.49,18.738,18.738,0,0,0,1.93-2.952c-.723.442-1.472.872-2.239,1.312-3.327,1.907-6.767,3.88-8.893,7.54A1,1,0,0,1,391.568,193.094Z" transform="translate(-363.695 -163.844)" fill="#5bb3b3"/><path d="M399.052,192.785a1,1,0,0,1-.942-1.335,16.706,16.706,0,0,1,4.518-6.273,26.334,26.334,0,0,1,5.748-3.432,1,1,0,0,1,1.407.739,10.28,10.28,0,0,1-.46,5.181,1,1,0,1,1-1.883-.675,8.308,8.308,0,0,0,.487-2.807,21.692,21.692,0,0,0-4.033,2.541,14.626,14.626,0,0,0-3.9,5.394A1,1,0,0,1,399.052,192.785Z" transform="translate(-376.739 -163.357)" fill="#5bb3b3"/><path d="M412.638,192.973a1,1,0,0,1-.571-.18,15.011,15.011,0,0,1-3.943-4.457,11.938,11.938,0,0,1-1.915-5.525,2,2,0,0,1,.564-1.48,1.379,1.379,0,0,1,1.1-.359,1.7,1.7,0,0,1,1.047.585,22.439,22.439,0,0,0,5.578,3.78l4.132,2.241c1.188.645,2.815,1.528,3.478,3.122a1,1,0,0,1-1.847.767,5.481,5.481,0,0,0-2.585-2.132l-4.132-2.241a28.513,28.513,0,0,1-5.207-3.336,14.105,14.105,0,0,0,4.873,7.393,1,1,0,0,1-.572,1.821Z" transform="translate(-399.665 -163.569)" fill="#5bb3b3"/><path d="M424.648,192.461a1,1,0,0,1-.579-.186c-.312-.222-.7-.462-1.113-.717a17.128,17.128,0,0,1-4.458-3.6,25.294,25.294,0,0,1-2.513-3.582,2.289,2.289,0,0,1-.365-1.267,1.583,1.583,0,0,1,1.347-1.492,1.923,1.923,0,0,1,1.118.246,17.02,17.02,0,0,0,2.528.96,18.882,18.882,0,0,1,2.8,1.072,9.631,9.631,0,0,1,3.239,2.669,1,1,0,1,1-1.642,1.142,7.713,7.713,0,0,0-2.494-2.023,17.074,17.074,0,0,0-2.517-.954c-.609-.195-1.232-.394-1.865-.649a24.25,24.25,0,0,0,1.89,2.593,15.446,15.446,0,0,0,3.978,3.189c.441.272.858.529,1.224.79a1,1,0,0,1-.581,1.815Z" transform="translate(-416.616 -163.372)" fill="#5bb3b3"/><path d="M409.826,192.211a1,1,0,0,1-.8-1.593,14.82,14.82,0,0,0,1.19-13.931h0a19.88,19.88,0,0,0-3.846,3.558,10.077,10.077,0,0,0-1.677,4.451,17.945,17.945,0,0,0-.027,5.013,1,1,0,0,1-1.982.271,20,20,0,0,1,.031-5.587,11.89,11.89,0,0,1,2.049-5.34,21.363,21.363,0,0,1,4.226-3.945,3.042,3.042,0,0,1,.716-.428,1.65,1.65,0,0,1,1.261-.022,1.857,1.857,0,0,1,.929.924c2.461,4.655,1.9,11.934-1.26,16.222A1,1,0,0,1,409.826,192.211Z" transform="translate(-386.051 -165.544)" fill="#5bb3b3"/><path d="M400.065,187.782a1,1,0,0,1-.286-1.958,7.329,7.329,0,0,0,3.9-3.108,15.5,15.5,0,0,0,1.484-3.054,29.747,29.747,0,0,0-8.4,4.191,9.318,9.318,0,0,0-2.024,2.161,1,1,0,0,1-1.618-1.176,11.118,11.118,0,0,1,2.472-2.607,31.934,31.934,0,0,1,10.915-5.024,1,1,0,0,1,1.187,1.293,22.807,22.807,0,0,1-2.343,5.313,9.321,9.321,0,0,1-5,3.927A1,1,0,0,1,400.065,187.782Z" transform="translate(-367.859 -164.734)" fill="#5bb3b3"/><path d="M403.41,184.461a1,1,0,0,1-.844-1.534,12.583,12.583,0,0,0,1.568-9.036,12.486,12.486,0,0,1-1.087,1.213,9.707,9.707,0,0,1-1.2.947,6.293,6.293,0,0,0-1.133.928,4.359,4.359,0,0,0-.961,2.412,1,1,0,1,1-1.979.291,6.1,6.1,0,0,1,1.411-3.992,7.785,7.785,0,0,1,1.506-1.271,8.16,8.16,0,0,0,.955-.744,10.134,10.134,0,0,0,1.934-2.613,1,1,0,0,1,1.819.087,14.471,14.471,0,0,1,.924,6.537A14.081,14.081,0,0,1,404.256,184,1,1,0,0,1,403.41,184.461Z" transform="translate(-372.794 -166.783)" fill="#5bb3b3"/><path d="M413.366,188.76a1,1,0,0,1-.648-.239,17.077,17.077,0,0,1-3.626-5.3,16.317,16.317,0,0,1-1.33-3.695,17.359,17.359,0,0,1-.137-4.293,20.068,20.068,0,0,0,.007-3.073,1,1,0,0,1,1.625-.878l4.211,3.418a11.224,11.224,0,0,1,2.242,2.213c.711,1.025,1.475,2.515,1.083,3.79a1,1,0,1,1-1.912-.588,3.335,3.335,0,0,0-.815-2.063,9.587,9.587,0,0,0-1.859-1.8l-2.532-2.056c-.013.384-.033.764-.052,1.14a15.621,15.621,0,0,0,.1,3.8,14.644,14.644,0,0,0,1.182,3.239,14.471,14.471,0,0,0,3.109,4.62,1,1,0,0,1-.649,1.761Z" transform="translate(-396.142 -166.617)" fill="#5bb3b3"/><path d="M415.576,185.838a1,1,0,0,1-.706-.292,11.422,11.422,0,0,1-3.4-8.41,1,1,0,0,1,1.663-.715,13.138,13.138,0,0,0,4.8,2.508c.164.053.329.1.493.154a12.3,12.3,0,0,1,2.337.9,7.4,7.4,0,0,1,2.758,2.244,1,1,0,0,1-1.64,1.145,5.507,5.507,0,0,0-2.08-1.635,10.647,10.647,0,0,0-1.965-.746c-.171-.053-.342-.106-.512-.16a18.1,18.1,0,0,1-3.681-1.6,9.609,9.609,0,0,0,2.649,4.892,1,1,0,0,1-.706,1.708Z" transform="translate(-408.039 -165.044)" fill="#5bb3b3"/><path d="M417.283,182.407a1,1,0,0,1-.619-.215,9.436,9.436,0,0,1-3.246-5.431,17.6,17.6,0,0,1-.08-5.95,1,1,0,0,1,1.828-.422,8.621,8.621,0,0,0,2.335,2.069c.192.135.39.274.585.415l.149.107c1.28.923,3.032,2.187,3.349,3.841a1,1,0,0,1-1.964.376c-.167-.873-1.661-1.951-2.554-2.594l-.15-.108c-.183-.132-.376-.267-.562-.4-.408-.286-.822-.576-1.218-.891a12.643,12.643,0,0,0,.239,3.131,7.437,7.437,0,0,0,2.532,4.287,1,1,0,0,1-.621,1.785Z" transform="translate(-408.12 -166.961)" fill="#5bb3b3"/><path d="M413.3,179.261a1,1,0,0,1-.929-1.37,6.694,6.694,0,0,0-.793-5.021c-.382-.607-.82-1.183-1.284-1.794-.34-.447-.686-.9-1.013-1.376a19.57,19.57,0,0,0-2.3,3.993,2.691,2.691,0,0,0-.262,1.7,1,1,0,1,1-1.919.565,4.6,4.6,0,0,1,.321-3,26.136,26.136,0,0,1,3.413-5.649,1,1,0,0,1,1.693.121,18.1,18.1,0,0,0,1.656,2.435c.47.618.955,1.257,1.384,1.937,1.084,1.719,1.76,4.819.959,6.828A1,1,0,0,1,413.3,179.261Z" transform="translate(-390.047 -167.897)" fill="#5bb3b3"/><path d="M406,177.217a1,1,0,0,1-.867-1.5,7.624,7.624,0,0,0,.684-4.53l-.325.225c-.316.217-.615.423-.884.642a5.5,5.5,0,0,0-2.024,3.632,1,1,0,0,1-1.989-.209,7.509,7.509,0,0,1,2.751-4.974c.332-.27.679-.508,1.013-.738a6.706,6.706,0,0,0,1.45-1.2,1,1,0,0,1,1.771.488c.3,2.18.713,5.166-.713,7.656A1,1,0,0,1,406,177.217Z" transform="translate(-378.011 -167.498)" fill="#5bb3b3"/></g><path d="M411.925,191.087c-4.9,0-9.511-.068-12.983-.191-1.7-.06-3.034-.131-3.972-.209-.5-.042-.881-.086-1.154-.133a2.749,2.749,0,0,1-.436-.106,1.068,1.068,0,0,1-.765-1.01,1.174,1.174,0,0,1,.695-1.052,3.116,3.116,0,0,1,.876-.247,32.6,32.6,0,0,1,3.8-.265,1,1,0,0,1,1.03.969q0,.028,0,.055c3.016.108,7.348.189,12.907.189,5.716,0,10.134-.086,13.158-.2a1,1,0,0,1,1.034-.864c1.337.058,2.383.123,3.109.194.4.039.7.079.92.123a2.181,2.181,0,0,1,.389.109,1.047,1.047,0,0,1-.065,2,2.751,2.751,0,0,1-.436.106c-.273.047-.651.091-1.154.133-.938.079-2.275.149-3.972.209C421.436,191.019,416.825,191.087,411.925,191.087Z" transform="translate(-358.685 -133.716)" fill="#5bb3b3"/><path d="M411.925,223.315c-3.865,0-7.5-.058-10.239-.163-1.342-.052-2.4-.112-3.144-.18-.405-.037-.711-.075-.935-.117a2.275,2.275,0,0,1-.388-.1,1.061,1.061,0,0,1-.714-.873h0l-3.884-32.456a1,1,0,0,1,1.986-.238l3.8,31.767c1.547.168,6.189.363,13.516.363s11.967-.2,13.515-.363l3.8-31.767a1,1,0,1,1,1.986.238l-3.885,32.456h0a1.061,1.061,0,0,1-.714.873,2.275,2.275,0,0,1-.388.1c-.224.042-.529.08-.935.117-.744.068-1.8.128-3.144.18C419.426,223.257,415.79,223.315,411.925,223.315Z" transform="translate(-358.685 -133.583)" fill="#5bb3b3"/><path d="M391.568,193.094a1,1,0,0,1-.864-1.5c2.4-4.124,6.238-6.327,9.628-8.271a34.979,34.979,0,0,0,4.7-3.026,1,1,0,0,1,1.6,1.011,17.957,17.957,0,0,1-3.436,6.632,19.4,19.4,0,0,1-5.8,5.011,1,1,0,1,1-.943-1.764,17.363,17.363,0,0,0,5.178-4.49,18.738,18.738,0,0,0,1.93-2.952c-.723.442-1.472.872-2.239,1.312-3.327,1.907-6.767,3.88-8.893,7.54A1,1,0,0,1,391.568,193.094Z" transform="translate(-331.44 -136.117)" fill="#5bb3b3"/><path d="M399.052,192.785a1,1,0,0,1-.942-1.335,16.706,16.706,0,0,1,4.518-6.273,26.334,26.334,0,0,1,5.748-3.432,1,1,0,0,1,1.407.739,10.28,10.28,0,0,1-.46,5.181,1,1,0,1,1-1.883-.675,8.308,8.308,0,0,0,.487-2.807,21.692,21.692,0,0,0-4.033,2.541,14.626,14.626,0,0,0-3.9,5.394A1,1,0,0,1,399.052,192.785Z" transform="translate(-344.484 -135.63)" fill="#5bb3b3"/><path d="M412.638,192.973a1,1,0,0,1-.571-.18,15.011,15.011,0,0,1-3.943-4.457,11.938,11.938,0,0,1-1.915-5.525,2,2,0,0,1,.564-1.48,1.379,1.379,0,0,1,1.1-.359,1.7,1.7,0,0,1,1.047.585,22.439,22.439,0,0,0,5.578,3.78l4.132,2.241c1.188.645,2.815,1.528,3.478,3.122a1,1,0,0,1-1.847.767,5.481,5.481,0,0,0-2.585-2.132l-4.132-2.241a28.513,28.513,0,0,1-5.207-3.336,14.105,14.105,0,0,0,4.873,7.393,1,1,0,0,1-.572,1.821Z" transform="translate(-367.41 -135.841)" fill="#5bb3b3"/><path d="M424.648,192.461a1,1,0,0,1-.579-.186c-.312-.222-.7-.462-1.113-.717a17.128,17.128,0,0,1-4.458-3.6,25.294,25.294,0,0,1-2.513-3.582,2.289,2.289,0,0,1-.365-1.267,1.583,1.583,0,0,1,1.347-1.492,1.923,1.923,0,0,1,1.118.246,17.02,17.02,0,0,0,2.528.96,18.882,18.882,0,0,1,2.8,1.072,9.631,9.631,0,0,1,3.239,2.669,1,1,0,1,1-1.642,1.142,7.713,7.713,0,0,0-2.494-2.023,17.074,17.074,0,0,0-2.517-.954c-.609-.195-1.232-.394-1.865-.649a24.25,24.25,0,0,0,1.89,2.593,15.446,15.446,0,0,0,3.978,3.189c.441.272.858.529,1.224.79a1,1,0,0,1-.581,1.815Z" transform="translate(-384.361 -135.645)" fill="#5bb3b3"/><path d="M409.826,192.211a1,1,0,0,1-.8-1.593,14.82,14.82,0,0,0,1.19-13.931h0a19.88,19.88,0,0,0-3.846,3.558,10.077,10.077,0,0,0-1.677,4.451,17.945,17.945,0,0,0-.027,5.013,1,1,0,0,1-1.982.271,20,20,0,0,1,.031-5.587,11.89,11.89,0,0,1,2.049-5.34,21.363,21.363,0,0,1,4.226-3.945,3.042,3.042,0,0,1,.716-.428,1.65,1.65,0,0,1,1.261-.022,1.857,1.857,0,0,1,.929.924c2.461,4.655,1.9,11.934-1.26,16.222A1,1,0,0,1,409.826,192.211Z" transform="translate(-353.796 -137.817)" fill="#5bb3b3"/><path d="M400.065,187.782a1,1,0,0,1-.286-1.958,7.329,7.329,0,0,0,3.9-3.108,15.5,15.5,0,0,0,1.484-3.054,29.747,29.747,0,0,0-8.4,4.191,9.318,9.318,0,0,0-2.024,2.161,1,1,0,0,1-1.618-1.176,11.118,11.118,0,0,1,2.472-2.607,31.934,31.934,0,0,1,10.915-5.024,1,1,0,0,1,1.187,1.293,22.807,22.807,0,0,1-2.343,5.313,9.321,9.321,0,0,1-5,3.927A1,1,0,0,1,400.065,187.782Z" transform="translate(-335.604 -137.007)" fill="#5bb3b3"/><path d="M403.41,184.461a1,1,0,0,1-.844-1.534,12.583,12.583,0,0,0,1.568-9.036,12.486,12.486,0,0,1-1.087,1.213,9.707,9.707,0,0,1-1.2.947,6.293,6.293,0,0,0-1.133.928,4.359,4.359,0,0,0-.961,2.412,1,1,0,1,1-1.979.291,6.1,6.1,0,0,1,1.411-3.992,7.785,7.785,0,0,1,1.506-1.271,8.16,8.16,0,0,0,.955-.744,10.134,10.134,0,0,0,1.934-2.613,1,1,0,0,1,1.819.087,14.471,14.471,0,0,1,.924,6.537A14.081,14.081,0,0,1,404.256,184,1,1,0,0,1,403.41,184.461Z" transform="translate(-340.54 -139.056)" fill="#5bb3b3"/><path d="M413.366,188.76a1,1,0,0,1-.648-.239,17.077,17.077,0,0,1-3.626-5.3,16.317,16.317,0,0,1-1.33-3.695,17.359,17.359,0,0,1-.137-4.293,20.068,20.068,0,0,0,.007-3.073,1,1,0,0,1,1.625-.878l4.211,3.418a11.224,11.224,0,0,1,2.242,2.213c.711,1.025,1.475,2.515,1.083,3.79a1,1,0,1,1-1.912-.588,3.335,3.335,0,0,0-.815-2.063,9.587,9.587,0,0,0-1.859-1.8l-2.532-2.056c-.013.384-.033.764-.052,1.14a15.621,15.621,0,0,0,.1,3.8,14.644,14.644,0,0,0,1.182,3.239,14.471,14.471,0,0,0,3.109,4.62,1,1,0,0,1-.649,1.761Z" transform="translate(-363.888 -138.89)" fill="#5bb3b3"/><path d="M415.576,185.838a1,1,0,0,1-.706-.292,11.422,11.422,0,0,1-3.4-8.41,1,1,0,0,1,1.663-.715,13.138,13.138,0,0,0,4.8,2.508c.164.053.329.1.493.154a12.3,12.3,0,0,1,2.337.9,7.4,7.4,0,0,1,2.758,2.244,1,1,0,0,1-1.64,1.145,5.507,5.507,0,0,0-2.08-1.635,10.647,10.647,0,0,0-1.965-.746c-.171-.053-.342-.106-.512-.16a18.1,18.1,0,0,1-3.681-1.6,9.609,9.609,0,0,0,2.649,4.892,1,1,0,0,1-.706,1.708Z" transform="translate(-375.785 -137.316)" fill="#5bb3b3"/><path d="M417.283,182.407a1,1,0,0,1-.619-.215,9.436,9.436,0,0,1-3.246-5.431,17.6,17.6,0,0,1-.08-5.95,1,1,0,0,1,1.828-.422,8.621,8.621,0,0,0,2.335,2.069c.192.135.39.274.585.415l.149.107c1.28.923,3.032,2.187,3.349,3.841a1,1,0,0,1-1.964.376c-.167-.873-1.661-1.951-2.554-2.594l-.15-.108c-.183-.132-.376-.267-.562-.4-.408-.286-.822-.576-1.218-.891a12.643,12.643,0,0,0,.239,3.131,7.437,7.437,0,0,0,2.532,4.287,1,1,0,0,1-.621,1.785Z" transform="translate(-375.865 -139.234)" fill="#5bb3b3"/><path d="M413.3,179.261a1,1,0,0,1-.929-1.37,6.694,6.694,0,0,0-.793-5.021c-.382-.607-.82-1.183-1.284-1.794-.34-.447-.686-.9-1.013-1.376a19.57,19.57,0,0,0-2.3,3.993,2.691,2.691,0,0,0-.262,1.7,1,1,0,1,1-1.919.565,4.6,4.6,0,0,1,.321-3,26.136,26.136,0,0,1,3.413-5.649,1,1,0,0,1,1.693.121,18.1,18.1,0,0,0,1.656,2.435c.47.618.955,1.257,1.384,1.937,1.084,1.719,1.76,4.819.959,6.828A1,1,0,0,1,413.3,179.261Z" transform="translate(-357.792 -140.169)" fill="#5bb3b3"/><path d="M406,177.217a1,1,0,0,1-.867-1.5,7.624,7.624,0,0,0,.684-4.53l-.325.225c-.316.217-.615.423-.884.642a5.5,5.5,0,0,0-2.024,3.632,1,1,0,0,1-1.989-.209,7.509,7.509,0,0,1,2.751-4.974c.332-.27.679-.508,1.013-.738a6.706,6.706,0,0,0,1.45-1.2,1,1,0,0,1,1.771.488c.3,2.18.713,5.166-.713,7.656A1,1,0,0,1,406,177.217Z" transform="translate(-345.756 -139.77)" fill="#5bb3b3"/><g transform="translate(2.711 -6.871)"><path d="M29.584,40.547a24.564,24.564,0,0,1-8.751-1.714A43.1,43.1,0,0,1,8.685,31.414C3.1,26.6,1.1,22.379.4,19.689A11.263,11.263,0,0,1,2.965,9.1c2.75-3.241,7.244-5.675,13.355-7.233A68.475,68.475,0,0,1,32.7,0c1.361,0,2.71.035,4.008.105C47.645.691,59.915,3.127,74.222,7.553a162.71,162.71,0,0,1,22.23,8.865C103,19.551,109.975,23.3,117.786,27.877v5.372c-1.548-.921-3.11-1.865-4.619-2.779-8.359-5.055-17-10.283-26.652-13.537a129.35,129.35,0,0,0-41.371-6.355c-.459,0-.926,0-1.389.006h-.034c-.381,0-.927-.051-1.56-.11l-.378-.035c-.819-.075-1.691-.145-2.521-.145-2.332,0-3.493.575-3.549,1.759a.941.941,0,0,0,.274.717c.6.629,2.135.934,4.7.934,1.4,0,2.872-.094,4-.175l.887-.067c.794-.061,1.421-.109,1.77-.109h.035A133.5,133.5,0,0,1,69.2,15.372a103.368,103.368,0,0,1,37.687,14.46,15.662,15.662,0,0,1-5.948,7.087A16.294,16.294,0,0,1,92.155,39.4a19.141,19.141,0,0,1-4.308-.5,70.29,70.29,0,0,1-9.595-3.247A57.592,57.592,0,0,0,67.17,32.129a28.277,28.277,0,0,0-4.688-.388,33.538,33.538,0,0,0-9.335,1.4,79.2,79.2,0,0,0-9.269,3.5C39.174,38.647,34.734,40.547,29.584,40.547Z" transform="translate(279.502 251.604)" fill="#bfe2e2"/><path d="M29.584,41.047v0A25.053,25.053,0,0,1,20.657,39.3a43.628,43.628,0,0,1-12.3-7.509c-5.68-4.9-7.725-9.219-8.441-11.978A11.738,11.738,0,0,1,2.583,8.776C5.4,5.455,9.982,2.967,16.2,1.382A68.98,68.98,0,0,1,32.7-.5c1.37,0,2.728.036,4.035.106C47.713.194,60.023,2.637,74.369,7.075a163.2,163.2,0,0,1,22.3,8.892c6.557,3.139,13.548,6.894,21.371,11.479l.247.145v6.538l-.756-.45c-1.575-.937-3.194-1.917-4.622-2.78-8.336-5.041-16.956-10.254-26.553-13.491a128.852,128.852,0,0,0-41.211-6.329c-.456,0-.922,0-1.385.006h-.036c-.406,0-.962-.052-1.606-.112l-.379-.035c-.808-.074-1.666-.143-2.475-.143-2.989,0-3.035.966-3.05,1.283a.441.441,0,0,0,.136.348c.339.356,1.366.78,4.333.78,1.386,0,2.844-.093,3.959-.174l.885-.067h.006c.8-.061,1.435-.11,1.8-.11h.038A134,134,0,0,1,69.286,14.88a103.865,103.865,0,0,1,37.868,14.53l.36.228-.168.392a16.16,16.16,0,0,1-6.139,7.311,16.793,16.793,0,0,1-9.052,2.56,19.642,19.642,0,0,1-4.421-.515,70.639,70.639,0,0,1-9.662-3.267,57.245,57.245,0,0,0-10.985-3.5,27.777,27.777,0,0,0-4.605-.381,33.038,33.038,0,0,0-9.2,1.376,78.783,78.783,0,0,0-9.208,3.476C39.324,39.127,34.837,41.047,29.584,41.047ZM32.7.5A67.972,67.972,0,0,0,16.443,2.351C10.434,3.884,6.028,6.263,3.346,9.423A10.787,10.787,0,0,0,.885,19.563c.68,2.621,2.641,6.739,8.126,11.472a42.577,42.577,0,0,0,12,7.33,24.075,24.075,0,0,0,8.574,1.682c5.048,0,9.444-1.881,14.1-3.873a79.606,79.606,0,0,1,9.326-3.518,34.036,34.036,0,0,1,9.475-1.416,28.778,28.778,0,0,1,4.772.4,57.953,57.953,0,0,1,11.182,3.551,69.923,69.923,0,0,0,9.525,3.225,18.641,18.641,0,0,0,4.2.489,15.8,15.8,0,0,0,8.515-2.4,15.113,15.113,0,0,0,5.584-6.474,102.909,102.909,0,0,0-37.14-14.159,132.993,132.993,0,0,0-21.748-2.011h-.033c-.327,0-.943.047-1.724.107H45.6l-.889.067c-1.132.082-2.614.177-4.032.177-2.741,0-4.348-.346-5.057-1.089a1.442,1.442,0,0,1-.411-1.085,1.991,1.991,0,0,1,1.2-1.748,6.538,6.538,0,0,1,2.85-.488c.849,0,1.735.071,2.566.147l.379.035c.621.058,1.156.108,1.513.108h.031c.464,0,.933-.006,1.391-.006A129.847,129.847,0,0,1,86.674,16.46c9.7,3.271,18.369,8.513,26.751,13.583,1.2.725,2.532,1.532,3.861,2.326v-4.2c-7.7-4.505-14.587-8.2-21.05-11.295A162.222,162.222,0,0,0,74.074,8.031C59.807,3.617,47.576,1.188,36.682.6,35.392.535,34.053.5,32.7.5Z" transform="translate(279.502 251.604)" fill="rgba(0,0,0,0)"/><path d="M43.063,126.388h0A62.2,62.2,0,0,1,30.73,115.881,96.9,96.9,0,0,1,20.468,102.4,136.925,136.925,0,0,1,6.7,73.58,130.845,130.845,0,0,1,2.784,59.2,126.675,126.675,0,0,1,.252,41.854,76.878,76.878,0,0,1,.775,24.462,35.77,35.77,0,0,1,6.031,9.952a21.651,21.651,0,0,1,7.438-6.9A25.712,25.712,0,0,1,24.663.046C25.252.016,25.856,0,26.457,0A39.681,39.681,0,0,1,43.063,3.742v70.9c-.06-.064-.124-.131-.2-.212-1.171-1.17-2-1.763-2.469-1.763a.38.38,0,0,0-.341.182c-.3.473-.04,1.849.77,4.09.782,2.163,1.83,4.44,2.244,5.318v44.134Z" transform="translate(354.225 142.185)" fill="#bfe2e2"/><path d="M43.563,127.323l-.774-.517a62.7,62.7,0,0,1-12.427-10.587,97.4,97.4,0,0,1-10.315-13.555A137.44,137.44,0,0,1,6.225,73.74,131.35,131.35,0,0,1,2.3,59.307,127.174,127.174,0,0,1-.247,41.89,77.374,77.374,0,0,1,.282,24.383,36.261,36.261,0,0,1,5.616,9.672a22.147,22.147,0,0,1,7.61-7.058A26.206,26.206,0,0,1,24.636-.453c.6-.031,1.211-.047,1.822-.047A40.191,40.191,0,0,1,43.277,3.29l.286.135v72.48L42.7,74.98c-.067-.072-.127-.134-.194-.2-1.327-1.326-1.884-1.565-2.056-1.607-.054.2-.1.98.841,3.593.775,2.143,1.815,4.4,2.226,5.275l.048.1ZM26.457.5c-.593,0-1.188.015-1.769.045A25.217,25.217,0,0,0,13.712,3.488a21.156,21.156,0,0,0-7.267,6.744A35.281,35.281,0,0,0,1.269,24.54,76.381,76.381,0,0,0,.75,41.818,126.175,126.175,0,0,0,3.273,59.1a130.335,130.335,0,0,0,3.9,14.321A136.41,136.41,0,0,0,20.89,102.126,96.4,96.4,0,0,0,31.1,115.542a62.617,62.617,0,0,0,11.465,9.928v-43.1c-.446-.949-1.454-3.156-2.214-5.259-1.157-3.2-.994-4.1-.722-4.528a.875.875,0,0,1,.763-.414c.366,0,.939.161,2.173,1.287V4.06A39.188,39.188,0,0,0,26.457.5Z" transform="translate(354.225 142.185)" fill="rgba(0,0,0,0)"/></g><g transform="translate(0 114.49)"><path d="M13.764.021C20.7.388,28.806,5.31,28.754,12.885c-.038,5.5-.774,10.918-.519,16.445a44.284,44.284,0,0,0,2.657,12.9c1.435,4,4.9,7.642,5.462,11.814a17.546,17.546,0,0,1-1.514,8.711c-1.382,2.971-.794,2.787,1.042,5.6A70.593,70.593,0,0,1,44.649,85.77c2.873,9.118,4.286,19.572,1.876,28.969-.306,1.193-.976,5.521-2.677,5.649-1.9.144-.767-2.252-.583-3.045,1.173-5.061,2.208-9.484,1.99-14.772-.84-20.4-13.863-35.156-21.456-53.2-.424-.934-1.293-3.142-1.9-4.6-.966-2.307-1.732-6.583-3.181-8.371-2.728-3.367-.569,3.053-.1,4.284.6,1.558,1.257,3.217,1.89,4.594,2.89,6.378,6.131,13.349,9.117,19.924-16.106,1.931-25.2-18.143-28.11-31.019C-.889,23.578-2.533-.806,13.764.021" transform="matrix(0.995, -0.105, 0.105, 0.995, 0, 60.033)" fill="#bfe2e2"/><path d="M51.717.062c-11.594.92-19.037,8.57-22.5,19.27C27.348,25.1,27.134,31.022,26.1,36.948c-1.561,8.916-4.92,15.672-11.484,22.024a22.166,22.166,0,0,0-4.6,6.148A26.186,26.186,0,0,0,4.709,72.7c-1.727,3.812-2.216,8.386-.222,12.186a12.492,12.492,0,0,0,3.26,4A78.482,78.482,0,0,0,.025,124.147c.194,7.3.551,14.6.966,21.89.112,1.957.749,5.19,1.707,1.907.876-3-.223-7.716-.324-10.853-.495-15.281-.918-29.175,5.373-43.452q.989-2.245,2.087-4.453a1.479,1.479,0,0,0,.123-.084c.028.021.053.044.081.065.047-.083.11-.182.185-.292a3.938,3.938,0,0,0,.565-.792A5.743,5.743,0,0,0,11.979,85.9s0-.01,0-.014a205.719,205.719,0,0,1,12.91-18.252c-.034.043,4.942-6.732,4.172-2.985-.371,1.806-4.031,5.244-5.509,7.156a178.293,178.293,0,0,0-10.3,14.859,7.5,7.5,0,0,0-1.475,2.361c-.242.457-.468.918-.69,1.32,11.306,3.736,20.1-3.789,26.1-12.541l.021-.031a38.03,38.03,0,0,1,6.03-6.731c3.9-3.19,8.07-3.753,12.664-5.323,12.529-4.281,17.856-20.518,19.548-32.567C77.354,19.564,68.018-1.279,51.717.062" transform="translate(54.929 39.427)" fill="#bfe2e2"/><path d="M49.828,1.159C36.321,11.767,28.237,27.977,21.482,43.335,13.938,60.488,8.063,78.157,5.326,96.708,3.528,108.9,1.47,121.126.47,133.413A130.95,130.95,0,0,0,.021,146.55c.007.36.2,10.135,1.98,8.114,1.013-1.149-.179-10.138-.159-11.6a188,188,0,0,1,2.226-24.632c1.973-13.445,3.458-26.889,6.706-40.1a45.813,45.813,0,0,1,1.692-5.945c.8-2.011.027-1.193,1.787-1.786,1.71-.577,3.669-.185,5.468-.957,7.137-3.063,11.94-12.834,15.5-19.186a130.03,130.03,0,0,0,9.637-23.088,170.719,170.719,0,0,0,4.774-17.55,46.989,46.989,0,0,1,1.324-5.673A13.119,13.119,0,0,0,51.8,2.382C51.9,1.434,51.406.8,51.471,0q-.833.562-1.643,1.159" transform="translate(34.24 7.211) rotate(-8)" fill="#bfe2e2"/><path d="M0,0A37.084,37.084,0,1,0,74.167,0" transform="translate(18.862 166.426)" fill="#bfe2e2"/><path d="M38.853,46.228a5.693,5.693,0,0,1-3.886-1.366A7.8,7.8,0,0,1,32.873,41.5a28.991,28.991,0,0,1-1.1-8.357,33.825,33.825,0,0,0-1.2-9.012,16.221,16.221,0,0,0-1.81-3.946,15.941,15.941,0,0,0-3.072-3.524c-.627-.542-1.3-1.058-1.942-1.557-.577-.445-1.173-.905-1.737-1.382l-.27-.227c-1.814-1.524-3.69-3.1-3.92-5.593a3.881,3.881,0,0,1,.663-3.027,2.871,2.871,0,0,1,2.246-.8,9.24,9.24,0,0,1,1.909.234c.1.022.37.124.743.265a14.582,14.582,0,0,0,3.8,1.079c.292,0,.484-.066.57-.2a.567.567,0,0,0-.025-.531c-.219-.526-.972-.991-2.238-1.382-2.546-.277-4.951-.526-6.383-.526a4.74,4.74,0,0,0-.926.066,14.037,14.037,0,0,0-6.832,3.808,24.263,24.263,0,0,0-4.715,6.8A51.942,51.942,0,0,0,2.259,29.582c-.108.92-.206,1.917-.3,3.048H0a66.121,66.121,0,0,1,.727-7.343,47.137,47.137,0,0,1,5.18-15.152,22.487,22.487,0,0,1,5.062-6.159A14.074,14.074,0,0,1,17.994.824,10.4,10.4,0,0,1,19.126.782c.737,0,1.625.028,2.5.079A6.521,6.521,0,0,1,24.4.043C24.786.014,25.184,0,25.58,0a20.12,20.12,0,0,1,6.685,1.225A28.793,28.793,0,0,1,38.65,4.472,33.32,33.32,0,0,1,44.168,9.1a27.987,27.987,0,0,1,4.084,5.374A20.738,20.738,0,0,1,50.8,24.816a33.477,33.477,0,0,1-1.783,10.631,24.341,24.341,0,0,1-3.574,7.024c-1.918,2.465-4.1,3.729-6.5,3.756Z" transform="translate(56.961 133.914)" fill="#bfe2e2"/></g><g transform="translate(-5.984 -9.386)"><g transform="translate(194.847 91.739)"><g transform="translate(7.934 19.836)"><path d="M0,0,10.146,47.09C4.488,53.7.658,61.809,1.3,70.891c1.845,26.168,38.426,20.411,45.541,7.2s6.271-46.709-2.925-49.07c-3.668-.941-11.481,1.364-19.433,6.137L29.471,0Z" transform="translate(51.574 89.263) rotate(180)" fill="#b28b67"/></g><path d="M5.33,29.19a9.16,9.16,0,0,0,1.91-3.549,35.894,35.894,0,0,0,1.223-4.03c.615-2.747.621-5.906-1.338-8.039a9.218,9.218,0,0,0-6.106-2.644,11.22,11.22,0,0,0-4.329.549c-1.379.453-2.568,1.357-3.9,1.917a17.471,17.471,0,0,0-2.06-8.585A8.559,8.559,0,0,0-15.649.652a12.637,12.637,0,0,0-7.764,1.564c-.6.327-1.2.669-1.774,1.056a4.972,4.972,0,0,1-1.54.847c-.627.147-.937-.215-1.345-.672a10.22,10.22,0,0,0-1.585-1.427,9.339,9.339,0,0,0-8.739-1.5,8.12,8.12,0,0,0-3.563,2.575c-.813,1.066-1.393,2.758-2.514,3.5-.476.315-.812-.1-1.246-.411-.651-.464-1.272-.976-1.931-1.427a8.844,8.844,0,0,0-3-1.357c-1.571-.363-3.742-.278-4.191,1.779a8.493,8.493,0,0,0,.015,2.378c.075,1.069.153,2.138.246,3.206a23.152,23.152,0,0,0,.313,2.39,3.5,3.5,0,0,1,.155,1.64c-.227.531-1.277.229-1.725.248a6.818,6.818,0,0,0-2.594.57A2.791,2.791,0,0,0-60,17.06a2.609,2.609,0,0,0-.044,1.366,4.073,4.073,0,0,1-.083,1.4c-1.189-.586-5.311-1.887-5.83.245a3.335,3.335,0,0,0,.521,2.11,18.292,18.292,0,0,0,1.921,2.925A26.149,26.149,0,0,0-58.4,30.071a3.354,3.354,0,0,0-.875,5.617,4.155,4.155,0,0,0,3.052.885,6.746,6.746,0,0,1,1.261-.1,3.017,3.017,0,0,0,.572.192,17.01,17.01,0,0,0,4.68-.594,15.432,15.432,0,0,0,7.138-3.733,2.2,2.2,0,0,1,1.651-.758c.614.006,1.216.175,1.829.19,1.623.041,3.086-.752,4.593-1.28a17.329,17.329,0,0,0,1.5,6.109c.679,1.493,2.1,1.71,3.49,1.841,4.456.419,8.927-.049,13.389-.042-4.319.976-8.782,1.379-13.062,2.527-1.935.519-.457,1.823.37,2.727a15.718,15.718,0,0,1,3.078,5.276c2.113-2.754,5.847-4.569,9.155-3.722,3.655.935,6.23,5.878,3.892,9.432-1.357,2.063-3.808,2.86-5.847,3.746,1.591,1.654,1.976,4.1,2.933,6.154A4.4,4.4,0,0,0-13.4,67.055a2.562,2.562,0,0,1,1.157.461c.382.394.473.835.96,1.174a5.415,5.415,0,0,0,6.71-.517c1.56-1.6,1.154-4.123-.149-5.742,2.073-.864,5.851-1.976,5.027-5.206,4.493-.3,15.4-7.585,9.371-12.91,3.309-1.87,6.35-6.441,4.224-10.471-1.637-3.1-5.444-4.49-8.567-4.654" transform="translate(66 0)" fill="#2e3e5a"/></g><path d="M0,18.656,45.606,38.684Q57.589,50.625,68.749,56.836c2.225.708,6.026.922,1.97-5S62.665,39.5,64.286,37.424s6.314.215,8.169-3.16q1.854-3.376-23.736-8.076L14.562,0Z" transform="translate(150.114 298.618) rotate(180)" fill="#b28b67"/><path d="M14.473-.7,48.927,25.717c20.1,3.7,23.325,6.016,24,7.439a1.428,1.428,0,0,1-.035,1.348c-1.176,2.141-3.4,2.263-5.179,2.362-1.322.073-2.464.136-3.033.866-.411.527-.547,1.862,1.142,5.231a81.282,81.282,0,0,0,5.311,8.59c1.671,2.441,2.217,4.132,1.669,5.171a2.073,2.073,0,0,1-2.039.967,7.617,7.617,0,0,1-2.165-.378L68.55,57.3l-.044-.024C61.081,53.141,53.281,47.029,45.319,39.1L-.79,18.855Zm56.29,57.389c.422,0,.965-.075,1.154-.433.16-.3.324-1.315-1.61-4.14a82.135,82.135,0,0,1-5.38-8.707c-1.587-3.167-1.916-5.167-1.036-6.295.849-1.088,2.332-1.17,3.767-1.249,1.774-.1,3.449-.19,4.358-1.845a.431.431,0,0,0,.008-.437c-.239-.5-1.383-1.57-6.366-3.076a167.686,167.686,0,0,0-17.031-3.83l-.118-.022L14.651.7.79,18.456l45.1,19.807.066.066c7.9,7.875,15.638,13.946,22.99,18.045A6.374,6.374,0,0,0,70.763,56.691Z" transform="translate(150.114 298.618) rotate(180)" fill="rgba(0,0,0,0)"/><path d="M0,124.353l10.679,2.808C36.3,106.319,50.75,52.127,67.125,46.219c15.482-5.586,35.992,2.925,60.276,14.118l9.179-16.483C115.957,17.215,69.247-7.853,48.536,2.313,15.423,18.566,2.223,85.808,0,124.353Z" transform="matrix(-0.996, 0.087, -0.087, -0.996, 249.439, 312.862)" fill="#708daf"/><path d="M10.8,127.709-.523,124.732l.024-.408a299.989,299.989,0,0,1,3.872-33.1,261.548,261.548,0,0,1,8.836-36.405c4.174-12.8,9.108-23.654,14.666-32.271a71.4,71.4,0,0,1,9.809-12.262A45.154,45.154,0,0,1,48.316,1.864,26.236,26.236,0,0,1,59.918-.5a61.67,61.67,0,0,1,19.5,3.717,120.1,120.1,0,0,1,21.272,9.845c14.6,8.455,27.83,19.567,36.283,30.485l.2.261-9.565,17.176-.421-.194c-10.286-4.741-18.755-8.461-26.659-11.207A97.87,97.87,0,0,0,88.684,46.2a51.833,51.833,0,0,0-10.77-1.238A30.814,30.814,0,0,0,67.3,46.689a15.794,15.794,0,0,0-5.736,4.041,50.452,50.452,0,0,0-5.834,7.5C51.788,64.205,47.753,71.9,43.482,80.045c-9.034,17.228-19.274,36.755-32.487,47.5ZM.523,123.973l10.037,2.639C23.52,115.959,33.652,96.637,42.6,79.58c8.691-16.573,16.2-30.886,24.36-33.832a31.8,31.8,0,0,1,10.958-1.791,52.814,52.814,0,0,1,10.977,1.26,98.85,98.85,0,0,1,11.971,3.422c7.833,2.722,16.2,6.389,26.328,11.05l8.793-15.79c-8.385-10.737-21.41-21.646-35.791-29.972A119.094,119.094,0,0,0,79.1,4.163,60.689,60.689,0,0,0,59.918.5,25.255,25.255,0,0,0,48.756,2.762c-7.7,3.779-14.778,10.618-21.041,20.327C22.2,31.634,17.307,42.413,13.16,55.128a260.552,260.552,0,0,0-8.8,36.265A299.547,299.547,0,0,0,.523,123.973Z" transform="matrix(-0.996, 0.087, -0.087, -0.996, 249.439, 312.862)" fill="rgba(0,0,0,0)"/><path d="M99.746,147.114H3.446c-4.4,0-3.571-6.515-2.935-9.8,7.341-37.941,36-78.839,36-132.846L64.288,0C87.263,37.886,95.208,84.532,99.746,147.114Z" transform="translate(186.3 182.272)" fill="#e4e6ea"/><path d="M100.283,147.614H3.446A3.4,3.4,0,0,1,.683,146.4c-1.311-1.589-1.534-4.677-.663-9.179C2.772,123,8.514,108.348,14.594,92.838c5.141-13.115,10.457-26.676,14.537-41.307A194.3,194.3,0,0,0,34.1,28.837,160.158,160.158,0,0,0,36.011,4.466V4.04L64.541-.547l.175.288A182.065,182.065,0,0,1,79.35,29.992,249.753,249.753,0,0,1,89.419,64.187c2.612,11.661,4.771,24.354,6.6,38.8,1.623,12.823,3.005,27.244,4.226,44.087ZM37.01,4.892a161.349,161.349,0,0,1-1.922,24.1A195.284,195.284,0,0,1,30.094,51.8C26,66.479,20.675,80.065,15.525,93.2,9.463,108.669,3.736,123.277,1,137.407c-.8,4.136-.644,7.024.452,8.353a2.417,2.417,0,0,0,1.992.855H99.208c-1.21-16.6-2.579-30.829-4.182-43.5C93.2,88.7,91.048,76.035,88.443,64.405A248.767,248.767,0,0,0,78.415,30.346,181.221,181.221,0,0,0,64.034.547Z" transform="translate(186.3 182.272)" fill="rgba(0,0,0,0)"/><path d="M117.973,182.5h-5.014Q19.5,124.91,0,3.954L20.185,0q20.6,24,51.068,79.313Q72.618,81.791,74,84.331C67.346,60.556,62.418,35.819,60.878,12.586h83.7C161.362,54.995,123.957,182.5,123.957,182.5Z" transform="translate(365.339 364.772) rotate(180)" fill="#96b7df"/><path d="M124.332,183H112.818l-.121-.074a249.8,249.8,0,0,1-22.253-15.419A233.392,233.392,0,0,1,70.5,150.1a226.471,226.471,0,0,1-17.625-19.391,228.754,228.754,0,0,1-15.309-21.375A240.341,240.341,0,0,1,24.577,85.979,261.675,261.675,0,0,1,13.9,60.642c-3.157-8.734-5.968-17.924-8.357-27.316S1.126,14.08-.494,4.033l-.077-.477,20.945-4.1.19.221C27.413,7.653,35.19,18.383,43.679,31.568c8.479,13.169,17.9,29.152,28.012,47.5l.692,1.259c-2.958-10.95-5.428-21.69-7.354-31.983a305.649,305.649,0,0,1-4.651-35.728l-.035-.533h84.578l.125.316c2.019,5.1,3.354,11.7,3.965,19.622a180.731,180.731,0,0,1-.074,25.034c-1.016,15.873-3.669,34.877-7.884,56.484-2.069,10.607-5.663,27.631-11.029,48.5-3.209,12.48-5.563,20.522-5.587,20.6ZM113.1,182h10.481c.49-1.692,2.65-9.232,5.475-20.217,2.959-11.5,7.271-29.247,11.016-48.44,4.207-21.563,6.854-40.523,7.867-56.352,1.249-19.524,0-34.292-3.7-43.9H61.412a305.636,305.636,0,0,0,4.6,35.077c2.162,11.557,5.012,23.68,8.471,36.033l1.188,4.242L73.563,84.57c-.918-1.685-1.843-3.372-2.748-5.016C60.717,61.222,51.3,45.259,42.838,32.109A297.6,297.6,0,0,0,19.995.547L.571,4.351c1.6,9.853,3.6,19.516,5.945,28.728C8.9,42.439,11.7,51.6,14.844,60.3a260.675,260.675,0,0,0,10.633,25.24A239.335,239.335,0,0,0,38.414,108.8a227.749,227.749,0,0,0,15.242,21.281A225.465,225.465,0,0,0,71.2,149.388a232.4,232.4,0,0,0,19.855,17.33A248.755,248.755,0,0,0,113.1,182Z" transform="translate(365.339 364.772) rotate(180)" fill="rgba(0,0,0,0)"/></g></g></svg>