<svg xmlns="http://www.w3.org/2000/svg" xmlns:xlink="http://www.w3.org/1999/xlink" width="32" height="32" viewBox="0 0 32 32"><defs><clipPath id="a"><path d="M16-4A16,16,0,0,0,32-20,16,16,0,0,0,16-36,16,16,0,0,0,0-20,16,16,0,0,0,16-4Z" fill="none" clip-rule="evenodd"/></clipPath><clipPath id="b"><path d="M0-4H32V-36H0Z" fill="none"/></clipPath><clipPath id="c"><path d="M19.173-17.929H8v-3H19.171L15.02-25.078,16.929-27,24-19.429l-7.071,7.572L15.02-13.766Z" fill="#2e6cb9" clip-rule="evenodd"/></clipPath><clipPath id="d"><path d="M8-11H24V-28H8Z" fill="#2e6cb9"/></clipPath></defs><g transform="translate(-852 -2331)"><g transform="translate(852 2367)" clip-path="url(#a)"><g clip-path="url(#b)"><path d="M-5-41H37V1H-5Z" fill="#fff"/></g></g><g transform="translate(852 2366)" clip-path="url(#c)"><g clip-path="url(#d)"><path d="M3-32H29V-6.857H3Z" fill="#2e6cb9"/></g></g></g></svg>