<svg xmlns="http://www.w3.org/2000/svg" xmlns:xlink="http://www.w3.org/1999/xlink" width="24" height="24" viewBox="0 0 24 24"><defs><clipPath id="a"><path d="M1066.325-109.622l-.491.491-2.048-2.047a8.732,8.732,0,0,0-.9-11.269,8.664,8.664,0,0,0-6.167-2.554,8.663,8.663,0,0,0-6.166,2.554,8.728,8.728,0,0,0,0,12.331,8.663,8.663,0,0,0,6.166,2.554,8.654,8.654,0,0,0,5.105-1.65l2.047,2.046-.492.491,5.675,5.674,2.949-2.949Zm-13.809-2.459a5.946,5.946,0,0,1,0-8.4,5.9,5.9,0,0,1,4.2-1.739,5.9,5.9,0,0,1,4.2,1.739,5.944,5.944,0,0,1,0,8.4,5.9,5.9,0,0,1-4.2,1.739A5.9,5.9,0,0,1,1052.516-112.081Z" fill="none" clip-rule="evenodd"/></clipPath><clipPath id="b"><path d="M1048-101h24v-24h-24Z" fill="none"/></clipPath></defs><g transform="translate(-1048 125)" clip-path="url(#a)"><g clip-path="url(#b)"><path d="M1043-130h34v34h-34Z" fill="#fff"/></g></g></svg>