<svg xmlns="http://www.w3.org/2000/svg" width="400" height="320" viewBox="0 0 400 320"><g id="aa131092-a989-4703-a8bd-0b49d98a129b" data-name="Background lines"><rect id="e959d832-de29-46d2-b755-e9466526a146" data-name="Rectangle 1539" x="92.25" y="124.53" width="106.42" height="62.98" style="fill:#c0e2e2"/><line id="b99d7864-4f01-4541-be40-04c47383e755" data-name="Line 705" x1="72.48" y1="191.4" x2="1.35" y2="191.4" style="fill:none;stroke:#58b3b2;stroke-linecap:round;stroke-linejoin:round;stroke-width:2px"/><g id="e9581a42-770e-4613-a344-6d3fe917a954" data-name="Group 9669"><line id="b43d0b4c-a2e9-4486-9df6-870eb945b8f8" data-name="Line 707" x1="398.4" y1="245.11" x2="1.35" y2="245.11" style="fill:none;stroke:#58b3b2;stroke-linecap:round;stroke-linejoin:round;stroke-width:2px"/></g><g id="ae4c9b70-4618-44a0-b3e6-64a1a4f4907b" data-name="Group 9793"><path id="bbe9a70f-faa2-424a-b716-5aa9bf6eda52" data-name="Rectangle 1492" d="M396.19,213.12H336.73a11.55,11.55,0,0,1,11.55-11.55h36.37a11.55,11.55,0,0,1,11.54,11.55Z" style="fill:none;stroke:#58b3b2;stroke-linecap:round;stroke-linejoin:round;stroke-width:2px"/><g id="a925b4f8-f4f4-4f4c-a13f-eedbec2cd769" data-name="Group 9691"><line id="fb79c0eb-cfec-4d4c-9b8c-bdafb574687f" data-name="Line 729" x1="364.65" y1="197.07" x2="374.96" y2="164.2" style="fill:none;stroke:#58b3b2;stroke-linecap:round;stroke-linejoin:round;stroke-width:2px"/><line id="b6a3d555-9a6c-463f-95f4-1c0b5f01b7dd" data-name="Line 730" x1="371.09" y1="197.07" x2="380.89" y2="165.82" style="fill:none;stroke:#58b3b2;stroke-linecap:round;stroke-linejoin:round;stroke-width:2px"/></g><g id="ec76ece7-8e87-4b52-bd38-017c6764c39e" data-name="Group 9692"><path id="adfe86b3-c766-4847-b4d0-aaf9147429a7" data-name="Path 7499" d="M374.68,150.41l-12-33.28h-3.5" style="fill:none;stroke:#58b3b2;stroke-linecap:round;stroke-linejoin:round;stroke-width:2px"/><path id="f0e4f08e-0b90-4683-b067-bb4897bd8a7e" data-name="Path 7500" d="M380.59,148.73l-13.95-37h-9.58" style="fill:none;stroke:#58b3b2;stroke-linecap:round;stroke-linejoin:round;stroke-width:2px"/></g><circle id="edc2e8bd-1628-48e9-8ad0-fcf75342a5d3" data-name="Ellipse 51" cx="380.25" cy="157.16" r="4.1" style="fill:none;stroke:#58b3b2;stroke-linecap:round;stroke-linejoin:round;stroke-width:2px"/><g id="b582e223-7238-477e-89d8-2285b2018083" data-name="Group 9693"><path id="a3b8f95a-765b-46c3-947d-342e9a59ac1d" data-name="Path 7501" d="M318.58,104.33a23.32,23.32,0,1,1,26.47,38.4h0Z" style="fill:none;stroke:#58b3b2;stroke-linecap:round;stroke-linejoin:round;stroke-width:2px"/><path id="edf8a81d-6c37-4d6e-a8da-c11a302dbc23" data-name="Path 7502" d="M327.48,117.13a7.89,7.89,0,0,0,8.71,12.75" style="fill:none;stroke:#58b3b2;stroke-linecap:round;stroke-linejoin:round;stroke-width:2px"/></g></g><g id="e1cff6c0-e49c-4d0c-a651-a6f1066d0716" data-name="Group 9795"><path id="f8d5cd65-9f07-4746-b38c-5e30d5b627ca" data-name="Path 7505" d="M85.82,182.78V122.33a5.27,5.27,0,0,1,5.27-5.27H200.7a5.27,5.27,0,0,1,5.27,5.27v60.45" style="fill:none;stroke:#58b3b2;stroke-linecap:round;stroke-linejoin:round;stroke-width:2px"/><path id="ec48e752-30df-461a-84cb-d64f6c4919bf" data-name="Path 7506" d="M92.72,182.78V124H199.07v58.82" style="fill:none;stroke:#58b3b2;stroke-linecap:round;stroke-linejoin:round;stroke-width:2px"/><path id="f365e23b-6909-4dfd-a34a-228c7d51015d" data-name="Rectangle 1494" d="M131.34,188h29.1a3.47,3.47,0,0,1-3.47,3.47H134.82a3.48,3.48,0,0,1-3.48-3.47Z" style="fill:none;stroke:#58b3b2;stroke-linecap:round;stroke-linejoin:round;stroke-width:2px"/><path id="bc13da75-8457-48df-ab1f-5ac028dacf54" data-name="Rectangle 1495" d="M75.65,188H216.13a8.3,8.3,0,0,1-8.3,8.3H84a8.31,8.31,0,0,1-8.3-8.3Z" style="fill:none;stroke:#58b3b2;stroke-linecap:round;stroke-linejoin:round;stroke-width:2px"/></g><line id="a1c2b07c-c34f-4589-832f-e7990d7b65bb" data-name="Line 704" x1="397.76" y1="191.4" x2="374.96" y2="191.4" style="fill:none;stroke:#58b3b2;stroke-linecap:round;stroke-linejoin:round;stroke-width:2px"/><line id="a366b7ce-1f28-404f-a29c-3eb2e8c79e21" data-name="Line 767" x1="364.6" y1="191.4" x2="217.79" y2="191.4" style="fill:none;stroke:#58b3b2;stroke-linecap:round;stroke-linejoin:round;stroke-width:2px"/><g id="accc47fd-a826-421f-bd28-4675ab3a1e69" data-name="Group 9672"><line id="f4ed9b80-52ee-4ace-938d-db72dec706f9" data-name="Line 708" x1="142.72" y1="94.33" x2="2.12" y2="94.33" style="fill:none;stroke:#58b3b2;stroke-linecap:round;stroke-linejoin:round;stroke-width:2px"/></g><g id="a2366928-5e24-452e-bac2-687139913333" data-name="Group 9674"><rect id="b5c3dfdd-32cb-4ac2-aae3-ccb89e50dce4" data-name="Rectangle 1484" x="77.57" y="32.7" width="12.5" height="56.56" rx="2.74" style="fill:none;stroke:#58b3b2;stroke-linecap:round;stroke-linejoin:round;stroke-width:2px"/><g id="bf5d7471-a4bf-44fc-9749-69ff9aac2ba7" data-name="Group 9673"><line id="bba242cb-0c22-4d68-b3e1-6270263c8475" data-name="Line 710" x1="86.11" y1="58.38" x2="81.54" y2="58.38" style="fill:none;stroke:#58b3b2;stroke-linecap:round;stroke-linejoin:round;stroke-width:2px"/><line id="ffd06e04-2e71-4005-8531-d51e15b081dd" data-name="Line 711" x1="86.11" y1="63.49" x2="81.54" y2="63.49" style="fill:none;stroke:#58b3b2;stroke-linecap:round;stroke-linejoin:round;stroke-width:2px"/></g></g><g id="b5b4826f-2d07-4e3a-b221-187b045a2d2d" data-name="Group 9676"><rect id="b9a3949d-c764-467d-bb91-a70d2e09ec8e" data-name="Rectangle 1485" x="29.93" y="54.74" width="56.55" height="12.5" rx="2.74" transform="translate(-17.15 98.77) rotate(-72.96)" style="fill:none;stroke:#58b3b2;stroke-linecap:round;stroke-linejoin:round;stroke-width:2px"/><g id="ff79aedb-fa4d-4c0a-b356-5874665f786b" data-name="Group 9675"><line id="af70b8dc-2311-417c-932d-7c46a203fcd4" data-name="Line 712" x1="61.15" y1="59.16" x2="56.78" y2="57.83" style="fill:none;stroke:#58b3b2;stroke-linecap:round;stroke-linejoin:round;stroke-width:2px"/><line id="bf9385d8-06dc-4fb6-bd10-ff70583cd876" data-name="Line 713" x1="59.65" y1="64.05" x2="55.28" y2="62.71" style="fill:none;stroke:#58b3b2;stroke-linecap:round;stroke-linejoin:round;stroke-width:2px"/></g></g><g id="e53b74c8-1479-471d-aef4-1d67919322fb" data-name="Group 9678"><rect id="b02f2e26-0554-4c80-9a5b-10bec11d6875" data-name="Rectangle 1486" x="94.83" y="32.7" width="12.5" height="56.56" rx="2.74" style="fill:none;stroke:#58b3b2;stroke-linecap:round;stroke-linejoin:round;stroke-width:2px"/><g id="e8c365af-8477-49a3-847b-c09284431cd7" data-name="Group 9677"><line id="f040cb46-eb21-44a5-9906-72f080c462b0" data-name="Line 714" x1="103.36" y1="58.38" x2="98.79" y2="58.38" style="fill:none;stroke:#58b3b2;stroke-linecap:round;stroke-linejoin:round;stroke-width:2px"/><line id="ac376e0f-e645-43ff-a1c1-0676054cfa57" data-name="Line 715" x1="103.36" y1="63.49" x2="98.79" y2="63.49" style="fill:none;stroke:#58b3b2;stroke-linecap:round;stroke-linejoin:round;stroke-width:2px"/></g></g><g id="a8073661-150b-4dc3-9c9f-82b0399d65be" data-name="Group 9681"><rect id="a3dccd5a-3a52-46b1-afed-3e7ed4477046" data-name="Rectangle 1487" x="130.22" y="32.7" width="12.5" height="56.56" rx="2.74" style="fill:none;stroke:#58b3b2;stroke-linecap:round;stroke-linejoin:round;stroke-width:2px"/><rect id="a90d4abf-38ca-4211-8b4e-a042fa7bf930" data-name="Rectangle 1488" x="112.09" y="32.7" width="12.5" height="56.56" rx="2.74" style="fill:none;stroke:#58b3b2;stroke-linecap:round;stroke-linejoin:round;stroke-width:2px"/><g id="bfd66ca8-be6d-43b2-bcbb-63281d7a12b7" data-name="Group 9679"><line id="b1fdb407-2f6f-4d64-a8b1-ca62bc4ce357" data-name="Line 716" x1="138.76" y1="58.38" x2="134.19" y2="58.38" style="fill:none;stroke:#58b3b2;stroke-linecap:round;stroke-linejoin:round;stroke-width:2px"/><line id="b2b5d8c5-5d53-4c84-b1b5-f7827dcb9113" data-name="Line 717" x1="138.76" y1="63.49" x2="134.19" y2="63.49" style="fill:none;stroke:#58b3b2;stroke-linecap:round;stroke-linejoin:round;stroke-width:2px"/></g><g id="b899cceb-832d-4f3d-b626-0980a0221dcc" data-name="Group 9680"><line id="f144336f-5987-4f11-a2a1-0c130baa3f22" data-name="Line 718" x1="120.62" y1="58.38" x2="116.05" y2="58.38" style="fill:none;stroke:#58b3b2;stroke-linecap:round;stroke-linejoin:round;stroke-width:2px"/><line id="bcf2f045-48e0-4b42-8bcf-ada8f83940f9" data-name="Line 719" x1="120.62" y1="63.49" x2="116.05" y2="63.49" style="fill:none;stroke:#58b3b2;stroke-linecap:round;stroke-linejoin:round;stroke-width:2px"/></g></g><rect id="aee1b918-b5e1-42da-a02a-8f95c28f9716" data-name="Rectangle 1489" x="2.12" y="65.27" width="32.26" height="6.84" style="fill:none;stroke:#58b3b2;stroke-linecap:round;stroke-linejoin:round;stroke-width:2px"/><line id="ece3dccc-db85-443c-9dfb-4a54547a5116" data-name="Line 720" x1="31.62" y1="72.11" x2="28.88" y2="88.94" style="fill:none;stroke:#58b3b2;stroke-linecap:round;stroke-linejoin:round;stroke-width:2px"/><line id="f938d20a-67b6-4057-9b3c-21f6ed444240" data-name="Line 721" x1="4.88" y1="72.11" x2="7.62" y2="88.94" style="fill:none;stroke:#58b3b2;stroke-linecap:round;stroke-linejoin:round;stroke-width:2px"/><g id="b503111c-dc2b-4823-a262-1057b1a693bb" data-name="Group 9686"><line id="b8d28d9a-e1c9-4f96-8826-4152be7c365e" data-name="Line 722" x1="18.25" y1="61.11" x2="18.25" y2="31.9" style="fill:none;stroke:#58b3b2;stroke-linecap:round;stroke-linejoin:round;stroke-width:2px"/><g id="bf83f83a-fd26-4df1-94d3-1ff8132a6cc4" data-name="Group 9683"><g id="f014bbe9-7dfc-48fa-9be9-db50446f74d1" data-name="Group 9682"><path id="b6f71efa-c01a-4832-8f50-16544b139215" data-name="Path 7497" d="M21.39,37a10.74,10.74,0,0,1,10.42-2.76A10.74,10.74,0,0,1,18.62,47.42,10.77,10.77,0,0,1,21.39,37Z" style="fill:none;stroke:#58b3b2;stroke-linecap:round;stroke-linejoin:round;stroke-width:2px"/></g><line id="f6e052f4-6dd0-4330-a282-f542f2a1cec6" data-name="Line 723" x1="18.62" y1="47.42" x2="25.22" y2="40.83" style="fill:none;stroke:#58b3b2;stroke-linecap:round;stroke-linejoin:round;stroke-width:2px"/></g><g id="f88c5c7c-1f44-4f81-8182-663e88719a2b" data-name="Group 9685"><g id="ed6ca0a3-b204-4898-8ad4-1741661e5585" data-name="Group 9684"><path id="a8c68ef7-b1e1-49ec-9cd0-0a432b370035" data-name="Path 7498" d="M15.1,46.15A10.74,10.74,0,0,0,4.68,43.38,10.75,10.75,0,0,0,17.87,56.57,10.71,10.71,0,0,0,15.1,46.15Z" style="fill:none;stroke:#58b3b2;stroke-linecap:round;stroke-linejoin:round;stroke-width:2px"/></g><line id="b1e784e4-7f89-479c-b728-b2487f441e07" data-name="Line 724" x1="17.87" y1="56.57" x2="11.28" y2="49.97" style="fill:none;stroke:#58b3b2;stroke-linecap:round;stroke-linejoin:round;stroke-width:2px"/></g></g></g><g id="ea2eeab4-6354-4967-8428-e599bd8a791e" data-name="Background solid"><path id="f836b233-35ae-46b2-b679-8f45508801f0" data-name="Subtraction 34" d="M229.41,281.36H348.63a16,16,0,0,1,16,16V320h-28.8v-5.84a4,4,0,0,0-4-4H246.22a4,4,0,0,0-4,4V320h-28.8V297.36a16,16,0,0,1,16-16Z" style="fill:#c0e2e2"/><path d="M49.18,316.32c0,.42,0,.84,0,1.26h.1C49.25,317.16,49.21,316.74,49.18,316.32Z" style="fill:#c0e2e2"/><path d="M49.27,317.58c0-.42-.06-.84-.09-1.26,0,.42,0,.84,0,1.26Z" style="fill:#c0e2e2"/><path d="M47.81,319.71h1.32c0-.71,0-1.43,0-2.13H47.6Q47.68,318.65,47.81,319.71Z" style="fill:#c0e2e2"/><path d="M94.24,205.77h0c-7.2-.38-16.11,3.82-16.88,11.65-.56,5.69-.39,11.36-1.26,17a45.57,45.57,0,0,1-4.15,13c-1.91,4-5.89,7.36-6.92,11.61a18.19,18.19,0,0,0,.61,9.17c1.1,3.21.52,3-1.69,5.66A73.44,73.44,0,0,0,53,291c0-.47.07-.93.09-1.4.75-12.77.4-25.64.32-38.43-.14-19.46-3.62-38.48-8.9-57.2-4.73-16.76-10.69-34.59-23-47.45h0L20,145c-.05.84-.65,1.42-.69,2.41a14.28,14.28,0,0,0,.61,1.92,48.78,48.78,0,0,1,.55,6,176.21,176.21,0,0,0,2.37,18.73,133.82,133.82,0,0,0,6.57,25.12c2.74,7,6.27,17.78,13.16,22,1.74,1.06,3.81.93,5.48,1.78s1-.09,1.58,2.09a46.85,46.85,0,0,1,.88,6.35c1.43,14.06,1,28.09,1.1,42.2a195.35,195.35,0,0,1-1.11,24.06c-.14.41-.28.83-.4,1.25a81.55,81.55,0,0,0-6.72-20.74A13,13,0,0,0,46.72,274c2.07-4,1.56-8.69-.23-12.65A27.33,27.33,0,0,0,41,253.52a23,23,0,0,0-4.78-6.38c-6.81-6.6-10.3-13.61-11.91-22.87C23.21,218.12,23,212,21.05,206c-3.36-10.37-10.33-18-21-19.72v69.95a20.32,20.32,0,0,1,6.5,3.46,40,40,0,0,1,6.26,7l0,0c6.22,9.08,15.35,16.89,27.09,13-.23-.42-.47-.9-.72-1.37a7.61,7.61,0,0,0-1.53-2.45,184,184,0,0,0-10.69-15.42c-1.53-2-5.33-5.56-5.72-7.43-.8-3.89,4.37,3.14,4.33,3.1a213.63,213.63,0,0,1,13.4,18.94v0a6,6,0,0,0,1.24,2.26,4,4,0,0,0,.59.82l.19.3.08-.07.13.09q1.14,2.29,2.17,4.62a68,68,0,0,1,5.33,21.12c-.25,1.16-.46,2.32-.64,3.49a48.91,48.91,0,0,0-4.9-13.21,23.1,23.1,0,0,0-5.25-6.39,14.56,14.56,0,0,0-7.29-3.27,11.64,11.64,0,0,0-1.18-.05c-.76,0-1.68,0-2.59.09a6.68,6.68,0,0,0-2.88-.85c-.4,0-.81-.05-1.23-.05a21.09,21.09,0,0,0-6.94,1.27,29.92,29.92,0,0,0-6.62,3.37,34.23,34.23,0,0,0-5.73,4.81A28.5,28.5,0,0,0,0,297.71V320H16.25c0-.53,0-1.07,0-1.6a34.72,34.72,0,0,1,1.25-9.35,16.18,16.18,0,0,1,5.07-7.76c.65-.56,1.34-1.1,2-1.62s1.22-.94,1.8-1.43l.28-.24c1.88-1.58,3.83-3.22,4.07-5.8a4,4,0,0,0-.69-3.15,3,3,0,0,0-2.33-.82,9.4,9.4,0,0,0-2,.24c-.1,0-.39.13-.77.27a15.15,15.15,0,0,1-3.94,1.12.7.7,0,0,1-.6-.2.6.6,0,0,1,0-.55c.23-.54,1-1,2.32-1.43,2.65-.29,5.14-.55,6.63-.55a5.17,5.17,0,0,1,1,.07,14.59,14.59,0,0,1,7.09,3.95,25.33,25.33,0,0,1,4.9,7.06,54.06,54.06,0,0,1,4.54,16.5c.11,1,.21,2,.31,3.17h1.93c0-.43,0-.85,0-1.27,0,.42.07.84.09,1.27h-.11c0,.7,0,1.41,0,2.12h2.06c.07-1.74.12-3.47.17-5.21,0-2.81-.07-5.62-.31-8.42.36-1.66.6-3.11.62-3.25l.12-.83c4.75-17.76,17.86-30.58,26.72-46.64.53-.91,1.67-3.1,2.46-4.54,1.25-2.28,2.51-6.61,4.2-8.3,3.19-3.19.26,3.21-.37,4.43-.78,1.55-1.64,3.19-2.45,4.54-3.68,6.28-7.79,13.12-11.59,19.59,16.43,3.74,28-16,32.42-29C106.8,231.7,111.16,206.69,94.24,205.77Z" style="fill:#c0e2e2"/></g><g id="a53962ce-7b56-4ba4-89b8-6659f8c8e322" data-name="Core illustration"><path id="b756d66e-065c-4bbb-bebd-284d20c65f3e" data-name="Subtraction 36" d="M118,320h47l6.74-17a9.57,9.57,0,0,0-.67-9.7c-2.08-3.26-6.13-6.29-11.39-8.53a39.36,39.36,0,0,0-14.38-3.19,15.61,15.61,0,0,0-4.56.59,5.5,5.5,0,0,0-2.89,1.84C133.67,289.67,127.18,301.43,118,320Z" style="fill:#9083bd"/><path id="f4bdd9ee-a3dd-4ac2-b3cd-d38e444f8eab" data-name="Subtraction 35" d="M140.5,320h51l-7.35-9.44c0-.07-.87-1.8-.48-2.68a.84.84,0,0,1,.56-.48c.43-.07,43.54-7.09,58-9.64,14.18-2.5,23.05-7.56,27.91-15.92,4.77-8.21,5.84-19.91,3.35-36.83H222c-10.18,2.94-84.62,36.15-85.37,36.49a11.35,11.35,0,0,0-4.93,4.72,16.8,16.8,0,0,0-1.92,6.34,26,26,0,0,0,1.16,11c0,.07,3.25,5.61,9.59,16.48Z" style="fill:#b2a8d3"/><g id="a9bf63cd-f1ba-4195-aec0-6e5f69f48b10" data-name="Head Front Rad"><g id="b148c0ac-d2f3-4f30-9d33-2e3cb2a1ea9d" data-name="Head"><path id="ad3694c4-036b-4405-9166-5d5a27ecb8a8" data-name="Head-2" d="M265,146.61l-7.82-36.43c4.36-5.12,7.32-11.39,6.82-18.42-1.42-20.24-29.6-15.79-35.09-5.57s-4.83,36.14,2.26,38c2.83.72,8.84-1.06,15-4.75l-3.84,27.2Z" style="fill:#b28b67"/></g><path id="a275a121-de06-4e0c-b193-cc639b5a7d6c" data-name="hair" d="M273.92,85a7,7,0,0,0,1.48-2.74,28.89,28.89,0,0,0,1-3.13c.47-2.13.48-4.58-1-6.23a7.07,7.07,0,0,0-4.73-2,8.66,8.66,0,0,0-3.35.42c-1.07.35-2,1-3,1.49a13.5,13.5,0,0,0-1.59-6.65,6.61,6.61,0,0,0-4.94-3.22,9.77,9.77,0,0,0-6,1.21c-.47.25-.93.52-1.38.82a3.83,3.83,0,0,1-1.19.65c-.49.12-.73-.17-1.05-.52a7.93,7.93,0,0,0-1.22-1.1,7.21,7.21,0,0,0-6.77-1.17,6.32,6.32,0,0,0-2.76,2c-.63.83-1.08,2.14-1.95,2.72-.37.24-.63-.08-1-.32-.51-.36-1-.76-1.5-1.11a7.06,7.06,0,0,0-2.32-1c-1.22-.28-2.9-.21-3.25,1.38a6.67,6.67,0,0,0,0,1.84c.06.83.12,1.66.19,2.49.05.62.13,1.23.24,1.85a2.61,2.61,0,0,1,.12,1.27c-.17.41-1,.18-1.33.19a5.15,5.15,0,0,0-2,.44,2.18,2.18,0,0,0-1.22,1.13,2.08,2.08,0,0,0,0,1.05,3.07,3.07,0,0,1-.07,1.09c-.92-.45-4.11-1.46-4.51.19a2.6,2.6,0,0,0,.4,1.63,13.67,13.67,0,0,0,1.49,2.27,20.35,20.35,0,0,0,4,3.85,2.6,2.6,0,0,0-1.37,3.41,2.67,2.67,0,0,0,.69.94,3.22,3.22,0,0,0,2.37.68,6.35,6.35,0,0,1,1-.08,1.83,1.83,0,0,0,.45.15,12.67,12.67,0,0,0,3.62-.46,11.81,11.81,0,0,0,5.53-2.89,1.74,1.74,0,0,1,1.28-.59c.48,0,.94.14,1.42.15a10.34,10.34,0,0,0,3.56-1,13.31,13.31,0,0,0,1.16,4.73c.53,1.16,1.62,1.33,2.7,1.43,3.46.32,6.92,0,10.38,0-3.35.75-6.81,1.06-10.12,2-1.5.41-.35,1.42.29,2.12a12.17,12.17,0,0,1,2.38,4.09c1.64-2.14,4.53-3.54,7.09-2.89,2.84.73,4.83,4.56,3,7.31-1.05,1.6-3,2.22-4.53,2.9,1.23,1.28,1.53,3.18,2.27,4.77a3.44,3.44,0,0,0,1.7,2,1.92,1.92,0,0,1,.89.35c.3.31.37.65.75.91a4.18,4.18,0,0,0,5.19-.4,3.38,3.38,0,0,0-.11-4.44c1.61-.67,4.53-1.54,3.89-4,3.48-.23,11.93-5.87,7.26-10,2.57-1.45,4.92-5,3.28-8.11-1.27-2.41-4.22-3.48-6.64-3.61" style="fill:#2e3e5a"/></g><path id="a48d45ca-222f-46a2-a07e-ceb79f445a35" data-name="Skin" d="M338.77,303.52c1.05-.66,2.21-3.11-.58-5-7-4.78-17-13.13-18.35-15.88-2.78-5.62-12.22-60.45-12.22-60.45l-19.77.08s18.31,59.12,19.77,62.73c2.19,5.43-2.44,13.69-4.42,18.13,3.13,1.4,4.57-.38,6.16-2.17s3.54-3.8,7.74-1.85c5.38,2.5,9.82,6.47,15.12,6.47A12.25,12.25,0,0,0,338.77,303.52Zm-169.08-53.2,27.87-16.43-8.9-15.4-26.81,26.14a81.58,81.58,0,0,0-19.17,11c-1.12,1.35-2.34,3.94,2.93,2.78s10.87-2.14,11.86-.42-1.93,4.34-.1,6.58a.74.74,0,0,0,.56.27Q160.47,264.86,169.69,250.32Z" style="fill:#b28b67"/><path id="ba110fdb-6877-47f8-89c2-6491f52cae79" data-name="Coat Back" d="M251.45,139.23l-8.18-1.4q-21.12,52.75-73.77,95.88L196,265.93C231.11,225,252.74,182.77,251.45,139.23Z" style="fill:#ffd964"/><path id="f27794f5-5498-458a-ba02-c37a65f1f587" data-name="Shirt" d="M287.1,247.16H214.25s25.32-65,25.32-110.52l22-3.46C278.81,162.53,283.69,198.67,287.1,247.16Z" style="fill:#e4e6ea"/><path id="b1cf0bb1-c89e-4bb7-8e0f-aaf3c7e34d83" data-name="Coat Front" d="M320.21,273.24c-8-89.88-58.19-139.07-58.19-139.07h-1.46c-2.57.09-7.84.31-7.84.31l-5.31,15.18c-.84,27.75-9.84,111.86-9.84,111.86h47.68q-.12,5.78-.55,11.72Z" style="fill:#ffd964"/><path id="b9f0dcde-396c-4af2-95bd-def6aeed7565" data-name="Shade" d="M272,261.89h13.29a241.77,241.77,0,0,0-3.6-46.83,253.33,253.33,0,0,1-3.2,26.19c-1.73,9.38-3.92,16.32-6.49,20.64Z" style="fill:#edc95b"/></g></svg>