<svg xmlns="http://www.w3.org/2000/svg" width="400" height="320" viewBox="0 0 400 320"><g id="a9ed3f3d-8fc4-480a-83c6-f7319f2fa77c" data-name="Background lines"><g id="befd9288-adfb-479e-ad9c-d081978d8d79" data-name="Group 9820"><circle id="b21f1a40-b772-4a98-b57e-f999d43b19f7" data-name="Ellipse 68" cx="342.75" cy="49.15" r="23.76" style="fill:none;stroke:#58b3b2;stroke-linecap:round;stroke-linejoin:round;stroke-width:2px"/><circle id="fced1ebd-5d71-4a94-ae98-7aefcc674b70" data-name="Ellipse 69" cx="342.75" cy="49.15" r="1.33" style="fill:none;stroke:#58b3b2;stroke-linecap:round;stroke-linejoin:round;stroke-width:2px"/><ellipse id="a571ff29-3a65-4152-b8c9-3a72f75e8330" data-name="Ellipse 70" cx="342.75" cy="49.15" rx="31.87" ry="31.14" style="fill:none;stroke:#58b3b2;stroke-linecap:round;stroke-linejoin:round;stroke-width:2px"/><path id="b8b7895c-2a76-41d2-833d-979cbe059740" data-name="Path 7682" d="M343.05,29.23l0,19.92,12.53-3.06" style="fill:none;stroke:#58b3b2;stroke-linecap:round;stroke-linejoin:round;stroke-width:2px"/><line id="a24b20fc-3544-4e34-821c-93572d4e199e" data-name="Line 790" x1="312.02" y1="49.04" x2="318.27" y2="49.04" style="fill:none;stroke:#58b3b2;stroke-linecap:round;stroke-linejoin:round;stroke-width:2px"/><line id="e09107f8-c858-48b5-ad62-fef0ab5a32e9" data-name="Line 791" x1="342.98" y1="18.09" x2="342.98" y2="24.34" style="fill:none;stroke:#58b3b2;stroke-linecap:round;stroke-linejoin:round;stroke-width:2px"/><line id="a3a10cd8-9dae-4a95-9026-7f893fd65194" data-name="Line 792" x1="342.98" y1="73.74" x2="342.98" y2="79.99" style="fill:none;stroke:#58b3b2;stroke-linecap:round;stroke-linejoin:round;stroke-width:2px"/><line id="a5aa62e6-4d25-4812-80b0-5990355cb505" data-name="Line 793" x1="312.02" y1="49.04" x2="318.27" y2="49.04" style="fill:none;stroke:#58b3b2;stroke-linecap:round;stroke-linejoin:round;stroke-width:2px"/><line id="f21c322b-6eae-4221-9b0e-675e98518d2b" data-name="Line 794" x1="367.68" y1="49.04" x2="373.93" y2="49.04" style="fill:none;stroke:#58b3b2;stroke-linecap:round;stroke-linejoin:round;stroke-width:2px"/></g><line id="a4bfcca0-c6e9-4749-bccf-c1cd5dee2117" data-name="Line 784" x1="80.44" y1="231.38" x2="398.71" y2="231.38" style="fill:none;stroke:#58b3b2;stroke-linecap:round;stroke-linejoin:round;stroke-width:2px"/><path id="ae6255df-c4d9-49ad-a5a2-d0aac20abbc2" data-name="Subtraction 39" d="M5.92,231.58c-1.61-1.77-3.44-3.75-5.92-6.4V212.6c2,2.61,3.94,5.33,5.81,8.09-1.61-3.64-2.93-6.73-4-9.45C1,209.35.43,208,0,207V170.2A163.77,163.77,0,0,1,14.38,193h-2.1v38.61ZM61.48,193H44.41c11.16-15.13,26-28.84,40.28-42.09h0l.22-.2,0,0,.49-.45,6.36-5.91a36.06,36.06,0,0,0-5.11,8l0,.08c-.77,1.46-1.56,3-2.38,4.21q-1.41,2.16-2.83,4.32l-.39.6,0,.08-.26.4-.17.25c-2.06,3.14-4.4,6.7-6.63,10.15-4.41,6.8-8.6,13.74-12.43,20.6Zm-27.77,0H22.94c.72-3.78,1.65-7.62,2.83-11.73,1.52-5.28,3.47-11,6-17.47.58-1.5,1.16-3.32,1.78-5.24h0l.05-.15,0-.06,0-.12h0v0a91.33,91.33,0,0,1,5-13.1c2.5-4.93,5.35-8.19,8.7-10a.78.78,0,0,1,.36-.1c.35,0,.82.33,1.08,1.9a11,11,0,0,1,.17,1.9c0-.76-.22-2.73-1.22-2.73a1.36,1.36,0,0,0-.83.36c-2,2-3.47,5-4.56,9.17a92.7,92.7,0,0,0-1.9,11.23v0h0v0c-.3,2.36-.6,4.79-1,6.75-.11.56-.23,1.12-.35,1.68l-.08.42-.1.45-.26,1.24-.15.71h0c-1.7,8.08-3.46,16.42-4.76,24.78Z" style="fill:#c0e2e2"/><g id="bb30104f-b464-45d9-b1b5-da0bce25c91b" data-name="Group 9817"><g id="bb117838-9f2c-4954-bd88-32266e2a4087" data-name="Group 9814"><rect id="ef8406cf-0900-40cc-ae90-5362209ec5cb" data-name="Rectangle 1547" x="12.28" y="191.88" width="67" height="87.46" style="fill:none;stroke:#58b3b2;stroke-linecap:round;stroke-linejoin:round;stroke-width:2px"/><rect id="b26ef07d-4767-418b-8088-d8680ceb9841" data-name="Rectangle 1548" x="23.89" y="204" width="43.76" height="63.2" style="fill:none;stroke:#58b3b2;stroke-linecap:round;stroke-linejoin:round;stroke-width:2px"/></g><g id="fde5f370-1186-4bdc-bb33-01f25b2fa169" data-name="Group 9816"><path id="a49cf0e7-ce5e-4533-b5a3-218547557f06" data-name="Path 7672" d="M35.33,230.09c-.28-.83-2.85-1.46-3.64-.21a1.88,1.88,0,0,0-.23,1.09,6.33,6.33,0,0,0,4.64,5.81c.15,0,.35.05.42-.08s-.24-.23-.2-.08" style="fill:none;stroke:#58b3b2;stroke-linecap:round;stroke-linejoin:round;stroke-width:2px"/><path id="b0357db7-315b-4fc4-a771-2cf61ed5f910" data-name="Path 7673" d="M58.76,229.45c.29-.83,3.19-.94,3.67-.2a2,2,0,0,1,.23,1.09c0,2.64-1.37,5.09-4,5.78" style="fill:none;stroke:#58b3b2;stroke-linecap:round;stroke-linejoin:round;stroke-width:2px"/><path id="a75ea28f-4181-4783-82c5-6eb66b084ac4" data-name="Path 7674" d="M58.76,229.45A3.84,3.84,0,0,0,56.53,227c-1.7-.7-5.23,1.2-5.23,1.2A29.8,29.8,0,0,0,46,226" style="fill:none;stroke:#58b3b2;stroke-linecap:round;stroke-linejoin:round;stroke-width:2px"/><path id="e97f8a6b-55d7-4569-9ff8-b7318deaae40" data-name="Path 7675" d="M48.13,224a10.44,10.44,0,0,1-5,3.17,31.1,31.1,0,0,0,1.48-3.34,20.22,20.22,0,0,1-9.28,5.58" style="fill:none;stroke:#58b3b2;stroke-linecap:round;stroke-linejoin:round;stroke-width:2px"/><path id="fdbb3b25-9e05-46b1-8308-743c33f12c47" data-name="Path 7676" d="M32.11,229.44a7.5,7.5,0,0,1,2.46-4.35,6.57,6.57,0,0,0-3.16.75c0-1.09,1.8-3.64,5.81-4.57" style="fill:none;stroke:#58b3b2;stroke-linecap:round;stroke-linejoin:round;stroke-width:2px"/><path id="aa5bdf82-2fc4-4330-83ee-bb6b4a5d9def" data-name="Path 7677" d="M37.22,221.27a10.36,10.36,0,0,0-6.42-.73,16.37,16.37,0,0,1,14.8-4.13c-.59-.79-1.05-2.6-.73-2.55s7.67-.15,11,2c4.1,2.71,5.85,9.89,5.12,11.4a1.27,1.27,0,0,1,1.46-.17l-1.12,1.38" style="fill:none;stroke:#58b3b2;stroke-linecap:round;stroke-linejoin:round;stroke-width:2px"/><g id="a7da9f49-27ce-4ac1-b50c-06db9687d67c" data-name="Group 9815"><path id="b9acf5c5-53cb-43d2-88dd-f41156500b55" data-name="Path 7678" d="M24.14,259.75a14.66,14.66,0,0,1,7.93-7c2-.78,7.49-1.93,7.49-4.74l.38-4.48" style="fill:none;stroke:#58b3b2;stroke-linecap:round;stroke-linejoin:round;stroke-width:2px"/><path id="e7363f85-ca68-4b4f-8372-8cd06f590b27" data-name="Path 7679" d="M67.51,255.73c-.33-.3-.67-.59-1-.86a14.62,14.62,0,0,0-3.86-2.15c-2-.78-7.49-1.93-7.49-4.74l-.43-4" style="fill:none;stroke:#58b3b2;stroke-linecap:round;stroke-linejoin:round;stroke-width:2px"/><path id="ff5dec9f-7f0a-4771-875b-7676a0246b9f" data-name="Path 7680" d="M38.65,252.2s9.76,6.4,16.71-.44" style="fill:none;stroke:#58b3b2;stroke-linecap:round;stroke-linejoin:round;stroke-width:2px"/></g><path id="ac180243-9f7e-4ef8-ba5c-93bd455919d2" data-name="Path 7681" d="M59,229.42c.08.51.12,1,.15,1.53.3,7.21-4.71,13.27-11.19,13.54s-12-5.36-12.28-12.57a8.27,8.27,0,0,1,0-2.33" style="fill:none;stroke:#58b3b2;stroke-linecap:round;stroke-linejoin:round;stroke-width:2px"/></g></g><line id="a1215432-d671-41f3-a0a8-e7b9e6c5599e" data-name="Line 797" x1="2.15" y1="231.38" x2="11.39" y2="231.38" style="fill:none;stroke:#58b3b2;stroke-linecap:round;stroke-linejoin:round;stroke-width:2px"/></g><g id="a38643a6-de20-497e-bd4d-c00c9f95cf56" data-name="Background solid"><g id="fc702193-3dd8-417c-88ce-8da9ad3be491" data-name="Plant Right"><path id="b6ead1aa-0f1c-47fc-b0d3-8818366985ea" data-name="Leaf Me Alone " d="M293.43,162.07c7.4-.36,16.55,3.73,17.34,11.35.58,5.54.4,11.06,1.29,16.59a43.21,43.21,0,0,0,4.27,12.69c2,3.87,6.05,7.17,7.12,11.3a16.87,16.87,0,0,1-.64,8.93c-1.13,3.13-.53,2.88,1.74,5.51A71.13,71.13,0,0,1,335.8,245c4.07,8.86,6.74,19.23,5.24,28.93-.19,1.23-.42,5.66-2.21,6-2,.34-1.07-2.19-1-3,.68-5.22,1.28-9.78.46-15.07-3.18-20.43-18.65-33.89-28.73-51.22-.55-.9-1.72-3-2.54-4.43-1.28-2.22-2.57-6.44-4.31-8.08-3.27-3.1-.26,3.13.38,4.32.8,1.5,1.69,3.1,2.52,4.41,3.78,6.11,8,12.78,11.9,19.07-16.87,3.66-28.77-15.57-33.3-28.21-3.74-10.41-8.21-34.76,9.18-35.66" style="fill:#c0e2e2"/><path id="bc352e3c-127a-476d-9ee3-9da1e5589094" data-name="Leaf Me Alone 2" d="M392.56,142.75c-12.37.93-20.3,8.66-24,19.48-2,5.83-2.22,11.81-3.33,17.8A37.36,37.36,0,0,1,353,202.29a22.62,22.62,0,0,0-4.9,6.22,26.64,26.64,0,0,0-5.66,7.66c-1.84,3.86-2.36,8.48-.23,12.32a12.72,12.72,0,0,0,3.47,4,75.94,75.94,0,0,0-8.23,35.63c.2,7.38.58,14.76,1,22.13.12,2,.8,5.24,1.82,1.92.93-3-.24-7.8-.35-11-.53-15.44-1-29.49,5.73-43.92q1.06-2.27,2.23-4.5l.13-.08.09.06a2.33,2.33,0,0,1,.19-.29,3.56,3.56,0,0,0,.6-.8,5.76,5.76,0,0,0,1.28-2.2v0a208.22,208.22,0,0,1,13.76-18.44s5.27-6.81,4.45-3c-.39,1.83-4.3,5.3-5.87,7.23a179.83,179.83,0,0,0-11,15,7.52,7.52,0,0,0-1.57,2.38c-.26.47-.5.93-.74,1.34,12.06,3.77,21.44-3.83,27.84-12.68l0,0a39.44,39.44,0,0,1,6.43-6.81c4.16-3.22,22.11-43,9.05-71.74" style="fill:#c0e2e2"/><path id="b610416f-f9ad-405a-97f8-21aa80f858e5" data-name="Leaf Me Alone 3" d="M368.13,104.27c-12.69,12.52-18.82,29.88-23.67,46.21-5.43,18.23-9,36.74-9.15,55.69-.09,12.46-.44,25,.32,37.43a125,125,0,0,0,1.48,13.21c.06.36,1.71,10.11,3.29,7.84.9-1.29-1.69-10.12-1.89-11.59a181.27,181.27,0,0,1-1.3-25c.09-13.73-.34-27.4,1.13-41.08a44.61,44.61,0,0,1,.9-6.19c.55-2.13-.14-1.2,1.63-2s3.84-.7,5.63-1.73c7.08-4.07,10.71-14.52,13.53-21.38a126.49,126.49,0,0,0,6.75-24.47A164.7,164.7,0,0,0,369.22,113a44.34,44.34,0,0,1,.55-5.86,12.58,12.58,0,0,0,.63-1.88c0-1-.65-1.53-.7-2.34-.53.46-1.05.92-1.57,1.4" style="fill:#c0e2e2"/><path id="ba970fa1-5876-406b-925b-594266688774" data-name="Base" d="M298.93,271.05c.09,20.79,17.79,37.57,39.55,37.49,21.76.08,39.47-16.7,39.55-37.49" style="fill:#c0e2e2"/><path id="aa8c154e-330a-413e-84bb-0ab0d7753a4a" data-name="Leaf Me Alone 4" d="M381,284.92a6.34,6.34,0,0,1-4.15-1.38,7.81,7.81,0,0,1-2.23-3.41,27.77,27.77,0,0,1-1.18-8.44,32.64,32.64,0,0,0-1.27-9.11,16.19,16.19,0,0,0-1.94-4A16,16,0,0,0,367,255c-.67-.55-1.38-1.07-2.07-1.58s-1.25-.91-1.85-1.39l-.29-.23c-1.94-1.54-3.94-3.14-4.18-5.66a3.74,3.74,0,0,1,.7-3.06,3.17,3.17,0,0,1,2.4-.8,10.71,10.71,0,0,1,2,.23c.1,0,.39.13.79.27a16.06,16.06,0,0,0,4.05,1.09.74.74,0,0,0,.61-.2.55.55,0,0,0,0-.53c-.24-.54-1-1-2.39-1.4-2.71-.28-5.28-.53-6.81-.53a5.32,5.32,0,0,0-1,.06,15.34,15.34,0,0,0-7.29,3.85,24.53,24.53,0,0,0-5,6.88A50.13,50.13,0,0,0,342,268.1c-.12.92-.22,1.93-.33,3.08h-2.08a63.85,63.85,0,0,1,.77-7.43,46.08,46.08,0,0,1,5.53-15.32,22.88,22.88,0,0,1,5.4-6.22,15.43,15.43,0,0,1,7.49-3.19c.4,0,.81-.05,1.21,0,.79,0,1.73,0,2.67.08a7.32,7.32,0,0,1,2.94-.83c.42,0,.85,0,1.27,0a22.63,22.63,0,0,1,7.12,1.24,31,31,0,0,1,6.81,3.28,34.72,34.72,0,0,1,5.89,4.68,28.7,28.7,0,0,1,4.36,5.43,20.08,20.08,0,0,1,2.72,10.45A32.12,32.12,0,0,1,391.84,274a23.91,23.91,0,0,1-3.81,7.1c-2,2.49-4.38,3.77-6.93,3.8Z" style="fill:#c0e2e2"/></g></g><g id="a7729ada-621b-44fc-88c5-126e51db2acb" data-name="Core illustration"><path id="e7100975-e714-4c44-bde1-8f5cfdca45be" data-name="Path 7684" d="M136.55,253.2v-4.38l18.83-15.28h87.51l18.83,15.28v4Z" style="fill:#abb2bd;stroke:#a1a8b6;stroke-linecap:round;stroke-linejoin:round;stroke-width:3px"/><path id="afbd0043-2500-4669-b003-36c862f49a65" data-name="Path 7683" d="M183,203.33l-4,27.41h40.2l-3-27.41Z" style="fill:#abb2bd"/><rect id="b17a3488-afdf-4503-908c-5b55397cb1e8" data-name="Rectangle 1546" x="106.75" y="81.18" width="185.26" height="124.91" rx="4.61" style="fill:#2e3e5a"/><rect id="e6ccac23-e1e4-40e3-b697-0c5ee3bee763" data-name="Rectangle 1545" x="116.59" y="90.49" width="165.39" height="94.06" style="fill:#86c985"/><circle id="fd13ccbd-b685-487a-b21d-8c2c5c9622e3" data-name="Ellipse 67" cx="199.38" cy="194.6" r="4.34" style="fill:#fff"/><path id="a1e818a8-3489-4c8e-9055-d1b0a19cb58a" data-name="Path 7651" d="M136.55,248.24l18.83-19.66h87.51l18.83,19.29Z" style="fill:#e4e6ea;stroke:#dadde2;stroke-linecap:round;stroke-linejoin:round;stroke-width:3px"/><g id="ecf98a9b-e6b9-42d8-8181-d70e675d4454" data-name="Group 9801"><line id="a68eb7b3-2ce7-409f-b172-5be1a5f3ca4a" data-name="Line 769" x1="158.12" y1="234.73" x2="162.22" y2="234.73" style="fill:none;stroke:#2e3e5a;stroke-linecap:round;stroke-linejoin:round;stroke-width:3px"/><line id="fcfd4437-95fb-4fa7-8191-e244fcc3da9d" data-name="Line 770" x1="169.34" y1="234.73" x2="173.44" y2="234.73" style="fill:none;stroke:#2e3e5a;stroke-linecap:round;stroke-linejoin:round;stroke-width:3px"/><line id="b10c0469-db75-4916-a162-c8fb09fa226f" data-name="Line 771" x1="180.57" y1="234.73" x2="184.67" y2="234.73" style="fill:none;stroke:#2e3e5a;stroke-linecap:round;stroke-linejoin:round;stroke-width:3px"/></g><g id="a9559507-cd78-4366-a521-ef9ab3e8c664" data-name="Group 9802"><line id="eee0f715-f1a7-4a3b-8182-9030b8d18ac1" data-name="Line 772" x1="152.08" y1="241.39" x2="156.18" y2="241.39" style="fill:none;stroke:#2e3e5a;stroke-linecap:round;stroke-linejoin:round;stroke-width:3px"/><line id="a8b0ed93-fcc5-44f5-a3cb-212c2615a16d" data-name="Line 773" x1="163.83" y1="241.39" x2="167.93" y2="241.39" style="fill:none;stroke:#2e3e5a;stroke-linecap:round;stroke-linejoin:round;stroke-width:3px"/><line id="a2780222-3f25-4656-903c-81d80e1429ba" data-name="Line 774" x1="175.05" y1="241.39" x2="179.15" y2="241.39" style="fill:none;stroke:#2e3e5a;stroke-linecap:round;stroke-linejoin:round;stroke-width:3px"/></g><g id="b92bbfe3-d7f0-48de-baa7-11d98f9421c5" data-name="Group 9803"><line id="a0c5d8f0-dbcd-41ba-bfc1-fdbd7f8b3d90" data-name="Line 775" x1="219.64" y1="241.39" x2="223.74" y2="241.39" style="fill:none;stroke:#2e3e5a;stroke-linecap:round;stroke-linejoin:round;stroke-width:3px"/><line id="a5d4bc29-a396-478b-a4a6-f9081f44076e" data-name="Line 776" x1="231.39" y1="241.39" x2="235.49" y2="241.39" style="fill:none;stroke:#2e3e5a;stroke-linecap:round;stroke-linejoin:round;stroke-width:3px"/><line id="a1546931-ab2a-4517-b09d-59413d30a864" data-name="Line 777" x1="242.62" y1="241.39" x2="246.72" y2="241.39" style="fill:none;stroke:#2e3e5a;stroke-linecap:round;stroke-linejoin:round;stroke-width:3px"/></g><line id="b5622da7-c03a-457f-9a2d-36d70be117dc" data-name="Line 778" x1="211.81" y1="241.39" x2="186.27" y2="241.39" style="fill:none;stroke:#2e3e5a;stroke-linecap:round;stroke-linejoin:round;stroke-width:3px"/><line id="b24af99a-bfe4-48ca-aca0-b8e6e776beb6" data-name="Line 779" x1="191.79" y1="234.73" x2="195.89" y2="234.73" style="fill:none;stroke:#2e3e5a;stroke-linecap:round;stroke-linejoin:round;stroke-width:3px"/><line id="a537c486-ddac-4f81-81b4-4077b691e525" data-name="Line 780" x1="203.01" y1="234.73" x2="207.11" y2="234.73" style="fill:none;stroke:#2e3e5a;stroke-linecap:round;stroke-linejoin:round;stroke-width:3px"/><line id="e8a9c2bd-6985-47ac-bee3-89f7664f2e67" data-name="Line 781" x1="214.23" y1="234.73" x2="218.33" y2="234.73" style="fill:none;stroke:#2e3e5a;stroke-linecap:round;stroke-linejoin:round;stroke-width:3px"/><line id="f934fd4c-0dc4-4883-a23c-11c1207f85cd" data-name="Line 782" x1="225.46" y1="234.73" x2="229.56" y2="234.73" style="fill:none;stroke:#2e3e5a;stroke-linecap:round;stroke-linejoin:round;stroke-width:3px"/><line id="bd54b464-7f80-4936-913a-d79dd60adac9" data-name="Line 783" x1="236.68" y1="234.73" x2="240.78" y2="234.73" style="fill:none;stroke:#2e3e5a;stroke-linecap:round;stroke-linejoin:round;stroke-width:3px"/><rect id="a62c84d7-ff49-4aa5-a927-961ef81f2977" data-name="Rectangle 1557" x="133.41" y="107.25" width="56.52" height="9.92" style="fill:#fff;isolation:isolate;opacity:0.949999988079071"/><rect id="a8b0c782-d47c-4bdd-8f3c-ef40168e8961" data-name="Rectangle 1560" x="207.78" y="106.26" width="56.52" height="56.52" style="fill:#fff;isolation:isolate;opacity:0.949999988079071"/><rect id="a3bd7d6d-cc7a-4b94-afb4-a3f866aca74e" data-name="Rectangle 1558" x="133.41" y="125.1" width="56.52" height="9.92" style="fill:#fff;isolation:isolate;opacity:0.949999988079071"/><rect id="a9cc041c-8526-4837-9d11-8d550a37c4a5" data-name="Rectangle 1559" x="133.41" y="142.95" width="56.52" height="9.92" style="fill:#fff;isolation:isolate;opacity:0.949999988079071"/><circle id="e9b82515-8c72-4260-b0f8-1dc820a9cfe8" data-name="Ellipse 71" cx="236.53" cy="135.01" r="18.84" style="fill:#ffd964"/><g id="ee7926eb-0975-4cfd-a97b-628223c5025b" data-name="Icon tick"><path id="a47ce549-246f-4592-a200-f77805902bda" data-name="Tick" d="M226.62,136.27l2.35-2.39,4.15,4.15,11-11,2.37,2.36-13.33,13.33Z" style="fill:#2e3e5a"/></g></g></svg>