<svg xmlns="http://www.w3.org/2000/svg" width="400" height="320" viewBox="0 0 400 320"><g id="a05df5b5-6e28-4300-bdc7-4eabe1fc97dd" data-name="Background lines"><path id="bf1c37ba-98bf-4d08-a981-358a1fc3abd1" data-name="Line 215" d="M152,185.3H2.48a1,1,0,1,1,0-2H152a1,1,0,0,1,0,2Z" style="fill:#58b3b2"/><path id="fdac1d3e-1068-4315-9490-2fb2eb2a1af4" data-name="Subtraction 23" d="M.39,127.14V124l13.89-12.85a21.4,21.4,0,0,1,29.62.5l10.94,10.79a1.16,1.16,0,1,1-1.63,1.65L42.27,113.28a18.87,18.87,0,0,0-26.42-.45L.39,127.14Z" style="fill:#58b3b2"/><g id="f9bdc9b0-1805-4bbb-894a-00173b06ea74" data-name="Group 7696"><g id="b44318a4-a6f0-40c0-add2-777e650b2e9a" data-name="Group 7683"><path id="b121852e-b1f3-4706-9aa8-c7938b4a0d79" data-name="Path 3702" d="M145.12,58.82A15.83,15.83,0,1,1,161,43,15.82,15.82,0,0,1,145.12,58.82Zm0-29.34A13.51,13.51,0,1,0,158.63,43,13.5,13.5,0,0,0,145.12,29.48Z" style="fill:#58b3b2"/></g><g id="efb629fd-76e3-49a4-9390-30ca0f17ae42" data-name="Group 7684"><path id="af328ebc-a059-49dc-add7-f8a8ae348416" data-name="Path 3703" d="M145.13,19.13A1.16,1.16,0,0,1,144,18h0V10.83a1.16,1.16,0,1,1,2.32,0V18a1.16,1.16,0,0,1-1.16,1.16Z" style="fill:#58b3b2"/></g><g id="aac04a8b-4f7f-462f-88b5-f0f281995723" data-name="Group 7685"><path id="e6f6bea7-bf3f-4bcf-8a65-1e5a33c638eb" data-name="Path 3704" d="M132.62,22.49a1.14,1.14,0,0,1-1-.58L128,15.72a1.16,1.16,0,0,1,2-1.16l3.57,6.19a1.16,1.16,0,0,1-.42,1.58A1.14,1.14,0,0,1,132.62,22.49Z" style="fill:#58b3b2"/></g><g id="af8a6756-ba6c-4010-8c6c-ddb56506d441" data-name="Group 7686"><path id="a609c576-7d3a-4251-a1f3-6c06d134877f" data-name="Path 3705" d="M123.46,31.64a1.19,1.19,0,0,1-.58-.15l-6.19-3.58a1.16,1.16,0,0,1,1.11-2l0,0L124,29.48a1.16,1.16,0,0,1-.58,2.16Z" style="fill:#58b3b2"/></g><g id="e95e424c-7bb0-4e4a-9781-da1423524b26" data-name="Group 7687"><path id="ecf53b71-e1f2-49d4-99c4-aff5400b3c71" data-name="Path 3706" d="M120.1,44.15H113a1.16,1.16,0,1,1,0-2.32h7.14a1.16,1.16,0,1,1,0,2.32Z" style="fill:#58b3b2"/></g><g id="e0f8da84-5d85-4879-927f-fd2265c657cf" data-name="Group 7688"><path id="a0e26df3-2bdf-406f-9b1f-2fc8108d8d3d" data-name="Path 3707" d="M117.27,60.23a1.16,1.16,0,0,1-1.16-1.16,1.15,1.15,0,0,1,.58-1l6.19-3.58a1.16,1.16,0,1,1,1.28,1.93l-.12.07-6.19,3.58A1.15,1.15,0,0,1,117.27,60.23Z" style="fill:#58b3b2"/></g><g id="e728b487-64db-4209-ace5-3b1e0f090a72" data-name="Group 7689"><path id="ec42e9c2-e877-4b83-9163-a75e3beb46c1" data-name="Path 3708" d="M129,72a1.2,1.2,0,0,1-.59-.15,1.17,1.17,0,0,1-.42-1.59l3.58-6.17a1.16,1.16,0,1,1,2,1.16L130,71.42A1.17,1.17,0,0,1,129,72Z" style="fill:#58b3b2"/></g><g id="f88180b8-93c1-4e59-b1e5-c7cb3954bcfb" data-name="Group 7690"><path id="bce10d03-9e0e-477b-8cc9-eb34e3e6f89f" data-name="Path 3709" d="M145.13,76.3A1.15,1.15,0,0,1,144,75.15h0V68a1.15,1.15,0,0,1,1.16-1.15A1.17,1.17,0,0,1,146.29,68v7.15a1.15,1.15,0,0,1-1.16,1.15Z" style="fill:#58b3b2"/></g><g id="acc3ab58-b700-431f-b641-e685e4d8bce5" data-name="Group 7691"><path id="b5f3646d-21ed-4108-abbb-61c78b563335" data-name="Path 3710" d="M161.2,72a1.16,1.16,0,0,1-1-.58l-3.58-6.17a1.16,1.16,0,1,1,2-1.16l3.58,6.17a1.16,1.16,0,0,1-.43,1.59A1.14,1.14,0,0,1,161.2,72Z" style="fill:#58b3b2"/></g><g id="b0200a14-ddb8-4a09-b80d-d9fb78181738" data-name="Group 7692"><path id="a7822cdf-de6b-4547-b31e-634fddf45675" data-name="Path 3711" d="M173,60.23a1,1,0,0,1-.57-.16l-6.18-3.57a1.16,1.16,0,0,1,1-2.08.57.57,0,0,1,.13.08l6.18,3.58a1.16,1.16,0,0,1-.59,2.16Z" style="fill:#58b3b2"/></g><g id="b74d01d4-ea1c-4fe9-b284-444ee9c2d5e8" data-name="Group 7693"><path id="b4d700de-2bd4-4f21-bce7-9d943bb99129" data-name="Path 3712" d="M177.28,44.15h-7.15a1.16,1.16,0,0,1,0-2.32h7.15a1.16,1.16,0,0,1,0,2.32Z" style="fill:#58b3b2"/></g><g id="a26bf3d7-59cb-4dcb-8c09-f75a7cc592fc" data-name="Group 7694"><path id="e185cfdc-8ee4-4898-b5c3-a20a639666db" data-name="Path 3713" d="M166.79,31.64a1.16,1.16,0,0,1-.58-2.16l6.17-3.58a1.16,1.16,0,0,1,1.17,2l-6.18,3.57A1.06,1.06,0,0,1,166.79,31.64Z" style="fill:#58b3b2"/></g><g id="b978f0f6-3fda-41b5-9342-00a1df01a0f0" data-name="Group 7695"><path id="a09119c1-45c2-493f-be6d-89e985527e9b" data-name="Path 3714" d="M157.62,22.49a1.21,1.21,0,0,1-.58-.16,1.16,1.16,0,0,1-.42-1.58h0l3.58-6.19a1.16,1.16,0,0,1,2,1.16l-3.58,6.19A1.16,1.16,0,0,1,157.62,22.49Z" style="fill:#58b3b2"/></g></g><g id="ab338283-fc5d-407a-8ad3-9d020fdfcf9d" data-name="Group 7848"><path id="a839cdb7-7fc3-4452-afdd-7df924ff02bb" data-name="Path 3715" d="M284.25,109a1.16,1.16,0,0,1-.79-.3l-39.7-36.62a35.1,35.1,0,0,0-49.63-.44l-.4.41-36.51,36.28a1.16,1.16,0,1,1-1.68-1.6l.05,0,36.5-36.29A37.37,37.37,0,0,1,244.94,70l.42.41L285,107a1.16,1.16,0,0,1,.06,1.64,1.12,1.12,0,0,1-.85.37Z" style="fill:#58b3b2"/></g><path id="bb4c3bd3-6ff0-4dfb-8f4e-26f7e2246e7c" data-name="Subtraction 22" d="M194,182.51h0l-2.06-.18a49.22,49.22,0,0,0-.06-7.68,33,33,0,0,0-1.15-6.46,14.53,14.53,0,0,0-2.83-5.56,7.49,7.49,0,0,0-5.7-2.67h0c-.69,0-1.41,0-2.12,0-2.45,0-5.2.22-7,1.81l-1.83,1.6.13-2.45a8.73,8.73,0,0,0-2.15-6,11.09,11.09,0,0,0-6-3.68,19.08,19.08,0,0,0-4.32-.49,18.53,18.53,0,0,0-3.86.4c-2,.42-4.6,1.38-5.84,3.54l-1,1.78-.81-1.89A25.68,25.68,0,0,0,138.62,144a31,31,0,0,0-13.64-5.5,30.49,30.49,0,0,0-4.48-.32,33,33,0,0,0-10.47,1.7,29.26,29.26,0,0,0-12.22,7.6l-2.27,2.44.51-3.31a2.74,2.74,0,0,0-1-2.45,7.29,7.29,0,0,0-4.73-1.66,6.45,6.45,0,0,0-1.74.23,11.28,11.28,0,0,0-4.66,2.75,33.94,33.94,0,0,0-3.72,4.31l-.86,1.13-.81-1.17A8.63,8.63,0,0,0,74,146.58a10.49,10.49,0,0,0-3.2-.5,9,9,0,0,0-2.63.37c-3.68,1.09-6.25,4.56-5.85,7.9l.4,3.39-2.21-2.58c-1.51-1.77-3-3.61-4.39-5.39h0l0,0a90.67,90.67,0,0,0-10-11.2C42.58,135.35,35.33,130,26.38,130h-.57a18.47,18.47,0,0,0-10.42,3.6c-3,2.25-4.66,5.12-4.72,8.1l-.06,2.5-1.72-1.8a14.82,14.82,0,0,0-8.5-4.13v-2.11a17.78,17.78,0,0,1,8.47,3.41,13.36,13.36,0,0,1,5.3-7.65,20.57,20.57,0,0,1,11.6-4h.63c9.62,0,17.34,5.66,21.09,9a91.7,91.7,0,0,1,10.2,11.45l0,.05c.87,1.1,1.77,2.23,2.68,3.35a9.52,9.52,0,0,1,1.6-3.46,10.7,10.7,0,0,1,5.57-3.92,11.31,11.31,0,0,1,3.21-.45,12.46,12.46,0,0,1,3.83.6,11.12,11.12,0,0,1,4.68,2.88,28.36,28.36,0,0,1,3.84-4.13A12.83,12.83,0,0,1,88,140.7a8.56,8.56,0,0,1,2.3-.31,9.61,9.61,0,0,1,2.21.26,8.86,8.86,0,0,1,3.89,1.93,5.66,5.66,0,0,1,1.43,2,32,32,0,0,1,11.58-6.68,35.05,35.05,0,0,1,11.12-1.81,33,33,0,0,1,19.31,6.2,28.64,28.64,0,0,1,8.73,9.89,11.59,11.59,0,0,1,6.1-3.08,20.45,20.45,0,0,1,4.28-.43,20.79,20.79,0,0,1,4.78.53,13.11,13.11,0,0,1,7.11,4.38,11.24,11.24,0,0,1,2.54,5.5,14.76,14.76,0,0,1,6.71-1.23c.76,0,1.51,0,2.23,0a9.54,9.54,0,0,1,7.19,3.37,16.64,16.64,0,0,1,3.24,6.26,34.92,34.92,0,0,1,1.25,7,49.18,49.18,0,0,1,.06,8Z" style="fill:#58b3b2"/><path id="bea8903b-6bda-4a7f-8643-8cc4145f52a2" data-name="Subtraction 17" d="M312.31,170.81h0l-2.08-.21c.9-8.91,3.22-16.65,6.89-23A39,39,0,0,1,328.52,135a37.58,37.58,0,0,1,10.67-5.19,29.57,29.57,0,0,1,4.46-1,18,18,0,0,1,10.92-3.81h.22a17.63,17.63,0,0,1,10.22,3.5,14.19,14.19,0,0,1,4.94,6.38,14.43,14.43,0,0,1,3.86-2.61,19.27,19.27,0,0,1,6.74-1.72c.51,0,1,0,1.53,0a17.34,17.34,0,0,1,10.24,3.08,11.89,11.89,0,0,1,4.79-6.59,16,16,0,0,1,1.36-.9v2.49l-.13.09c-2.66,1.95-4.15,4.42-4.21,7l-.05,2.48-1.74-1.77a14.36,14.36,0,0,0-10.26-3.77c-.45,0-.92,0-1.38.05-4.45.33-8.34,2.2-10.4,5l-1.45,2-.42-2.43a11.43,11.43,0,0,0-4.67-7,15.54,15.54,0,0,0-9-3.08h-.19a15.73,15.73,0,0,0-9.83,3.53l-.25.21-.33,0a23.51,23.51,0,0,0-4.46,1,35.29,35.29,0,0,0-10.07,4.92,37,37,0,0,0-10.74,11.91c-3.5,6.09-5.72,13.52-6.58,22.1Z" style="fill:#58b3b2"/><g id="ba8dd98c-1f74-4d9f-8558-00913c455ada" data-name="Group 7697"><path id="ebd27f36-763c-4688-9d48-bf7270f35326" data-name="Path 3715-2" d="M181.82,141.1a1.21,1.21,0,0,1-.79-.3l-39.71-36.62a35.08,35.08,0,0,0-49.62-.44l-.4.41L54.79,140.43a1.16,1.16,0,0,1-1.68-1.6l0,0,36.5-36.29a37.37,37.37,0,0,1,52.85-.41l.42.41,39.68,36.59a1.16,1.16,0,0,1-.79,2Z" style="fill:#58b3b2"/></g><path id="e26e7fd9-62b8-4e22-96ed-b22a3a624ab5" data-name="Path 7901" d="M231.62,135.63l0,0-.74.22.12,0Z" style="fill:#58b3b2"/><path d="M399.64,72.83c-1.61-.72-3.26-1.38-4.94-2a61.44,61.44,0,0,0-16-3.33l-.46,0a64.84,64.84,0,0,0-16.72,3.32,55.65,55.65,0,0,0-14.84,7.68L297.21,114.8a1,1,0,0,0-.32.32,1,1,0,0,0,.31,1.32,2,2,0,0,0,2.22,0l49.45-36.29A52.24,52.24,0,0,1,362.67,73,61.17,61.17,0,0,1,378,69.87v0A60.69,60.69,0,0,1,393.53,73a52.76,52.76,0,0,1,6.11,2.54Z" style="fill:#58b3b2"/></g><g id="f0401899-3a2d-483e-9261-1913901b05ea" data-name="Background solid"><path id="b028d1ca-0d79-407f-9d63-5e55731845c8" data-name="Union 1" d="M364,319.51H234.62c.09-4.7.94-8.49,2.53-11.25,2.06-3.6,5.36-5.44,9.8-5.44a19.52,19.52,0,0,1,3.05.26,49.36,49.36,0,0,0,7.58.71c5.07,0,6.84-1.34,8.48-3h0l.16-.16.06-.06c1.41-1.41,2.75-2.73,6.8-2.73a23.66,23.66,0,0,1,2.4.13c6.28.62,11.13,1.25,14.53,1.74a60,60,0,0,0-8.6-10.66c-1.49-1.47-3.06-2.91-4.58-4.3l0,0-1.34-1.23c-.26-.25-.6-.62-1-1.05a17.69,17.69,0,0,0-2.13-2.11c8.51,4.69,16.63,9.49,22.43,16.55-.66-2.54-1.42-5.2-2.25-7.88-2.27-7.33-4.55-13.78-7-19.71a144.17,144.17,0,0,0-9.18-18.77c1.89,3.17,3.88,6.35,5.81,9.44C288,269.31,294,279,298,289.36c-.23-1.78-.46-3.38-.69-4.9-1.42-9.16-3.2-18.18-4.76-25.79-.79-3.86-1.68-8-2.8-13.05-.16-.69-.31-1.38-.46-2.07l0-.12c-.35-1.58-.71-3.21-1.08-4.81-.08-.35-.15-.86-.23-1.44v0c-.05-.35-.1-.71-.16-1.08,4.9,16.07,10,33.25,13.71,51,0,.15.06.31.1.46a14.77,14.77,0,0,1,1.39-1.35,11.83,11.83,0,0,1,2.26-1.5,106.37,106.37,0,0,1,4.1-10.4,53.44,53.44,0,0,1,4.38-7.95,12.61,12.61,0,0,1,1.48-1.7,32.7,32.7,0,0,0-3.45-2.63c1.43.59,2.85,1.19,4.29,1.8a14.87,14.87,0,0,0,2.19-2.5c-.5.92-1,1.86-1.42,2.83,1.9.82,3.78,1.66,5.64,2.54-.41-.83-.86-1.65-1.35-2.44a28.73,28.73,0,0,0-3.37-4.17l0,0h0l0,0-.06-.05-.08-.09c-.76-.82-1.92-2.07-1.05-2.92a.89.89,0,0,1,.62-.25c1.34,0,3.33,2.56,4.09,3.52l0,0,.24.32-.6-.82A34.44,34.44,0,0,1,327.8,268c.33.62.65,1.25,1,1.88a56.25,56.25,0,0,1,10.49,7.39Q338,273.59,336.5,270c-5-12.1-11.24-24.65-19.8-35.59,4.49,5.69,9.34,11.29,13.89,17-1.13-1.61-2.28-3.21-3.4-4.78h0l-.05-.06-.08-.12c-1.42-2-2.88-4-4.27-6.05-.35-.5-.67-1-1-1.56v0a27.6,27.6,0,0,0-3.49-4.62c-.75-.76-1.6-1.52-2.33-2.19h0a29.17,29.17,0,0,1-4.13-4.26l.46.16.21.07.38.14.06,0,.32.12a16,16,0,0,1,4.91,3.33c.23.2.53.48.84.74,1.08.94,2.27,1.84,3.41,2.7l0,0c1.1.83,2.34,1.77,3.43,2.72,3.5,3,6.7,6.25,9.8,9.36l.08.07.1.1,0,.05c.91.92,1.73,1.74,2.55,2.55l.35.35c-.71-2.77-1.44-5.53-2.2-8.3-1.09-4-2.25-8.05-3.43-12.07-.64-2.16-1.27-4.32-1.92-6.48-.16-.52-.3-1.43-.49-2.36,4.62,11.44,9.12,22.89,12.94,34.48q2.16,2.52,3.95,5a62,62,0,0,1,4.07,6.46c.92-2.18,2-4.34,3.1-6.46a163.58,163.58,0,0,0-13-28.89c4.88,8.19,10.27,16.2,14.91,24.59v-.05c-.09-.41-.19-.83-.3-1.28-2.76-10.82-10.08-20-16.87-27.5l-3.35-3.66,0,0h0l-.23-.25,0,0h0c-6.13-6.67-12.47-13.56-16.62-21.28a28.34,28.34,0,0,1-3.05-8.26l.18,0a.49.49,0,0,1,.38.17c6.08,8.12,14.27,15.18,22.2,22h0a199,199,0,0,1,17.44,16.29l-1.23-5.61c-.52-2.33-1-4.67-1.57-7-.13-.57-.24-1.55-.4-2.55,1.72,5.66,3.43,11.32,5.07,17l1-19.46.11,0h0l0,0,.17-.06,0,0,.13-.05c3.21,4.82,3.51,10,3.35,14.87a111.77,111.77,0,0,0,.22,11.86l0,.06,0,0,0,0,0,0,.05.07q1.44,2.24,2.69,4.57a10.62,10.62,0,0,0,1.82-1.66c-.53.73-1,1.48-1.51,2.25A61.77,61.77,0,0,1,372,262c.51-1.34,1-2.66,1.6-4,2.79-13.56,5.63-27.92,5.87-30,.14-1.26.34-2.56.51-3.71v-.07a53,53,0,0,0,.78-7.95v-.42c-.07-13.88.41-21.29,1.43-22,.3,2,1.59,6.68,2.83,11.19v.07c1.27,4.58,2.46,8.9,2.69,10.62.6,4.47,1.84,12.61,3.28,22l0,.12v.07c1.39,9.14,3.12,20.51,4.53,30.3,2-9.3,2.65-18.87,3.17-28.67.12-2.15.17-4.33.21-6.25v-.15c.07-2.88.14-5.87.38-8.81,0-.14,0-.39,0-.75v0a45.64,45.64,0,0,1,.63-6.39V319.49H364.1l-.18.51C364,319.86,364,319.69,364,319.51ZM329.88,290.9a96.51,96.51,0,0,0-3.23-12.17c-.29-.91-.62-2-1-3.1l-.12-.4h0c-.41-1.36-.83-2.74-1.3-4.12-.45-.35-.9-.7-1.36-1-2.16-1.61-4.41-3.14-6.64-4.69a116.76,116.76,0,0,0-5.61,18.11,19.24,19.24,0,0,1,8,2.18,33,33,0,0,1,8.79-4.47,43.88,43.88,0,0,0-6.76,5.55,53.83,53.83,0,0,0,9.23,4.15Zm6.18-6.73v0l0,0c.71,1.27,1.52,2.72,2.29,4.14.07-.43.13-.86.2-1.3a63.46,63.46,0,0,0-4.3-6.12l-.07-.09c.62,1.14,1.24,2.25,1.83,3.29Z" style="fill:#c0e2e2"/><path id="a89ae711-2b6a-483a-8fd3-380e34ac9836" data-name="Subtraction 16" d="M271.79,196.6h0a48.47,48.47,0,0,1,.06-7.62,33.17,33.17,0,0,1,1.2-6.54,14.92,14.92,0,0,1,3-5.69,8.42,8.42,0,0,1,6.28-2.9c.75,0,1.42,0,2.1,0,2.58,0,5.49.24,7.52,2-.25-4.64,3.59-9.21,8.74-10.4a20.32,20.32,0,0,1,4.46-.49,17.37,17.37,0,0,1,6.1,1,8,8,0,0,1,4.24,3.29,26.17,26.17,0,0,1,8.92-10.66,31.54,31.54,0,0,1,13.77-5.5,32.46,32.46,0,0,1,4.51-.32,34.22,34.22,0,0,1,12.64,2.46,29.17,29.17,0,0,1,10.28,6.87,3.39,3.39,0,0,1,.87-2.8,7.82,7.82,0,0,1,5.76-2.34,7.38,7.38,0,0,1,2,.26,12.08,12.08,0,0,1,5,2.89,34.06,34.06,0,0,1,3.76,4.3,10.66,10.66,0,0,1,11.19-3.57,9.39,9.39,0,0,1,5.24,3.9v31.6Z" style="fill:#c0e2e2"/><path id="b2e27592-bf1d-4c9e-a977-e8b661fa883c" data-name="Subtraction 21" d="M.45,319.55h0v-43a18.41,18.41,0,0,1,3.18,1,13.81,13.81,0,0,1,5.89,4.55A13.85,13.85,0,0,1,15,273.61,17.66,17.66,0,0,1,25.43,270h.22A17.91,17.91,0,0,1,37,274.14a62.6,62.6,0,0,1,15.93,4,34.37,34.37,0,0,1,11.4,7.24,20.44,20.44,0,0,1,6.11,12.72l2.1,21.27Z" style="fill:#c0e2e2"/></g><g id="b71eeafe-f393-4c5b-8a3b-294ee26e6c34" data-name="Core illustration"><path id="aaada4aa-5f13-45bf-a5f1-9a6f6c12c232" data-name="Subtraction 37" d="M205.77,319.28H79.31l78.73-34a35.49,35.49,0,0,0,5.8-2.37,17.34,17.34,0,0,0,4.06-2.81,5.92,5.92,0,0,0,2-3.79c.22-3.45-3.77-7-11.86-10.63-5.67-2.53-13.48-5.34-22.53-8.61-13.59-4.92-29-10.48-41.68-16.72-14.69-7.24-22.71-13.93-24.5-20.47a10.2,10.2,0,0,1-.15-5,13.34,13.34,0,0,1,2.48-5.12,22.18,22.18,0,0,1,6.6-5.54A56,56,0,0,1,88.4,199.7a167.81,167.81,0,0,1,28.08-6.48c21.25-3.36,45.86-5,67.58-6.49,20.29-1.36,37.81-2.55,44.49-4.76,2.53-.84,3.83-1.87,4-3.14.32-3-6.18-7.07-13.7-11.75a137.57,137.57,0,0,1-14.25-9.7c-4.78-3.95-7.32-7.48-7.78-10.79a8.74,8.74,0,0,1,2.51-7.11c3.72-4.2,10.76-8.31,20.92-12.21a235.67,235.67,0,0,1,31-9.06c21.34-4.9,28.13-5.95,32.74-5.95,0,0-.61,6.46-.89,10.72-.11,1.57,1.68,4.48-16.46,7.92a250.08,250.08,0,0,0-25.72,6c-8,2.44-12.35,4.79-13,7a2.29,2.29,0,0,0,.74,2.37c1.95,2,6.28,5,11.29,8.52,7.1,5,15.95,11.15,22.76,17.63a47.26,47.26,0,0,1,8.21,9.85c2,3.49,2.83,6.74,2.36,9.66-.53,3.23-2.62,6.17-6.22,8.73-3.94,2.8-9.82,5.24-17.46,7.24-26.31,6.88-57.05,8.85-79.49,10.29-8.79.56-16.37,1-21.7,1.71-5.75.72-8.5,1.62-8.64,2.84-.19,1.63,4.3,3.94,14.13,7.28,7.66,2.6,15.3,4.78,22.69,6.89,11.57,3.31,22.5,6.43,31.07,10.52a45,45,0,0,1,11,7,23.34,23.34,0,0,1,6.54,9.46,24.11,24.11,0,0,1,1.36,7.87,37.33,37.33,0,0,1-1.26,9.53A69.52,69.52,0,0,1,221,292.76a131,131,0,0,1-7.36,13.61c-2.85,4.67-5.52,9-7.9,12.91Z" style="fill:#2e3e5a"/><path id="a00b7167-599b-40dc-8aa2-c75f5e751782" data-name="Path 3748" d="M165.32,164a12.53,12.53,0,0,0-3.44,24.59l.66,2.51,1.2,4.61,1.22,4.65a.71.71,0,0,0,.67.52h0a.71.71,0,0,0,.67-.56l1-4.88,1-4.8.42-2.05A12.53,12.53,0,0,0,165.32,164Zm3,17.07a5.44,5.44,0,0,1-3.39.91,8.38,8.38,0,0,1-3.28-.61v-2a7.68,7.68,0,0,0,1.45.54,6,6,0,0,0,1.57.21,3,3,0,0,0,1.76-.4,1.45,1.45,0,0,0,.56-1.29,1.15,1.15,0,0,0-.65-1.13,4.77,4.77,0,0,0-2.08-.33h-.86V175h.88a4.14,4.14,0,0,0,1.93-.35,1.25,1.25,0,0,0,.61-1.18c0-.85-.54-1.28-1.62-1.28a3.72,3.72,0,0,0-1.14.18,5.71,5.71,0,0,0-1.28.65l-1.11-1.65a6.19,6.19,0,0,1,3.7-1.12,4.84,4.84,0,0,1,2.78.71,2.29,2.29,0,0,1,1,2,2.64,2.64,0,0,1-.64,1.8,3.36,3.36,0,0,1-1.81,1v.05a3.63,3.63,0,0,1,2.08.83,2.36,2.36,0,0,1,.71,1.79,3,3,0,0,1-1.19,2.54Z" style="fill:#e7892b"/><path id="afb97739-0b9d-4cbb-b855-6d0e358456d7" data-name="Path 7902" d="M166.32,319c19.43-16.7,36-34.14,35.44-44.14-1.31-23.2-92.24-45.32-92.24-45.32s-33.95-10.9,10.68-20.4S237,200,253.8,189.41,222,157.9,216.13,153s-16-11.57,15.93-21.91,65.57-13.27,65.57-13.27" style="fill:none;stroke:#fff;stroke-linecap:round;stroke-dasharray:4"/><circle id="b436e94e-b861-4681-a545-8f4703223b1e" data-name="Ellipse 78" cx="118.2" cy="235.39" r="9.4" style="fill:#fff"/><path id="a4289d76-dbf1-4214-8dbe-2876f4ab2b36" data-name="Path 3749" d="M130.16,223.93A14.11,14.11,0,1,0,116.9,248l3.46,13.23a.79.79,0,0,0,.76.59h0a.78.78,0,0,0,.75-.63l1.22-5.86,1.14-5.41.4-1.92a14.07,14.07,0,0,0,5.5-24.1Zm-4.65,16.38H116.1v-2l3.38-3.41c1-1,1.65-1.73,2-2.12a4.94,4.94,0,0,0,.66-1.1,2.72,2.72,0,0,0,.2-1,1.53,1.53,0,0,0-.44-1.2,1.69,1.69,0,0,0-1.2-.39,3.45,3.45,0,0,0-1.51.35,7.62,7.62,0,0,0-1.54,1l-1.55-1.82a9.66,9.66,0,0,1,1.65-1.2,5.59,5.59,0,0,1,1.43-.53,6.7,6.7,0,0,1,1.73-.19,5,5,0,0,1,2.23.46,3.51,3.51,0,0,1,1.5,1.28,3.45,3.45,0,0,1,.53,1.89,4.77,4.77,0,0,1-.33,1.75,6.42,6.42,0,0,1-1,1.66,25.34,25.34,0,0,1-2.42,2.44l-1.73,1.62v.13h5.87Z" style="fill:#e7892b"/><ellipse id="a7f97625-b225-423e-a9c3-23660c93c6ce" data-name="Ellipse 80" cx="221.66" cy="285.41" rx="10.97" ry="10.45" style="fill:#fff"/><path id="b2c19b75-709a-4674-ba87-a3c8fd55a17c" data-name="Path 3786" d="M222.56,266.83c-.32,0-.63-.05-.95-.05a15.21,15.21,0,0,0-3,.3c-.28.05-.56.13-.84.2a15.63,15.63,0,0,0-4.1,28.68l.84.45a16,16,0,0,0,2.8,1.12l.3,1.16,3.54,13.54a.87.87,0,0,0,.85.65h0a.86.86,0,0,0,.83-.69l3.06-14.66a15.65,15.65,0,0,0-3.35-30.7Zm.51,23.09h-3.16v-8.64l0-1.41.05-1.56c-.52.53-.89.87-1.09,1l-1.72,1.37-1.53-1.9,4.82-3.82h2.6Z" style="fill:#e7892b"/><path id="f90e8ec2-8dce-4a41-bea0-2e063eb13e6a" data-name="Path 7900" d="M254.83,145.28l-2.07,3.11h2.71v-1.91c0-.32,0-.78,0-1.38s.05-1,.06-1h-.06A8.7,8.7,0,0,1,254.83,145.28Z" style="fill:#e7892b"/><path id="fede4356-3587-4e3b-b732-698beb8d5e32" data-name="Path 3746" d="M267.62,143.25a12.56,12.56,0,1,0-17.45,15.3l.08,0a12.76,12.76,0,0,0,2.05.79l1,3.77.71,2.73.48,1.82.9,3.44a.71.71,0,0,0,.68.53h0a.7.7,0,0,0,.67-.56l.85-4.09.4-1.92.64-3.06.56-2.66a12.61,12.61,0,0,0,5.68-3.45l.29-.31a12.87,12.87,0,0,0,2-3.08,12.63,12.63,0,0,0,1.12-4.6c0-.2,0-.41,0-.61A12.31,12.31,0,0,0,267.62,143.25Zm-8.47,7H257.8v2.33h-2.33v-2.33h-4.8v-1.65l4.94-7.25h2.19v7.06h1.35Z" style="fill:#e7892b"/><ellipse id="eefae28d-dd3b-4b0a-b3f4-008911f02b9f" data-name="Ellipse 79" cx="283.74" cy="87.69" rx="14.63" ry="13.59" style="fill:#fff"/><path id="e1536708-02a4-4850-ae61-2ddc919ca545" data-name="Path 3785" d="M304.15,86.21c-.95-12.33-11.11-22-23.14-22a23.29,23.29,0,0,0-23,22A23.57,23.57,0,0,0,262.85,102l6.22,8.88,3.44,4.9,4.64,6.61,2.28,3.26a2.07,2.07,0,0,0,1.63.87h.07a2,2,0,0,0,1.62-.87L299.26,102A24.42,24.42,0,0,0,304.15,86.21Zm-13.43,1.5a9.78,9.78,0,0,1-9.79,9.7h-.08a9.78,9.78,0,0,1,.08-19.55H281a9.75,9.75,0,0,1,9.71,9.78Z" style="fill:#e7892b"/></g></svg>