<svg xmlns="http://www.w3.org/2000/svg" width="400" height="320" viewBox="0 0 400 320"><g id="b2875902-49b1-463d-9d4d-50f40b8e3ac1" data-name="Background lines"><line id="e62e8855-0c61-4662-99e5-cbdc0440c155" data-name="Line 191" x1="392.63" y1="6.77" x2="392.63" y2="311.54" style="fill:none;stroke:#58b3b2;stroke-linecap:round;stroke-linejoin:round;stroke-width:2px"/><line id="bc47b425-a4d3-4ffb-ad95-4216f9dd3e53" data-name="Line 192" x1="364.61" y1="6.77" x2="364.61" y2="311.54" style="fill:none;stroke:#58b3b2;stroke-linecap:round;stroke-linejoin:round;stroke-width:2px"/><line id="adb748dc-db51-4fb4-bf9e-89f6e8e56d7b" data-name="Line 195" x1="176.69" y1="6.77" x2="176.69" y2="309.63" style="fill:none;stroke:#58b3b2;stroke-linecap:round;stroke-linejoin:round;stroke-width:2px"/><line id="ab8c96bc-aa36-4e7b-b01b-442b39a92e3f" data-name="Line 196" x1="148.68" y1="6.77" x2="148.68" y2="309.63" style="fill:none;stroke:#58b3b2;stroke-linecap:round;stroke-linejoin:round;stroke-width:2px"/><line id="adfaafb4-fdc8-4379-abfc-0af7f8b89413" data-name="Line 201" x1="182.35" y1="213.99" x2="356.73" y2="213.99" style="fill:none;stroke:#58b3b2;stroke-linecap:round;stroke-linejoin:round;stroke-width:2px"/><line id="a79a1262-8888-49cc-94d5-08358dfe13f9" data-name="Line 202" x1="74.88" y1="213.99" x2="143.11" y2="213.99" style="fill:none;stroke:#58b3b2;stroke-linecap:round;stroke-linejoin:round;stroke-width:2px"/><line id="ede683b4-9f98-44b7-9e84-9d23c6399933" data-name="Line 203" x1="143.45" y1="201.24" x2="75.17" y2="201.24" style="fill:none;stroke:#58b3b2;stroke-linecap:round;stroke-linejoin:round;stroke-width:2px"/><line id="e9da7256-072f-4c9b-a885-f2dab00959ef" data-name="Line 204" x1="356.73" y1="201.24" x2="182.35" y2="201.24" style="fill:none;stroke:#58b3b2;stroke-linecap:round;stroke-linejoin:round;stroke-width:2px"/><line id="a23fdf3f-8b74-4e74-8eee-9dcf7a62142f" data-name="Line 205" x1="183.35" y1="103.02" x2="356.73" y2="103.02" style="fill:none;stroke:#58b3b2;stroke-linecap:round;stroke-linejoin:round;stroke-width:2px"/><line id="a3b56863-12b1-4e31-8dc9-58f0dd6754b2" data-name="Line 206" x1="3.77" y1="103.02" x2="143.11" y2="103.02" style="fill:none;stroke:#58b3b2;stroke-linecap:round;stroke-linejoin:round;stroke-width:2px"/><line id="a827cf15-e615-4ff9-9daf-f6711fdb7355" data-name="Line 207" x1="142.56" y1="91.43" x2="3.53" y2="91.43" style="fill:none;stroke:#58b3b2;stroke-linecap:round;stroke-linejoin:round;stroke-width:2px"/><line id="ae278725-7707-4d92-87b5-3882ab3ec394" data-name="Line 214" x1="356.73" y1="91.43" x2="183.02" y2="91.43" style="fill:none;stroke:#58b3b2;stroke-linecap:round;stroke-linejoin:round;stroke-width:2px"/><path id="af9b950c-82bf-4f4e-847f-fb65aaec612c" data-name="Path 3833" d="M188.37,187.07c0,10.94,44.2,10.94,44.2,0s-9.9-19.8-22.1-19.8S188.37,176.13,188.37,187.07Z" style="fill:none;stroke:#58b3b2;stroke-linecap:round;stroke-linejoin:round;stroke-width:2px"/><ellipse id="b5ab70f1-69e4-4cea-89ea-54943150844f" data-name="Ellipse 32" cx="211.98" cy="37.11" rx="12.21" ry="1.67" transform="translate(-0.4 2.35) rotate(-0.63)" style="fill:none;stroke:#58b3b2;stroke-linecap:round;stroke-linejoin:round;stroke-width:2px"/><path id="e20ccb6c-f3ad-4b67-8555-64afdadc5609" data-name="Path 3834" d="M224.26,37s23.4,38.64-1,47.67A46.94,46.94,0,0,1,212.36,86a41.86,41.86,0,0,1-10.58-1.15c-24.62-8.48-2.08-47.63-2.08-47.63" style="fill:none;stroke:#58b3b2;stroke-linecap:round;stroke-linejoin:round;stroke-width:2px"/><ellipse id="a4af813c-e75a-43bc-9e4b-58d3bab5abd4" data-name="Ellipse 38" cx="257.26" cy="129.76" rx="12.21" ry="2.22" transform="translate(-1.55 3.12) rotate(-0.69)" style="fill:none;stroke:#58b3b2;stroke-linecap:round;stroke-linejoin:round;stroke-width:2px"/><path id="a2daea19-b61a-4852-b990-83a66581ad9d" data-name="Path 3886" d="M269.55,129.61A72.12,72.12,0,0,0,271.23,153c4,15.59,11.33,33.3-2.47,40.06a35.79,35.79,0,0,1-10.87,1.81,32.52,32.52,0,0,1-10.59-1.55c-13.88-6.39-6.08-23.38-2.54-39a65.11,65.11,0,0,0,.22-24.38" style="fill:none;stroke:#58b3b2;stroke-linecap:round;stroke-linejoin:round;stroke-width:2px"/><ellipse id="b1f4e1df-e9f2-47d5-8013-46b60a86780b" data-name="Ellipse 34" cx="100.49" cy="17.56" rx="17.06" ry="2.33" transform="translate(-0.19 1.11) rotate(-0.63)" style="fill:none;stroke:#58b3b2;stroke-linecap:round;stroke-linejoin:round;stroke-width:2px"/><path id="b921b338-e054-4fc6-b206-2828b8b6e637" data-name="Path 3836" d="M117.65,17.37s32.67,54-1.44,66.57A64.7,64.7,0,0,1,101,85.87a58.88,58.88,0,0,1-14.79-1.6c-34.37-11.85-2.9-66.52-2.9-66.52" style="fill:none;stroke:#58b3b2;stroke-linecap:round;stroke-linejoin:round;stroke-width:2px"/><ellipse id="aa28c80d-29f4-4dba-a1b5-b93557e939a5" data-name="Ellipse 35" cx="270.3" cy="37.11" rx="12.21" ry="1.67" transform="translate(-0.39 2.99) rotate(-0.63)" style="fill:none;stroke:#58b3b2;stroke-linecap:round;stroke-linejoin:round;stroke-width:2px"/><ellipse id="a8006748-60fd-40dc-974c-66a4bbc670d0" data-name="Ellipse 39" cx="329.44" cy="37.11" rx="12.21" ry="1.67" transform="translate(-0.39 3.65) rotate(-0.63)" style="fill:none;stroke:#58b3b2;stroke-linecap:round;stroke-linejoin:round;stroke-width:2px"/><path id="a178f027-3789-46e2-82a5-33ecfd4d1426" data-name="Path 3837" d="M282.58,37s23.4,38.64-1,47.67A46.79,46.79,0,0,1,270.68,86a42,42,0,0,1-10.59-1.15C235.48,76.4,258,37.25,258,37.25" style="fill:none;stroke:#58b3b2;stroke-linecap:round;stroke-linejoin:round;stroke-width:2px"/><path id="b659eff1-afda-4b59-897c-5c76be489456" data-name="Path 3887" d="M341.73,37s23.39,38.64-1,47.67A46.94,46.94,0,0,1,329.82,86a41.86,41.86,0,0,1-10.58-1.15c-24.62-8.48-2.08-47.63-2.08-47.63" style="fill:none;stroke:#58b3b2;stroke-linecap:round;stroke-linejoin:round;stroke-width:2px"/><g id="a8182740-3de1-41ab-b679-1eac2ab3aac8" data-name="Group 7838"><g id="b7a66922-b97f-4918-825a-8c89ee799541" data-name="Group 7823"><path id="b53c78ec-93cf-4878-9b00-b18ab0c76c2c" data-name="Path 3840" d="M313.35,158.24c-4.4.13-5,.41-5,.63,0,.41,9.22.73,20.59.73s20.59-.32,20.59-.73c0-.17-1.75-.33-4.68-.46" style="fill:none;stroke:#58b3b2;stroke-linecap:round;stroke-linejoin:round;stroke-width:2px"/><path id="aa71ef61-6906-4843-b130-64889db47259" data-name="Path 3841" d="M349.59,158.87l-4.37,36.5c0,.35-7.27.63-16.22.63s-16.23-.28-16.23-.63l-4.37-36.5" style="fill:none;stroke:#58b3b2;stroke-linecap:round;stroke-linejoin:round;stroke-width:2px"/></g><g id="b449fd19-6a37-4fa5-bb23-afccb7cfb46f" data-name="Group 7824"><path id="bee67d6a-e6d9-4fba-9324-e52b8fcb707f" data-name="Path 3842" d="M342.77,159.13a21.36,21.36,0,0,0,9.82-12.37c-4.73,3.87-12,5.79-15.85,12.4" style="fill:none;stroke:#58b3b2;stroke-linecap:round;stroke-linejoin:round;stroke-width:2px"/><path id="a9c3297e-91f7-4604-bbde-740c0c1e8e57" data-name="Path 3843" d="M341,154.35a10.45,10.45,0,0,0,.47-5.26,29.31,29.31,0,0,0-6.23,3.71,17.73,17.73,0,0,0-4.73,6.56" style="fill:none;stroke:#58b3b2;stroke-linecap:round;stroke-linejoin:round;stroke-width:2px"/><path id="fe4bad9b-07cb-4de6-9f59-300b11da760e" data-name="Path 3844" d="M329.59,158.34a6.88,6.88,0,0,0-3.41-3l-4.64-2.52A25.94,25.94,0,0,1,315,148.4a.83.83,0,0,0-.49-.31c-.45-.05-.63.51-.62.92.08,3.35,3.19,8.3,6.1,10.33" style="fill:none;stroke:#58b3b2;stroke-linecap:round;stroke-linejoin:round;stroke-width:2px"/><path id="e4392b1a-eaa3-4802-a759-9018792dda5c" data-name="Path 3845" d="M315.76,154.11a9.73,9.73,0,0,0-3.23-2.64c-2-1-4-1.28-6-2.28a1.11,1.11,0,0,0-.62-.17.66.66,0,0,0-.53.62,1.48,1.48,0,0,0,.27.81,26.75,26.75,0,0,0,2.71,3.86c2.09,2.5,4.57,3.61,6.06,4.67" style="fill:none;stroke:#58b3b2;stroke-linecap:round;stroke-linejoin:round;stroke-width:2px"/><path id="b9fd3a4b-f686-4b82-b69c-20cb3e78e851" data-name="Path 3846" d="M332.13,156.26c3.3-4.48,3.9-12.2,1.33-17.06a1,1,0,0,0-.47-.52c-.38-.15-.8.11-1.12.36a23,23,0,0,0-4.54,4.22c-2.25,3-2.62,7.82-2.12,11.46" style="fill:none;stroke:#58b3b2;stroke-linecap:round;stroke-linejoin:round;stroke-width:2px"/><path id="b9b7ce3d-7e50-4a11-8146-e86c56611461" data-name="Path 3847" d="M341.61,152.19a9.46,9.46,0,0,0,5-4,24.73,24.73,0,0,0,2.51-5.72A34.62,34.62,0,0,0,337.24,148a11.5,11.5,0,0,0-2.53,2.68" style="fill:none;stroke:#58b3b2;stroke-linecap:round;stroke-linejoin:round;stroke-width:2px"/><path id="b3406021-1d4c-46a5-a3ad-6e6841f519fc" data-name="Path 3848" d="M339.83,146.15A15.32,15.32,0,0,0,341,132.72a12.66,12.66,0,0,1-2.39,3.23c-.78.76-2,1.35-2.7,2.18a5.81,5.81,0,0,0-1.33,3.61" style="fill:none;stroke:#58b3b2;stroke-linecap:round;stroke-linejoin:round;stroke-width:2px"/><path id="ae5303f6-f54b-483e-a288-db26df7a57b7" data-name="Path 3849" d="M327.54,142.9c.31-1-.46-2.42-1.06-3.29a11.5,11.5,0,0,0-2.31-2.26l-4.73-3.84c.28,2.72-.4,5.49.13,8.18a17,17,0,0,0,1.42,3.9,17.51,17.51,0,0,0,3.78,5.57" style="fill:none;stroke:#58b3b2;stroke-linecap:round;stroke-linejoin:round;stroke-width:2px"/><path id="a71579bb-7225-4722-9d9b-5be315e0ac4e" data-name="Path 3850" d="M321.87,147.36a7.33,7.33,0,0,0-2.72-2.18,16.37,16.37,0,0,0-3-1.1,16.17,16.17,0,0,1-5.8-3.05,11.76,11.76,0,0,0,3.5,8.62" style="fill:none;stroke:#58b3b2;stroke-linecap:round;stroke-linejoin:round;stroke-width:2px"/><path id="a17d2957-39a5-491c-ae7c-fe38f6227953" data-name="Path 3851" d="M319.43,138.69c-.28-1.48-2.2-2.81-3.49-3.74a13.16,13.16,0,0,1-3.56-3.09,18.57,18.57,0,0,0,.07,6.31,9.51,9.51,0,0,0,3.25,5.47" style="fill:none;stroke:#58b3b2;stroke-linecap:round;stroke-linejoin:round;stroke-width:2px"/><path id="baf93808-7f13-4555-b618-04ac1b9f96a6" data-name="Path 3852" d="M331.54,139.05a8.66,8.66,0,0,0-1-6.67c-1.08-1.71-2.53-3.21-3.46-5a28,28,0,0,0-3.7,6.11,4.05,4.05,0,0,0-.33,2.63" style="fill:none;stroke:#58b3b2;stroke-linecap:round;stroke-linejoin:round;stroke-width:2px"/><path id="a0169e20-2b49-4d8a-b54e-7b5d5fd63638" data-name="Path 3853" d="M336.87,137.2c1.36-2.38,1-5.24.66-7.9a18.41,18.41,0,0,1-2.93,2.35,7.3,7.3,0,0,0-2.69,4.83" style="fill:none;stroke:#58b3b2;stroke-linecap:round;stroke-linejoin:round;stroke-width:2px"/></g></g><g id="b8c5a4fe-dfad-4f67-9a0c-7692a5ae586a" data-name="Group 7823-2"><path id="a9847504-e2f2-43a1-b4c3-cd7dd256eaca" data-name="Path 3840-2" d="M14.69,47.78c-4.4.14-5,.41-5,.64,0,.4,9.22.73,20.6.73s20.59-.33,20.59-.73c0-.18-1.76-.34-4.68-.47" style="fill:none;stroke:#58b3b2;stroke-linecap:round;stroke-linejoin:round;stroke-width:2px"/><path id="ff8bbc1e-8ec3-40e8-9fc3-441cb6caca6d" data-name="Path 3841-2" d="M50.92,48.41,46.56,84.92c0,.34-7.27.62-16.23.62s-16.22-.28-16.22-.62L9.74,48.41" style="fill:none;stroke:#58b3b2;stroke-linecap:round;stroke-linejoin:round;stroke-width:2px"/></g><g id="a6bb692a-5cab-44a3-96d8-e66649e04e64" data-name="Group 7824-2"><path id="aa7b892b-688d-4684-ae63-a9e7275446cc" data-name="Path 3842-2" d="M44.11,48.68a21.43,21.43,0,0,0,9.82-12.37c-4.74,3.86-12,5.78-15.86,12.39" style="fill:none;stroke:#58b3b2;stroke-linecap:round;stroke-linejoin:round;stroke-width:2px"/><path id="bbb74477-0474-418e-a43d-d6b99b6edc7e" data-name="Path 3843-2" d="M42.32,43.89a10.56,10.56,0,0,0,.47-5.26,29.1,29.1,0,0,0-6.23,3.72,17.35,17.35,0,0,0-4.73,6.56" style="fill:none;stroke:#58b3b2;stroke-linecap:round;stroke-linejoin:round;stroke-width:2px"/><path id="b4a2066f-e75a-4448-995b-7e208da882ad" data-name="Path 3844-2" d="M30.93,47.88a7,7,0,0,0-3.41-3l-4.65-2.52A26.27,26.27,0,0,1,16.32,38a.87.87,0,0,0-.49-.32c-.44-.05-.63.51-.62.92.09,3.35,3.19,8.3,6.11,10.33" style="fill:none;stroke:#58b3b2;stroke-linecap:round;stroke-linejoin:round;stroke-width:2px"/><path id="b9f41a1c-acc9-4057-8428-c75293d00706" data-name="Path 3845-2" d="M17.1,43.66A9.69,9.69,0,0,0,13.87,41c-2-1-4-1.28-6-2.29a1.13,1.13,0,0,0-.62-.16.64.64,0,0,0-.53.62A1.56,1.56,0,0,0,7,40a27.14,27.14,0,0,0,2.72,3.86c2.09,2.49,4.57,3.6,6,4.67" style="fill:none;stroke:#58b3b2;stroke-linecap:round;stroke-linejoin:round;stroke-width:2px"/><path id="b9e25546-a98c-4868-92de-58a482ebcedd" data-name="Path 3846-2" d="M33.47,45.8c3.29-4.48,3.89-12.19,1.32-17a1,1,0,0,0-.47-.52c-.37-.16-.79.1-1.11.35a23.61,23.61,0,0,0-4.54,4.22c-2.25,3-2.62,7.83-2.12,11.47" style="fill:none;stroke:#58b3b2;stroke-linecap:round;stroke-linejoin:round;stroke-width:2px"/><path id="bb474cb9-7f19-4c0b-8c11-d570864ed57c" data-name="Path 3847-2" d="M43,41.73a9.31,9.31,0,0,0,5-4,24.32,24.32,0,0,0,2.51-5.72,34.57,34.57,0,0,0-11.88,5.47,11.34,11.34,0,0,0-2.53,2.69" style="fill:none;stroke:#58b3b2;stroke-linecap:round;stroke-linejoin:round;stroke-width:2px"/><path id="a9d64192-649d-4e4f-a013-140bd3678cd7" data-name="Path 3848-2" d="M41.16,35.69a15.29,15.29,0,0,0,1.2-13.43A12.66,12.66,0,0,1,40,25.49c-.79.77-2,1.36-2.7,2.19a5.77,5.77,0,0,0-1.33,3.6" style="fill:none;stroke:#58b3b2;stroke-linecap:round;stroke-linejoin:round;stroke-width:2px"/><path id="ec1022d8-6cda-4e37-ab69-dc949d940315" data-name="Path 3849-2" d="M28.88,32.45c.3-1-.47-2.42-1.06-3.3a11.73,11.73,0,0,0-2.31-2.25l-4.74-3.85c.28,2.72-.39,5.49.14,8.18a17.49,17.49,0,0,0,1.41,3.9,17.69,17.69,0,0,0,3.79,5.58" style="fill:none;stroke:#58b3b2;stroke-linecap:round;stroke-linejoin:round;stroke-width:2px"/><path id="b21b13ba-6526-4b68-b1c7-d41479b28bf6" data-name="Path 3850-2" d="M23.21,36.91a7.21,7.21,0,0,0-2.72-2.18,17,17,0,0,0-3-1.11,15.78,15.78,0,0,1-5.8-3,11.73,11.73,0,0,0,3.5,8.63" style="fill:none;stroke:#58b3b2;stroke-linecap:round;stroke-linejoin:round;stroke-width:2px"/><path id="b4af162b-72b8-4882-8846-aec28394c62d" data-name="Path 3851-2" d="M20.77,28.23c-.29-1.48-2.2-2.8-3.49-3.74a13.5,13.5,0,0,1-3.57-3.08,18.57,18.57,0,0,0,.08,6.31A9.4,9.4,0,0,0,17,33.18" style="fill:none;stroke:#58b3b2;stroke-linecap:round;stroke-linejoin:round;stroke-width:2px"/><path id="f22601a9-564e-4d14-a135-26b9d93474e1" data-name="Path 3852-2" d="M32.88,28.59a8.68,8.68,0,0,0-1-6.66c-1.08-1.71-2.53-3.22-3.47-5A29.28,29.28,0,0,0,24.73,23a4.15,4.15,0,0,0-.33,2.64" style="fill:none;stroke:#58b3b2;stroke-linecap:round;stroke-linejoin:round;stroke-width:2px"/><path id="e88c4843-eb34-4c92-8d85-649e15a819e0" data-name="Path 3853-2" d="M38.21,26.74c1.36-2.38,1-5.23.66-7.9a17.53,17.53,0,0,1-2.94,2.35A7.31,7.31,0,0,0,33.25,26" style="fill:none;stroke:#58b3b2;stroke-linecap:round;stroke-linejoin:round;stroke-width:2px"/></g></g><g id="e2303990-59b8-4f5d-9709-072d0f19449c" data-name="Background solid"><path id="b657ce9f-ff5f-4e98-b075-cd195417b8c3" data-name="Subtraction 5" d="M300.31,284.8a27.89,27.89,0,0,1-9.85-1.93,48.65,48.65,0,0,1-13.66-8.35c-6.28-5.41-8.53-10.15-9.32-13.18a12.66,12.66,0,0,1,2.89-11.91c3.09-3.64,8.14-6.38,15-8.14a77.18,77.18,0,0,1,18.42-2.09c1.54,0,3.05,0,4.51.11,12.3.66,26.1,3.4,42.19,8.38a183.91,183.91,0,0,1,25,10c7.36,3.53,15.21,7.74,24,12.89v6c-1.74-1-3.49-2.1-5.19-3.12-9.4-5.69-19.12-11.57-30-15.23a145.53,145.53,0,0,0-46.53-7.15h-1.6c-.42,0-1-.06-1.75-.12l-.42,0c-.93-.09-1.91-.17-2.84-.17-2.62,0-3.93.65-4,2a1.1,1.1,0,0,0,.31.81c.67.71,2.4,1.05,5.28,1.05,1.58,0,3.23-.11,4.49-.2l1-.07c.89-.07,1.6-.12,2-.12h0a149.75,149.75,0,0,1,24.55,2.27,116.34,116.34,0,0,1,42.39,16.26,17.63,17.63,0,0,1-6.69,8,18.35,18.35,0,0,1-9.88,2.79,21.42,21.42,0,0,1-4.85-.56A80.55,80.55,0,0,1,355,279.3a64.77,64.77,0,0,0-12.46-4,32.15,32.15,0,0,0-5.28-.43,37.4,37.4,0,0,0-10.5,1.57,88.39,88.39,0,0,0-10.42,3.93C311.09,282.66,306.1,284.8,300.31,284.8Z" style="fill:#c0e2e2"/><path id="f2f2f9f1-a678-4ec2-9a0e-b51d6ed04281" data-name="Subtraction 4" d="M399.5,258.28h0a70.25,70.25,0,0,1-13.87-11.81,108.92,108.92,0,0,1-11.54-15.17,154.13,154.13,0,0,1-15.49-32.41,148,148,0,0,1-4.4-16.17,142.68,142.68,0,0,1-2.85-19.51,87.06,87.06,0,0,1,.59-19.56,40.25,40.25,0,0,1,5.91-16.32,24.4,24.4,0,0,1,8.37-7.76,28.85,28.85,0,0,1,12.59-3.38c.66,0,1.34,0,2,0a44.62,44.62,0,0,1,18.67,4.2v79.74l-.23-.24c-1.32-1.31-2.25-2-2.77-2a.42.42,0,0,0-.39.21c-.34.53,0,2.08.87,4.6s2.06,5,2.52,6v49.64Z" style="fill:#c0e2e2"/><g id="a1598ed9-1370-4dcd-85ca-b88b4ae308aa" data-name="Group 7836"><path id="a5a14d70-9753-4066-aff5-74f0c97b58e3" data-name="Leaf Me Alone " d="M17.48,153.15c7.8-.41,17.46,4.15,18.29,12.63.61,6.16.43,12.3,1.36,18.46a50.06,50.06,0,0,0,4.5,14.12c2.08,4.31,6.39,8,7.5,12.58a19.7,19.7,0,0,1-.66,9.93c-1.19,3.48-.56,3.21,1.83,6.13a79.56,79.56,0,0,1,11.87,18.46c4.29,9.87,7.11,21.4,5.52,32.2-.2,1.37-.44,6.29-2.33,6.64-2.11.38-1.12-2.43-1-3.34.71-5.8,1.34-10.87.49-16.77-3.35-22.73-19.67-37.7-30.3-57-.58-1-1.81-3.36-2.67-4.93-1.36-2.47-2.72-7.16-4.55-9-3.45-3.45-.28,3.48.4,4.81.85,1.67,1.78,3.45,2.65,4.92,4,6.79,8.44,14.21,12.56,21.21-17.8,4.07-30.34-17.32-35.13-31.39-3.94-11.59-8.66-38.68,9.68-39.68" style="fill:#c0e2e2"/><path id="af551797-191e-4612-92c8-eb68634c28d5" data-name="Leaf Me Alone 2" d="M122,131.65c-13,1-21.41,9.64-25.31,21.67-2.1,6.49-2.34,13.15-3.51,19.82-1.75,10-5.53,17.62-12.91,24.77a24.77,24.77,0,0,0-5.17,6.91,29.44,29.44,0,0,0-6,8.53c-2,4.29-2.5,9.43-.25,13.71a14,14,0,0,0,3.66,4.5,88.36,88.36,0,0,0-8.68,39.64c.22,8.21.62,16.42,1.09,24.62.12,2.2.84,5.84,1.92,2.15,1-3.38-.26-8.68-.37-12.21-.56-17.18-1-32.81,6-48.87q1.13-2.52,2.35-5a1.1,1.1,0,0,0,.14-.09l.09.07a2.85,2.85,0,0,1,.21-.32,4,4,0,0,0,.63-.9,6.32,6.32,0,0,0,1.34-2.45h0a233.21,233.21,0,0,1,14.52-20.53s5.56-7.57,4.69-3.36c-.41,2-4.53,5.91-6.19,8.05a202.13,202.13,0,0,0-11.59,16.71,8.75,8.75,0,0,0-1.66,2.66c-.27.51-.52,1-.77,1.48,12.71,4.21,22.61-4.26,29.35-14.1l0,0a43.21,43.21,0,0,1,6.79-7.57c4.38-3.58,9.07-4.22,14.24-6,14.09-4.82,20.08-23.08,22-36.62,2.15-15.3-8.35-38.74-26.68-37.23" style="fill:#c0e2e2"/><path id="bf315818-7057-4223-ae91-ab448f4bff7f" data-name="Leaf Me Alone 3" d="M96.26,88.83c-13.38,13.94-19.85,33.26-25,51.42-5.72,20.28-9.49,40.88-9.64,62-.09,13.86-.47,27.8.34,41.64a145.06,145.06,0,0,0,1.56,14.7c.06.4,1.8,11.26,3.47,8.73,1-1.45-1.79-11.26-2-12.9a211.35,211.35,0,0,1-1.38-27.78c.09-15.29-.35-30.49,1.19-45.72a49.94,49.94,0,0,1,1-6.88c.57-2.37-.16-1.34,1.7-2.27s4.07-.78,5.94-1.92c7.47-4.53,11.29-16.16,14.27-23.8a147,147,0,0,0,7.12-27.22A195,195,0,0,0,97.4,98.51,52.81,52.81,0,0,1,98,92a14.93,14.93,0,0,0,.66-2.09c-.05-1.06-.69-1.7-.75-2.6-.56.51-1.11,1-1.65,1.55" style="fill:#c0e2e2"/><path id="e85b55a4-3de3-499e-9440-94ddd7ae75c8" data-name="Base" d="M23.29,274.41A41.7,41.7,0,0,0,65,316.12h0a41.7,41.7,0,0,0,41.7-41.71" style="fill:#c0e2e2"/><path id="a90ecefd-2484-4b81-bf97-2244ab009f86" data-name="Leaf Me Alone 4" d="M109.83,289.84a6.39,6.39,0,0,1-4.36-1.54,8.66,8.66,0,0,1-2.36-3.78,32.47,32.47,0,0,1-1.24-9.4A38.23,38.23,0,0,0,100.52,265a17.71,17.71,0,0,0-5.49-8.4c-.71-.61-1.46-1.19-2.18-1.75s-1.32-1-2-1.55l-.3-.26c-2-1.72-4.15-3.49-4.41-6.29a4.38,4.38,0,0,1,.75-3.4,3.23,3.23,0,0,1,2.53-.9,10.27,10.27,0,0,1,2.14.26c.12,0,.42.14.84.3a16.17,16.17,0,0,0,4.27,1.21.74.74,0,0,0,.64-.22.62.62,0,0,0,0-.59c-.25-.59-1.1-1.12-2.52-1.56-2.86-.31-5.57-.59-7.18-.59a5.21,5.21,0,0,0-1,.08,15.75,15.75,0,0,0-7.68,4.28,27.4,27.4,0,0,0-5.31,7.65,58.2,58.2,0,0,0-4.91,17.87c-.12,1-.24,2.15-.34,3.42h-2.2a76.21,76.21,0,0,1,.81-8.26,53,53,0,0,1,5.83-17,25.36,25.36,0,0,1,5.69-6.93,15.84,15.84,0,0,1,7.9-3.54,11,11,0,0,1,1.28-.05c.82,0,1.82,0,2.81.09a7.28,7.28,0,0,1,3.12-.92c.43,0,.88-.05,1.33-.05a22.43,22.43,0,0,1,7.51,1.38,32.43,32.43,0,0,1,7.19,3.65,37.17,37.17,0,0,1,6.2,5.2,31.73,31.73,0,0,1,4.59,6,23.27,23.27,0,0,1,2.87,11.63,37.65,37.65,0,0,1-2,11.95,27.35,27.35,0,0,1-4,7.91c-2.16,2.77-4.61,4.19-7.31,4.22Z" style="fill:#c0e2e2"/></g></g><g id="b7baf340-33a6-4bd9-88a3-090410fe8b7a" data-name="Core illustration"><path id="bcede4b0-29c9-4671-9cb2-33d87995832d" data-name="Neck" d="M266.92,216l-13.79-64.27h-9.94L234.1,216Z" style="fill:#b28b67"/><path id="be378c64-9d8f-4edd-84e5-ad30aee65958" data-name="Head" d="M218,183.58c10.24,2.64,49.51-17.55,47.46-46.81s-42.79-22.83-50.71-8.06S207.78,180.94,218,183.58Z" style="fill:#b28b67"/><path id="e50d3aee-aa6a-43a4-a8eb-61df9a97e24e" data-name="hair" d="M200.22,108.23a7.12,7.12,0,0,1,5-5A6.19,6.19,0,0,1,207,103c.23,0,.28.07.39-.08a1.93,1.93,0,0,0,.11-.53,10.84,10.84,0,0,1,.37-1.23,10.15,10.15,0,0,1,2.43-3.6,12.23,12.23,0,0,1,7.33-3.48,10.82,10.82,0,0,1,4.41.6,18.38,18.38,0,0,1,2.14.92c.21.11.89.62,1.1.59s.69-.62.88-.76a12.93,12.93,0,0,1,8.1-2.47c3.27,0,6.42.19,9.15,2.18a18.16,18.16,0,0,1,1.65,1.37c.28.26.54.52.8.8l.44.51c.25.3.21.4.55.19a6.77,6.77,0,0,1,4.37-1,9.63,9.63,0,0,1,2.63.74c.29.13.95.62,1.26.62a6.58,6.58,0,0,0,1.26-.56,10.5,10.5,0,0,1,5.27-.49,13.78,13.78,0,0,1,5.17,2,7.24,7.24,0,0,1,1.92,1.74,8.86,8.86,0,0,0,.68.93c.15.17.44.34.52.56a11.24,11.24,0,0,1,2.19-1,5.42,5.42,0,0,1,3.09.12,12.28,12.28,0,0,1,4.85,3.45,13.7,13.7,0,0,1,1.8,2.42,14.11,14.11,0,0,1,.67,1.28,4.33,4.33,0,0,0,.3.66c.17.25.28.25.58.36a9.4,9.4,0,0,1,4,2.7,9.29,9.29,0,0,1,2.09,4.43,2,2,0,0,0,.08.54c.08.08.39,0,.51.06a12.23,12.23,0,0,1,1.21.21,9.84,9.84,0,0,1,2.13.77,11.15,11.15,0,0,1,5.47,6.52,13.25,13.25,0,0,1-.21,9.06,9.74,9.74,0,0,1-.67,1.33c-.16.26-.22.26-.11.53s.33.59.47.89a12.73,12.73,0,0,1,1,3,14.16,14.16,0,0,1,.17,5.23,7.78,7.78,0,0,1-.81,2.3,6.51,6.51,0,0,1-.71,1c-.14.16-.29.32-.44.47a3.45,3.45,0,0,0-.28.26c-.19.24-.22,0-.13.39a14,14,0,0,0,.62,1.43c.18.49.36,1,.51,1.48a21.51,21.51,0,0,1,.76,3.07,9.73,9.73,0,0,1-.68,6,6.08,6.08,0,0,1-1.69,2,7,7,0,0,1-1.11.68c-.2.09-.46.13-.55.33s0,.62.08.86a14.39,14.39,0,0,1-.17,6.16,8.52,8.52,0,0,1-3.38,4.53,10.51,10.51,0,0,1-10.5.3,11.06,11.06,0,0,1-2.34-1.61c-1.8,2.42-5.5,2.34-8.13,1.65a11.62,11.62,0,0,1-7.41-6.13c-2.07,2.53-6.42,1.71-7.85-1a6.54,6.54,0,0,1-.67-2.16c-.05-.39,0-.78-.06-1.17a5.91,5.91,0,0,0-.57-1.46,8.06,8.06,0,0,1-.61-2.91c0-.52.05-1,.11-1.56a5.29,5.29,0,0,0-.16-1.37,6.34,6.34,0,0,0,2.66-.33,5.28,5.28,0,0,0,2.05-1.44,12,12,0,0,0,2.58-4.83c1.17-3.82.69-8.4-3.15-10.51-1.8-1-7.16-1-9.29-.49s-4.79,5.46-4.91,5.92c-.08.29,0,.65-.31.85-.58.42-1.54-.31-2-.68a7.82,7.82,0,0,1-1.73-2.3,28.39,28.39,0,0,1-2.37-5.8c-.43-1.55-.71-3.14-1.29-4.65a7.07,7.07,0,0,0-2.85-3.69,25.23,25.23,0,0,0-4.92-2,12.23,12.23,0,0,1-4.55-2.5,6.39,6.39,0,0,1-.78-.87c-.18-.25-.36-.73-.63-.89s-1,.4-1.41.63a16.1,16.1,0,0,0-4.52,4.49,27.9,27.9,0,0,0-3,5.35c-.6,1.44-1,3.29-2,4.47-.47.52-4,.84-5.09.38a6.39,6.39,0,0,1-2.77-2.4,3.77,3.77,0,0,1-.32-2.45c.1-.49.3-.95.41-1.43a4.31,4.31,0,0,1,.37-1.17,2.84,2.84,0,0,1,1.79-1.42,8.48,8.48,0,0,1-1.93-2.63,11.34,11.34,0,0,1-1-3.41,4.11,4.11,0,0,1,.55-2.66,6.94,6.94,0,0,1,2.28-1.89A14.66,14.66,0,0,1,202.1,117C200.41,114.44,199.37,111.25,200.22,108.23Z" style="fill:#2e3e5a"/><g id="b5f066df-0f2c-447c-8cf2-78a8b0c11dae" data-name="Group 10056"><path id="fce39a6f-c2a0-45c9-9596-a3b1dda5a007" data-name="Head-2" d="M216,186c4.71,1.22,15.56-2.4,26-9.71,2.72-11.08.05-25.2-.67-24.74-9.2,1.18-18.34,2.44-33.66,1.42C206.6,167.87,209.33,184.25,216,186Z" style="fill:#ffd964"/><path id="a8fbc0c5-93b1-47be-a862-7f5610d2bb82" data-name="Path 3889" d="M241.79,175.74c2-1.23,12.57-16.75,12.57-16.75s-.71-.06-.86.15-13.57,14-13.57,14S239.84,177,241.79,175.74Z" style="fill:#ffd964;stroke:#fdd651"/><path id="e6164d7e-eba7-4cc1-a43c-2cced2397727" data-name="Path 3890" d="M238.78,155.94l5.84-10.66s.12-.51-.32,0-8.82,10.34-8.82,10.34Z" style="fill:#ffd964;stroke:#fdd651"/></g><path id="f2218a16-e3bc-45cf-847b-ef17d8ef45fa" data-name="Subtraction 38" d="M138.86,319.55h-19L93.1,299a187.65,187.65,0,0,1-19.34-4.35c-4.46-1.35-7-2.62-7.55-3.78a1,1,0,0,1,0-1,4,4,0,0,1,2.38-1.95,11.42,11.42,0,0,1,3-.43c1.56-.09,3-.17,3.84-1.2,1.83-2.33-2.65-9.55-7.28-16.31-1.73-2.53-2.36-4.31-1.85-5.27a1.87,1.87,0,0,1,1.8-.79,8,8,0,0,1,2.28.4A100.49,100.49,0,0,1,83.29,273a153.44,153.44,0,0,1,13.33,11.9l51.62,22.66-9.38,12Z" style="fill:#b28b67"/><path id="a05c266e-7a14-4da1-85c5-7f2dbfefe396" data-name="Subtraction 39" d="M228.75,319.55H113.92a110.12,110.12,0,0,1-11.59-10.75l8.73-19.49c10.94,3.93,20,7,28.56,9.33,9.68,2.61,17.67,3.87,24.45,3.87a38.09,38.09,0,0,0,16.34-3.23,18.34,18.34,0,0,0,6.26-5.28,57.3,57.3,0,0,0,5.9-9.12c3.87-7.15,7.66-16.23,11.68-25.85,8.47-20.27,18.06-43.24,31.82-56.58l12.31,2.12a341.54,341.54,0,0,1-3.31,57.16,253.22,253.22,0,0,1-6.2,30.48,152.1,152.1,0,0,1-10.12,27.34Z" style="fill:#708daf"/><path id="e46349d0-b3ae-4591-9eab-31c774afae8f" data-name="Subtraction 40" d="M298.39,319.55h-100c2.42-6.5,5-13,7.8-19.9,5.83-14.49,11.85-29.47,16.48-45.65a209.79,209.79,0,0,0,5.63-25.11,171.86,171.86,0,0,0,2.17-27L262,197c10,16.15,17.84,34.19,23.83,55.16,2.84,9.92,5.26,20.39,7.4,32,2,10.84,3.7,22.43,5.21,35.43Z" style="fill:#fff"/><path id="a07320e3-b34e-4563-b816-44b9ba4577e0" data-name="Subtraction 41" d="M311.14,319.55H225.63c1.54-13.08,3.86-27.66,6.9-43.34,2.43-12.55,5.32-25.82,8.59-39.45,5.56-23.2,10.36-39.63,10.41-39.79H264a277.77,277.77,0,0,1,33.7,24.37,255.94,255.94,0,0,1,52.74,61.28,278.28,278.28,0,0,1,19,36.93H314.39l-3.21-5.79-3.11-5.68c1.08,3.86,2.12,7.72,3.07,11.47Z" style="fill:#96b7df"/></g></svg>